<svg xmlns="http://www.w3.org/2000/svg" width="865.76" height="682.89" viewBox="0 0 865.76 682.89"><polygon points="737.2 413.77 786.38 413.77 814.52 273.43 769.5 252.74 737.2 413.77" fill="#dbdbdb"/><polygon points="596.42 413.77 737.2 413.77 769.5 252.74 628.73 252.74 596.42 413.77" fill="#ebebeb"/><rect x="762.45" y="338.49" width="75.38" height="154.66" fill="#dbdbdb"/><polygon points="560.26 493.14 580.85 493.14 611.53 338.47 560.26 338.47 560.26 493.14" fill="#dbdbdb"/><rect x="721.04" y="338.49" width="41.42" height="154.66" fill="#ebebeb"/><rect x="518.84" y="338.49" width="41.42" height="154.66" fill="#ebebeb"/><rect x="560.24" y="413.76" width="160.78" height="79.37" fill="#ebebeb"/><rect x="560.24" y="379.47" width="160.78" height="34.63" fill="#ebebeb"/><path d="M752.38,338.47l-15.63-.28L721.1,338h-.46v.49l-.17,18.11-.08,18.1c0,12.06-.08,24.13,0,36.19s0,24.13.22,36.2.26,24.12.51,36.19q.39-18.11.53-36.19c.15-12.07.17-24.13.21-36.2s0-24.13,0-36.19V356.6l-.17-18.11-.48.48,15.65-.21Z" fill="#dbdbdb"/><path d="M560.26,338.47c-.33,12.11-.48,24.22-.61,36.33l-.18,36.34.18,36.33.22,18.18.39,18.16.37-18.16.22-18.18.18-36.33-.18-36.34C560.72,362.69,560.57,350.58,560.26,338.47Z" fill="#dbdbdb"/><path d="M560.26,413.77c13.4.31,26.8.47,40.19.59l40.2.19,40.18-.19,20.16-.21,20.16-.38L701,413.39l-20.16-.22-40.1-.19-40.32.21C587.06,413.29,573.66,413.45,560.26,413.77Z" fill="#dbdbdb"/><path d="M560.26,379.46c13.4.32,26.8.48,40.19.6l40.2.17,40.18-.17,20.16-.22,20.16-.38L701,379.07l-20.16-.22-40.1-.17-40.2.19C587.06,379.07,573.66,379.07,560.26,379.46Z" fill="#dbdbdb"/><polygon points="809.17 493.13 810.2 505.66 812.58 534.61 823.5 534.61 825.87 505.66 826.9 493.13 809.17 493.13" fill="#c7c7c7"/><polygon points="826.9 493.13 809.17 493.13 810.2 505.66 825.87 505.66 826.9 493.13" fill="#a6a6a6"/><polygon points="732.89 493.13 733.9 505.66 736.29 534.61 747.2 534.61 749.58 505.66 750.6 493.13 732.89 493.13" fill="#c7c7c7"/><polygon points="750.6 493.13 732.89 493.13 733.9 505.66 749.58 505.66 750.6 493.13" fill="#a6a6a6"/><polygon points="606.33 493.13 607.36 505.66 609.73 534.61 620.65 534.61 623.03 505.66 624.06 493.13 606.33 493.13" fill="#c7c7c7"/><polygon points="624.06 493.13 606.33 493.13 607.36 505.66 623.03 505.66 624.06 493.13" fill="#a6a6a6"/><polygon points="530.02 493.13 531.04 505.66 533.43 534.61 544.33 534.61 546.72 505.66 547.75 493.13 530.02 493.13" fill="#c7c7c7"/><polygon points="530.02 493.13 531.04 505.66 546.72 505.66 547.75 493.13 530.02 493.13" fill="#a6a6a6"/><rect x="27.93" y="62.79" width="237.3" height="316.29" fill="#dbdbdb"/><rect x="39.18" y="75.46" width="102.61" height="140.68" fill="#fff"/><rect x="151.37" y="75.46" width="102.61" height="140.68" fill="#fff"/><rect x="39.18" y="225.73" width="102.61" height="140.68" fill="#fff"/><rect x="151.37" y="225.73" width="102.61" height="140.68" fill="#fff"/><rect x="27.93" y="62.79" width="48.86" height="452.51" fill="#ebebeb"/><polygon points="67.54 84.3 67.91 133.22 68.05 182.15 68.32 280 68.05 377.86 67.91 426.78 67.54 475.71 67.15 426.78 67.01 377.86 66.77 280 67.01 182.15 67.15 133.22 67.54 84.3" fill="#fff"/><polygon points="45.1 95.65 45.47 139.33 45.69 183.02 45.88 270.39 45.69 357.77 45.47 401.46 45.1 445.14 44.71 401.46 44.5 357.77 44.33 270.39 44.51 183.02 44.73 139.33 45.1 95.65" fill="#fff"/><polygon points="56.31 105.96 56.69 157.1 56.83 208.26 57.09 310.57 56.84 412.89 56.7 464.03 56.31 515.19 55.94 464.03 55.8 412.89 55.54 310.57 55.8 208.26 55.94 157.1 56.31 105.96" fill="#fff"/><polygon points="36.76 86.87 37.13 140.42 37.27 193.95 37.53 301.03 37.27 408.11 37.13 461.66 36.76 515.19 36.37 461.66 36.25 408.11 35.98 301.03 36.25 193.95 36.39 140.42 36.76 86.87" fill="#fff"/><rect x="216.38" y="62.77" width="48.86" height="452.51" fill="#ebebeb"/><polygon points="225.64 84.3 226.01 133.22 226.15 182.15 226.42 280 226.15 377.86 226.01 426.78 225.64 475.71 225.25 426.78 225.13 377.86 224.87 280 225.13 182.15 225.25 133.22 225.64 84.3" fill="#fff"/><polygon points="248.08 95.65 248.45 139.33 248.67 183.02 248.84 270.39 248.67 357.77 248.45 401.46 248.08 445.14 247.69 401.46 247.47 357.77 247.31 270.39 247.47 183.02 247.69 139.33 248.08 95.65" fill="#fff"/><polygon points="236.85 105.96 237.22 157.1 237.36 208.26 237.63 310.57 237.36 412.89 237.24 464.03 236.85 515.19 236.48 464.03 236.34 412.89 236.08 310.57 236.34 208.26 236.48 157.1 236.85 105.96" fill="#fff"/><polygon points="256.41 86.87 256.8 140.42 256.94 193.95 257.18 301.03 256.94 408.11 256.8 461.66 256.41 515.19 256.04 461.66 255.9 408.11 255.65 301.03 255.9 193.95 256.04 140.42 256.41 86.87" fill="#fff"/><rect x="456.41" y="82.93" width="83.06" height="100.75" fill="#ebebeb"/><rect x="465.91" y="92.13" width="64.08" height="82.36" fill="#fff"/><rect x="465.91" y="92.13" width="2.5" height="82.36" fill="#dbdbdb"/><rect x="539.49" y="82.93" width="2.5" height="100.75" fill="#dbdbdb"/><rect x="487.38" y="103.48" width="15.1" height="45.02" fill="#dbdbdb"/><path d="M521.86,157H480V133.36h41.87Zm-40.32-1.55h38.77V134.91H481.54Z" fill="#ebebeb"/><rect x="686.78" y="82.93" width="83.06" height="100.75" fill="#ebebeb"/><rect x="696.27" y="92.13" width="64.08" height="82.36" fill="#fff"/><rect x="696.27" y="92.13" width="2.5" height="82.36" fill="#dbdbdb"/><rect x="769.84" y="82.93" width="2.5" height="100.75" fill="#dbdbdb"/><rect x="717.73" y="103.48" width="15.1" height="45.02" fill="#dbdbdb"/><path d="M752.21,157H710.34V133.36h41.87Zm-40.32-1.55h38.77V134.91H711.89Z" fill="#ebebeb"/><rect x="571.59" y="82.93" width="83.06" height="100.75" fill="#ebebeb"/><rect x="581.08" y="92.13" width="64.08" height="82.36" fill="#fff"/><rect x="581.08" y="92.13" width="2.5" height="82.36" fill="#dbdbdb"/><rect x="654.66" y="82.93" width="2.5" height="100.75" fill="#dbdbdb"/><rect x="606.92" y="113.42" width="12.95" height="32.74" fill="#ebebeb"/><path d="M634.27,156.64H598V132.53h36.32Zm-34.77-1.55h33.22v-21H599.5Z" fill="#dbdbdb"/><path d="M541,590.63a14.68,14.68,0,0,1-14.59,15.16l-327.2,1.79A19.27,19.27,0,0,1,180,590.78l-50.13-449.1A18.16,18.16,0,0,1,148,121.5l325,.62a18.73,18.73,0,0,1,18.58,16.69Z" fill="#5b7fe6"/><path d="M339.75,364.83H175.06L149.61,139.89a5.1,5.1,0,0,1,5.07-5.66l161.07.14Z" fill="#00796B"/><path d="M210.49,272.09l.14,7.64s-9.58-1.25-5.83-12.22c0,0,4-14.16-.69-21.93,0,0-5.56,12.21-1,23.88,0,0,3.19,11.8-.56,20.54a15.18,15.18,0,0,1-6,6.11l-2.5,13.19s-11.94-8.61-26-1.67l-5-47.06s21.66-63,35.27-68.62l13.74-6.63,42.34,7.36s19.3-3.05,22.22,5.28l25.68,30s10.14,1.53,12.91,15c0,0,5.42,27.63-21.24,33.32,0,0-13.46,2.22-19.71-4.31,0,0-.42,3.89-5,6.11,0,0-2.78-7.63-28-7.63A223.46,223.46,0,0,0,210.49,272.09Z" fill="#eee5e7"/><path d="M269.36,278.06c11.94-5.27,1.94-30,1.94-30,19.16-20.26-7.63-42.06-7.63-42.06" fill="none" stroke="#d1c6ca" stroke-miterlimit="10"/><path d="M253,215.45s4.44,7.77,3,20.82l-3.61,34.16" fill="none" stroke="#d1c6ca" stroke-miterlimit="10"/><path d="M211.74,222.67s-9.44,12.49-10.41,34.71" fill="none" stroke="#d1c6ca" stroke-miterlimit="10"/><path d="M210.49,272.09l.14,7.64-.55,8.88s-21.24,15.83-9.58,76.08l98.15,1.53-4.46-33.4A71.12,71.12,0,0,0,284.34,305c-3.77-6.13-8.72-12-14.7-14.67l-.28-12.22S264.78,265.43,210.49,272.09Z" fill="#FFD54F"/><path d="M210.49,272.09l.14,7.64-.55,8.88s-21.24,15.83-9.58,76.08l98.15,1.53-4.46-33.4A71.12,71.12,0,0,0,284.34,305c-3.77-6.13-8.72-12-14.7-14.67l-.28-12.22S264.78,265.43,210.49,272.09Z" fill="#fff" opacity="0.2"/><path d="M210.08,286.39s46.09-6.11,59.56,3.89" fill="none" stroke="#fff" stroke-miterlimit="10" opacity="0.2"/><path d="M245.88,270.56l1.68,61.37s7.92-2.74,9.16-17.33a42.75,42.75,0,0,0-1-13.05c-1-4.33-2.38-11.89-1.36-16.15" fill="none" stroke="#fff" stroke-miterlimit="10" opacity="0.2"/><path d="M265.35,288.37s7,21.77,23.92,25.59" fill="none" stroke="#fff" stroke-miterlimit="10" opacity="0.2"/><path d="M217.88,270.93l.37,14.65s-17.47,16.92-13.86,52.32l2.91,26.52" fill="none" stroke="#fff" stroke-miterlimit="10" opacity="0.2"/><path d="M228.82,285s-1.53,25-24.16,31.21" fill="none" stroke="#fff" stroke-miterlimit="10" opacity="0.2"/><path d="M166.69,293a18.67,18.67,0,0,1,13.68-4.06s16.52-.69,17.35,4" fill="none" stroke="#d1c6ca" stroke-miterlimit="10"/><path d="M168.15,307.63l5.36,45.4A26,26,0,0,0,184,338.45l6.87-30.95A25.27,25.27,0,0,0,168.15,307.63Z" fill="#f4a892"/><path d="M281.58,244.33l-11.8-58.59s-3.89-3.19-.56-15.69l3.5-18a1.73,1.73,0,0,1,1.54-1.39h0a1.73,1.73,0,0,1,1.89,1.6l.75,10.46a1.65,1.65,0,0,0,1.47,1.53h0a1.67,1.67,0,0,0,1.66-.87l12.37-23.13a2.15,2.15,0,0,1,2.85-.93h0a2.15,2.15,0,0,1,1,2.81L289.35,158l12.93-17.69a2,2,0,0,1,3-.24h0a2,2,0,0,1,.27,2.48l-1.09,1.71s4.72-1.67,3.48,3.19L298,166l10-10.26a2,2,0,0,1,2.6-.16h0a1.93,1.93,0,0,1,.38,2.61l-21.89,32,15.14,40.54s7.91,14-5.83,21.38C298.38,252.1,286.85,256.13,281.58,244.33Z" fill="#f4a892"/><path d="M275.05,165.61s10.28,6.11,4.72,16.52" fill="none" stroke="#ef9681" stroke-miterlimit="10"/><path d="M284.35,160.75a23.72,23.72,0,0,1,11.8,8.61" fill="none" stroke="#ef9681" stroke-miterlimit="10"/><line x1="303.23" y1="146.73" x2="291.2" y2="164.41" fill="none" stroke="#ef9681" stroke-miterlimit="10"/><path d="M523.54,595.71l-158.33.08h-.13l-25.33-231,164.77-.54.06.54L530,588.52A6.47,6.47,0,0,1,523.54,595.71Z" fill="#c3b8b9"/><path d="M365.21,595.79l-158.77.07a5.88,5.88,0,0,1-5.84-5.22L175.12,365.37l164.63-.54Z" fill="#d9d0d0"/><path d="M504.58,364.83H339.75l-23.6-230.46,157.62.14a5.23,5.23,0,0,1,5.2,4.64Z" fill="#d9d0d0"/><polygon points="577.15 380.11 541.47 605.71 538.14 605.71 565.35 377.33 577.15 380.11" fill="#ea907f"/><path d="M544.7,442.08l9.68,45.34s2.09,19.58-1.11,30c0,0,14-1.39,16.11-20.69l1.8-25.68-2.91-32.49Z" fill="#f4a892"/><path d="M544.7,442.08s4.16,6.76,24.4,5.91l-.83-9.44Z" fill="#ef9681"/><path d="M582.41,484.42c-3.65,11-3.8,25.6-3.8,25.6s0,.26,0,.39c-.33,6.49-2.14,8.39-5.62,11.21L548.67,546.1l-.09,0a1.73,1.73,0,0,1-1.78-.29,1.78,1.78,0,0,1-.49-.68,1.72,1.72,0,0,1,.19-1.64l6.77-26.12c16.25-3.61,16.25-21.94,16.25-21.94l1.39-23.34v-1.65l11,5.17C585.35,477.56,582.41,484.42,582.41,484.42Z" fill="#00796B"/><path d="M584.86,485.68c-3,8.23-4.11,23.33-4.11,23.33.19,11.3-7.24,15.91-7.24,15.91l-23.9,22.82a3.54,3.54,0,0,1-1.49.35c-2.28,0-1.38-2.18-1.38-2.18l.06-.06a1.73,1.73,0,0,0,1.78.29l.09,0L573,521.62c2.78-2.13,5.29-4.72,5.62-11.21,0-.13,0-.26,0-.39s.15-14.57,3.8-25.6c0,0,2.94-6.86-.52-8.77C588.08,476.91,584.86,485.68,584.86,485.68Z" fill="#3964f2"/><path d="M591.28,544.14s-2.6,45.74-16.07,60.18c0,0,14.44,5,23-14.16l10.14-21.8,3.13-20.27A74.38,74.38,0,0,1,591.28,544.14Z" fill="#f4a892"/><path d="M591.28,544.14l-.16,2.85s8.56,8.46,18.81,10.75l1.59-9.65S600.41,547.27,591.28,544.14Z" fill="#ef9681"/><rect x="619.36" y="369.97" width="74.28" height="14.16" fill="#ea907f"/><polygon points="666.84 380.94 702.52 606.54 705.85 606.54 678.64 378.16 666.84 380.94" fill="#ea907f"/><polygon points="643.65 379.97 672.11 606.68 668.64 606.68 631.85 379.97 643.65 379.97" fill="#ea907f"/><rect x="625.74" y="503.53" width="64.97" height="5.55" fill="#ea907f"/><polygon points="515.79 214.48 536.34 275.43 568.4 275.29 548.41 214.34 515.79 214.48" fill="#e7e1e1"/><polygon points="512.46 215.03 515.79 214.48 536.34 275.43 533 275.29 512.46 215.03" fill="#d6d2d2"/><path d="M515.79,214.48s-.56-5.83,3.19-2.64c0,0,3.19,2.5.28,6.66" fill="none" stroke="#d6d2d2" stroke-linecap="round" stroke-linejoin="round"/><path d="M521.69,214.41s-.77-6,3-2.85c0,0,3.2,2.5.28,6.67" fill="none" stroke="#d6d2d2" stroke-linecap="round" stroke-linejoin="round"/><path d="M527.24,214.41s-.62-6,3.13-2.85c0,0,3.19,2.5.27,6.67" fill="none" stroke="#d6d2d2" stroke-linecap="round" stroke-linejoin="round"/><path d="M533.07,214.41s-.62-6,3.13-2.85c0,0,3.19,2.5.27,6.67" fill="none" stroke="#d6d2d2" stroke-linecap="round" stroke-linejoin="round"/><path d="M538.76,214.27s-.62-5.9,3.13-2.71c0,0,3.19,2.5.28,6.67" fill="none" stroke="#d6d2d2" stroke-linecap="round" stroke-linejoin="round"/><path d="M544,214.27s-.49-6.18,3.26-3c0,0,3.2,2.5.28,6.67" fill="none" stroke="#d6d2d2" stroke-linecap="round" stroke-linejoin="round"/><path d="M573.13,265.15s-9.44.42-9.31-5.55c0,0-6.24-4.44-5.69-11.8L547.6,236.67a2.12,2.12,0,0,1,.33-3.19h0a2.11,2.11,0,0,1,2.37,0l7.14,4.76s1.11-5.42,10.69,1.25l49.24,29.63,11.57,29.65s-10,2.78-17.91-3.89Z" fill="#f4a892"/><line x1="567.02" y1="244.19" x2="557.44" y2="238.22" fill="none" stroke="#ef9681" stroke-miterlimit="10" stroke-width="2"/><path d="M567.43,259.6s-1.11.83-3.61,0" fill="none" stroke="#ef9681" stroke-miterlimit="10" stroke-width="2"/><path d="M624.91,295s-25.68-69.42-2.5-77.61c0,0,.68.18,5.75-.53l1.54-1.41h38.82s23.45-2.79,17.62,29.14l-7.92,48S646,291.81,624.91,295Z" fill="#00796B"/><path d="M629.7,200.39v15.06s-5.41,3.93-1.77,7.17l24.89-12.31-1.65-27.05H648Z" fill="#f4a892"/><path d="M629.7,200.39v9.88S641.39,206,643,194.57C643,194.57,638.93,200,629.7,200.39Z" fill="#ef9681"/><path d="M629.7,215.45V200.39s-17.15-.07-18.53-18.54l.13-5.69s-5.89,10.59-6.77,21.12a18.62,18.62,0,0,0,22,19.93c.53-.1,1.07-.22,1.62-.35A12.31,12.31,0,0,1,629.7,215.45Z" fill="#070e3f"/><path d="M679.61,313.19l-1.39-20.55s-28.88-1-53.31,2.36c0,0,.69,19.16,1.94,31.1l-76.49,17.77s-28.6.83-20.69,34.71l9.3,63.86s39.85-4,46.37-6.8l-13.19,99.68s24.85,16.52,55.68,12.49l28.32-137.16,37.76-43.18S707.79,345,679.61,313.19Zm-82.74,95.38a42,42,0,0,0-4.72,7.49l-7.78-29L620,380.32Z" fill="#FFD54F"/><path d="M585.34,435.64s2.09-12.08,6.81-19.58l-2.46-10.39s-10,6.39-15.35,32.13Z" opacity="0.2"/><path d="M614.5,584.05c-7.5,8.89-13,22.35-13,22.35s-.11.24-.16.36a17.54,17.54,0,0,1-15,10.1l-26.15,1.38H560a1.74,1.74,0,0,1-1.74-1.75,1.73,1.73,0,0,1,.78-1.45l16.16-10.73c16.38,4,23-14.16,23-14.16l10.14-21.8.28-1.92,8.6,9.28C619.77,578.77,614.5,584.05,614.5,584.05Z" fill="#00796B"/><path d="M616.3,586.13c-5.83,6.53-12.49,20.13-12.49,20.13-4,10.55-12.64,12.08-12.64,12.08l-30.79,1.77a3.57,3.57,0,0,1-1.52-.23c-2.11-.85-.47-2.53-.47-2.53l.08,0a1.75,1.75,0,0,0,1.54.93h.1l26.15-1.38a17.54,17.54,0,0,0,15-10.1c.05-.12.1-.24.16-.36s5.55-13.46,13-22.35c0,0,5.27-5.28,2.77-8.33C622.55,579.19,616.3,586.13,616.3,586.13Z" fill="#3964f2"/><path d="M670.49,318.42s27.59,27.81,1.62,54.6L641,407.73,609.86,548.58" fill="none" stroke="#000" stroke-miterlimit="10" opacity="0.2"/><polyline points="574.34 437.8 563.96 373.02 603.48 364.69" fill="none" stroke="#000" stroke-miterlimit="10" opacity="0.2"/><path d="M661.28,330.26s1.31,12.52,22,15.29" fill="none" stroke="#000" stroke-miterlimit="10" opacity="0.2"/><path d="M401,196.22H378.31a19.23,19.23,0,0,0-15,7.25l-28.84,36.28a1.29,1.29,0,0,0,.64,2c5.67,1.71,23,8.11,30.92,24.34l6.52-6.94S375.29,272,371,289.59c0,0-5.14,21.65,1,31.09,0,0,47.76-10.82,90.1-.41,0,0,3.47-4.86,2.78-29.57l7.77-67.62s1.67-20.68-22.91-26l-20.54-.9Z" fill="#FFD54F"/><line x1="366.13" y1="265.71" x2="381.74" y2="249.81" fill="none" stroke="#000" stroke-miterlimit="10" opacity="0.2"/><path d="M412.77,253.14a.9.9,0,0,1-.55-.19L380.85,228.8a.9.9,0,1,1,1.1-1.43l31.37,24.15a.9.9,0,0,1-.55,1.62Z" fill="#00796B"/><path d="M461.23,284.35s4.21,15.47,22.62,11.07a14.46,14.46,0,0,0,8.69-6c2.52-3.78,4.28-9.89.76-19,0,0-1.67-5.49-13.54-9.83l-8.68,19.13Z" fill="#f4a892"/><path d="M461.23,284.35a16.9,16.9,0,0,0,13.66,11.73s12.16-17.74,4-31.21L471.5,281Z" fill="#ef9681"/><path d="M372,320.68,358.49,365H462.61l-.55-44.7S422.08,309.58,372,320.68Z" fill="#00796B"/><line x1="381.95" y1="318.6" x2="365.97" y2="364.99" fill="none" stroke="#000" stroke-miterlimit="10" opacity="0.2"/><path d="M399.27,316.59s-5,24.09-26.29,28" fill="none" stroke="#000" stroke-miterlimit="10" opacity="0.2"/><path d="M449.45,317.79s1,17.31,13,27.6" fill="none" stroke="#000" stroke-miterlimit="10" opacity="0.2"/><line x1="422.21" y1="341.09" x2="415.36" y2="365.23" fill="none" stroke="#000" stroke-miterlimit="10" opacity="0.2"/><path d="M412.5,434.94l-6.39.14s-15.27-2.22-20.83,10.14c0,0-24.29,36.09-26,54.7,0,0-4.72,22.63,16.11,25.68,0,0,32.62,5.83,33.6-8.61l5.55.28,8.75-12.77S448.18,501,457.06,508l.28,13.33s13.47,10.83,15.55,17.21c0,0,14.71-1.11,19-12.21,0,0,4.44-24,.42-29l-9.45-18.6a110.79,110.79,0,0,1-2.63-25.13s4.3-22.08-19.86-23.05h-4.16Z" fill="#00796B"/><path d="M405.55,518.1s-8.74-3.74-6.52-18.88c0,0-.14-7.91,7.22-9.85,0,0-.7-7.08-19.58-4,0,0-6.8.69-17.63,5.28" fill="none" stroke="#000" stroke-miterlimit="10" opacity="0.2"/><path d="M468.45,463.82s6.47,13.56.46,19.55" fill="none" stroke="#000" stroke-miterlimit="10" opacity="0.2"/><path d="M393.94,526.39s-14.39,9.84-6,69.43h97.61s-2.07-45.37-12.62-57.31c0,0-1.67-6.52-15.55-17.21L457.06,508s-7.63-6.94-33.73-3.47l-8.75,12.77L409,517S409.54,525.65,393.94,526.39Z" fill="#5b7fe6"/><path d="M393.94,526.39s-14.39,9.84-6,69.43h97.61s-2.07-45.37-12.62-57.31c0,0-1.67-6.52-15.55-17.21L457.06,508s-7.63-6.94-33.73-3.47l-8.75,12.77L409,517S409.54,525.65,393.94,526.39Z" fill="#fff" opacity="0.2"/><path d="M401.49,524.88s-16.6,11.3-4.53,71.19" fill="none" stroke="#fff" stroke-miterlimit="10" opacity="0.2"/><path d="M417.84,514.82s-4.81,29.42-24.65,31.7" fill="none" stroke="#fff" stroke-miterlimit="10" opacity="0.2"/><path d="M434.19,507.78l.24,56.83s14.16-5.55,10.83-24.43c0,0-4.3-15.83-2.78-22.08" fill="none" stroke="#fff" stroke-miterlimit="10" opacity="0.2"/><path d="M417.84,516.33s27.7-.31,39.5,5" fill="none" stroke="#fff" stroke-miterlimit="10" opacity="0.2"/><path d="M477,546.26a36.77,36.77,0,0,1-22.9-26.16" fill="none" stroke="#fff" stroke-miterlimit="10" opacity="0.2"/><path d="M477.05,504.08l43.36-.54L522,519.37l-11.74,0-24.85,8.89s-7.77,3.75-12.21-3.47C473.17,524.77,465.39,513.66,477.05,504.08Z" fill="#f4a892"/><rect x="438.87" y="502.14" width="55.53" height="1.94" fill="#FFD54F"/><polygon points="494.41 502.14 516.6 468.21 520.41 503.54 494.41 504.08 494.41 502.14" fill="#FFD54F"/><path d="M420.83,429.11a16.3,16.3,0,0,0-8.33,5.83s-5.59,4.68-3.37,10.53a8.52,8.52,0,0,0,6.77,5.34c3.73.55,9.9.05,17.14-6,0,0,12.08,6.94,22.08,2.22a8.58,8.58,0,0,0,3.47-6.66l-4.17-6.11s-3.86-7.22-11.3-6.8Z" fill="#fff"/><path d="M364.74,579.47l-.56-1.67s-17.35,3.2-21,11.94l.83,1.25s-3.75,1.67-5.14-2.91l-4.16-9.44s-12.84-2-14.46-10.35l-.12-.76L320,561.7s1.81-5.28-11.1-5c0,0-85-4.44-81.78,7.5,0,0-4.58,1-3.47-5.7l.14-13.32s-7.36-4.86-5.69-19.86L223.41,497,226,448s2.23-8.33,14.3-7.22c0,0,44-3,74.83,0,0,0,25.27,1.12,25.83,27.08l.41,28.74s1,24.57,16.11,38.73c0,0,16.8,17.08,3.89,31.38l5,8.19S367.79,578.91,364.74,579.47Z" fill="#FFD54F"/><path d="M206.07,438.21l8.31-21.87-23.06-36.77a2.3,2.3,0,0,1,.74-3.18h0a2.3,2.3,0,0,1,2.92.42l11.63,12.87s-14-21.51-10.69-24.85c0,0,1.94-2.22,3.61.14,0,0-2.36-3.19.41-4.86,0,0,2.09-2.5,6.11,5.7l9.58,14.85-6.74-17.81a2.63,2.63,0,0,1,1.81-3.47h0a2.64,2.64,0,0,1,3,1.33l15.56,30s2.08-1.25,1.52-7.5c0,0-.55-11.11,6-10a84.31,84.31,0,0,0,2.36,21.8s3.34,12.91-1.52,20L233,445.65A49.81,49.81,0,0,1,206.07,438.21Z" fill="#f4a892"/><path d="M206.47,395.38s5.83-8.33,16.24-10.42" fill="none" stroke="#ef9681" stroke-miterlimit="10"/><line x1="201.47" y1="367.33" x2="213.41" y2="388.71" fill="none" stroke="#ef9681" stroke-miterlimit="10"/><path d="M232.43,390.66s-10.27,5.55-6.11,18.6" fill="none" stroke="#ef9681" stroke-miterlimit="10"/><path d="M223.09,595.93l4.06-31.73c-3.19-11.94,81.78-7.5,81.78-7.5,12.91-.28,11.1,5,11.1,5l.14,5.83.12.76,4.16,27.47Z" fill="#00796B"/><line x1="238.4" y1="557.67" x2="233.96" y2="595.71" fill="none" stroke="#000" stroke-miterlimit="10" opacity="0.2"/><path d="M258.07,556.17s-2.26,23-22.7,29.18" fill="none" stroke="#000" stroke-miterlimit="10" opacity="0.2"/><path d="M307.21,556.68s2.52,21.29,16.56,34.81" fill="none" stroke="#000" stroke-miterlimit="10" opacity="0.2"/><path d="M331.42,574.19s-2.08-2.5,5.83-8.33c0,0,17.08-12.21,21.52-6.66" fill="none" stroke="#000" stroke-miterlimit="10" opacity="0.2"/><path d="M325.45,560.59l-.56-15.27s6,.13,4-19.86l-2.78-23.74" fill="none" stroke="#000" stroke-miterlimit="10" opacity="0.2"/><path d="M223.26,498l-4.44,23.38s22.83-11.12,18.43-46.76l-7-.78Z" opacity="0.2"/><rect x="611.17" y="143.33" width="37.07" height="57.06" rx="18.53" fill="#f4a892"/><path d="M680.3,196.85l-9.57-17.22c-6.39-9-5.42-15.27-5.42-15.27,1.67-13.61-3.19-18.88-3.19-18.88-17.91-16.38-39.29-2.92-39.29-2.92-17.91-2.91-15.27,12.5-15.27,12.5h23.6a5.33,5.33,0,0,1,1.52-5.56,13.92,13.92,0,0,0,11.11,10.69c-.83,14.72,4.62,11.11,4.62,11.11l1.25,11.78c2.54,23.31-10.73,30.56-10.73,30.56a87.33,87.33,0,0,0-16.1,12.5c-16.11,14.3-15,23.88-15,23.88,1,19.57,22.91,17.07,22.91,17.07,6.8,17.08,14.58,13.61,14.58,13.61-4.31-5.69-5.28-15-5.28-15a5.12,5.12,0,0,0,5-2.5c-5-.42-4.72-2.78-4.72-2.78-3.61-38.87,26.1-44.7,26.1-44.7C688.91,213.23,680.3,196.85,680.3,196.85Zm-49.7,53.86s-3.61-14,13-24.43A50.71,50.71,0,0,0,630.6,250.71Z" fill="#070e3f"/><path d="M643.93,171.16h6.46a6,6,0,0,1,6,6v0a6,6,0,0,1-6,6h-6.46a0,0,0,0,1,0,0V171.16A0,0,0,0,1,643.93,171.16Z" fill="#f4a892"/><path d="M686.14,234.47c0-9.51-7.09-17.22-15.83-17.22-7.83,0-14.33,6.18-15.6,14.3h-.13l-2.74,70S638,317.45,621.46,348a6.14,6.14,0,0,1-1.9,2.12c-4.76,3.27-22,16.07-19.64,27.94,0,0-1.11,5.28.83,8.33,0,0-1.25,7.08.42,8,0,0-2.41,5.91-.23,6.75.51.2,1.82.34,2.17-.08l58.17-70.81,15.36-19.4a12.57,12.57,0,0,0,2.71-7.33l2.17-56.91A18,18,0,0,0,686.14,234.47Z" fill="#f4a892"/><line x1="599.92" y1="378.02" x2="604.36" y2="371.64" fill="none" stroke="#ef9681" stroke-miterlimit="10" stroke-width="2"/><line x1="600.75" y1="386.35" x2="606.58" y2="377.47" fill="none" stroke="#ef9681" stroke-miterlimit="10" stroke-width="2"/><line x1="601.17" y1="394.4" x2="609.92" y2="381.49" fill="none" stroke="#ef9681" stroke-miterlimit="10" stroke-width="2"/><path d="M429.16,172.69v23.53a14.1,14.1,0,0,1-28.19,0V172.69Z" fill="#f4a892"/><ellipse cx="438.39" cy="163.66" rx="5.07" ry="6.66" fill="#FFD54F"/><path d="M429.16,172.69v19.55c-16.77-.42-25.34-4.41-28.19-6.07V172.69Z" fill="#ef9681"/><rect x="402.78" y="135.06" width="35.26" height="53.59" rx="17.63" fill="#f4a892"/><path d="M441.73,138.28a10.88,10.88,0,0,1-4.66,7.85c-2.45,2.19-7.8,1.71-13.11.45a94.86,94.86,0,0,1-14-4.71c-7.08-1.25-7.22,10.83-7.22,10.83l0,6.46a9.38,9.38,0,0,1-5.16-3.27,20,20,0,0,1,0-20.13c-1.11-5,1.25-7.08,1.25-7.08a9.12,9.12,0,0,1,2.05-1.27c5.84-2.6,12.81,1.82,12.81,1.82A12.88,12.88,0,0,1,428.46,123c9.72,2.5,7.36,11.36,7.36,11.36l.2-.1A4,4,0,0,1,441.73,138.28Z" fill="#070e3f"/><path d="M424,146.58a94.86,94.86,0,0,1-14-4.71c-7.08-1.25-7.22,10.83-7.22,10.83l0,6.46a9.38,9.38,0,0,1-5.16-3.27,20,20,0,0,1,0-20.13c-1.11-5,1.25-7.08,1.25-7.08a9.12,9.12,0,0,1,2.05-1.27,22.68,22.68,0,0,1,8.62,6.25c.28.34.55.68.8,1C411.56,136.34,417,143.46,424,146.58Z" opacity="0.2"/><path d="M436.77,146.31A18.05,18.05,0,0,1,438,152.7s1.82-2.43,1.26-8.56c0,0,0,0,0,0A9.12,9.12,0,0,1,436.77,146.31Z" fill="#070e3f"/><circle cx="399.24" cy="163.6" r="8.68" fill="#FFD54F"/><path d="M402.79,168a6.11,6.11,0,0,0-3.87-10.26c-7.94-10.72-1.28-22-1.28-22l-.17-1c-13.73,3.74-6.58,21.27-4.41,25.92a6.11,6.11,0,0,0,4.67,9.16,19.63,19.63,0,0,0,6.68,8.06,1.58,1.58,0,0,0,1.85-.11h0a1.59,1.59,0,0,0,.18-2.3A14.3,14.3,0,0,1,402.79,168Z" fill="#00796B"/><path d="M425.81,184.4a34.59,34.59,0,0,1-14.44-2.79,16.71,16.71,0,0,1-5.37-3.55.36.36,0,0,1,0-.49.35.35,0,0,1,.49,0h0a16.56,16.56,0,0,0,5.18,3.4c3.3,1.5,9,3.16,17.43,2.59a.35.35,0,1,1,.05.69C428,184.36,426.88,184.4,425.81,184.4Z" fill="#FFD54F"/><rect x="428.32" y="181.85" width="8.47" height="4.72" rx="2.36" fill="#00796B"/><path d="M338.22,242.8,321.7,266.68s-5.55,11.38,1.39,19.71a16.29,16.29,0,0,0,14,6.53l44.15-5.56s10.13,1.95,15.41-5.69c0,0,3.93-7.81,9.88-7.38l9.4-24.51-16.23.52s-9.44.69-19.57,13.46l-11.8-.18L366,266.12S361.17,251.63,338.22,242.8Z" fill="#f4a892"/><path d="M332.39,265.78A.49.49,0,0,1,332,265c.18-.21,4.59-5,15.67-3.77l32.48,2.08a.49.49,0,0,1-.06,1l-32.49-2.08h0c-10.55-1.2-14.82,3.41-14.86,3.45A.48.48,0,0,1,332.39,265.78Z" fill="#ef9681"/><line x1="402.22" y1="255.71" x2="413.47" y2="255.71" fill="none" stroke="#ef9681" stroke-miterlimit="10" stroke-width="2"/><line x1="400.97" y1="261.4" x2="411.43" y2="261.4" fill="none" stroke="#ef9681" stroke-miterlimit="10" stroke-width="2"/><line x1="400.28" y1="267.37" x2="409.26" y2="267.37" fill="none" stroke="#ef9681" stroke-miterlimit="10" stroke-width="2"/><polygon points="397.92 295.83 456.64 295.83 485.38 222.67 426.52 222.67 397.92 295.83" fill="#00796B"/><path d="M463.51,278.31c-.06.27-.14.54-.22.83l-2.06,5.21s10.55,4.82,13.19-4.07c0,0,1.66-1,1.25-4,0,0,1.24-.28,1-3.2,0,0,1.8-.83,1.52-3.6,0,0,.84-.84.7-4.59,0,0,3-3.84-1.6-8.67a4,4,0,0,0-.71-.59L460,245.11a2.61,2.61,0,0,0-3.79,1.12h0a2.61,2.61,0,0,0,1,3.33l18.15,11a1.42,1.42,0,0,1,.55,1.82h0a1.43,1.43,0,0,1-2.07.59l-1.54-1.19a27.5,27.5,0,0,0-7.94-4.24l-10.75-3.65a1.86,1.86,0,0,0-2.34,1.13h0a1.86,1.86,0,0,0,1.13,2.38L468.22,263l5.95,3.73a.93.93,0,0,1,.36,1.14h0a.92.92,0,0,1-1.29.45l-5-2.71-15.4-5.66a1.5,1.5,0,0,0-2,1.07h0a1.51,1.51,0,0,0,.91,1.74l20.78,8.14a1.24,1.24,0,0,1,.73,1.5h0a1.23,1.23,0,0,1-1.62.81l-15.92-5.93a1.86,1.86,0,0,0-2.43,1.2h0a1.86,1.86,0,0,0,1.16,2.31l6.09,2.14A4.61,4.61,0,0,1,463.51,278.31Z" fill="#f4a892"/><path d="M446.79,219.89l-2.08,7.5,20.68-.14,2.08-7.08-5.55-.14s1.25-4.86-3.61-5c0,0-4-.28-5.83,5.14Z" fill="#5b7fe6"/><rect x="414.16" y="364.28" width="34.71" height="54.42" rx="17.35" fill="#f4a892"/><path d="M420.63,414.87l.06,16.05s-7.92,4.44-1.11,7.77c0,0,5.1,2.76,14.86,2.23a27.43,27.43,0,0,0,11.34-3.08c4.22-2.22,7.63-5.52-1.49-8.17l-1.17-2.22v-13.1S432.93,424,420.63,414.87Z" fill="#f4a892"/><path d="M420.63,414.87a27.38,27.38,0,0,0,23.66,14.8l-1.17-2.22v-13.1S433.76,423.67,420.63,414.87Z" fill="#ef9681"/><path d="M449.7,388.43h1.67a6,6,0,0,1,6,6v0a6,6,0,0,1-6,6H449.7a0,0,0,0,1,0,0V388.43A0,0,0,0,1,449.7,388.43Z" fill="#f4a892"/><path d="M407.78,388.43h1.67a6,6,0,0,1,6,6v0a6,6,0,0,1-6,6h-1.67a0,0,0,0,1,0,0V388.43A0,0,0,0,1,407.78,388.43Z" transform="translate(823.19 788.81) rotate(-180)" fill="#f4a892"/><path d="M411.52,386.35s1.25,17.63-.69,26c0,0-14.72,32.91-4.44,54.15a56.08,56.08,0,0,0,8.73,10.78,2.11,2.11,0,0,0,2.91-.07h0a2.11,2.11,0,0,0-.22-3.17c-4.31-3.24-13.71-12.68-11-32.11,0,0,3.2-17.08,6.67-25.13,0,0-2.64,15.27-2.36,18.32l1.39-.14s3.61-4.58,8.19-5.69l-.06-14.38s-7.16-5.61-6.47-13.52V381.63s.7-14.3,17.77-13.46c0,0,9.94-.2,14.83,5.18a16.22,16.22,0,0,1,2.11,8.28l0,20.61a18.44,18.44,0,0,1-5.71,12.11v13.1a13.68,13.68,0,0,1,5,1.15,8.41,8.41,0,0,1,4.5,5c.54,1.58,2,4.27,5.94,6.78,0,0,9.16,5.55,5.83,11.66,0,0-.6,2.28-5.39,3.83a2.51,2.51,0,0,0-1.42,3.64h0a2.52,2.52,0,0,0,3,1.11c3.72-1.32,11-5.21,8.52-15,0,0-1.8-4.72-8.61-8.05,0,0-5-3.75-4.3-7.08h4.16s-9.3-13.74-7.63-29.29V379s1.52-23.88-22.22-23.6C430.54,355.39,407.64,355.53,411.52,386.35Z" fill="#070e3f"/><path d="M414.58,489.64s-6,4-4.86,17.36c0,0,1.39,6.66,5.41,8.88l24.3-10.83L457.89,502s10.28-2.36,11.53-6.25l9.58,6.39h5.55l-10.41-13.47s2.77-1.11,8.05,3.2l6,4.81a4,4,0,0,0,4.73.14l1.88-1.35,2.23,2.5,2.91-4.16-13.74-14.16s-5.14-4.74-14.52,3.35a2.77,2.77,0,0,1-1.76.67,100.39,100.39,0,0,0-19.68,2.5Z" fill="#f4a892"/><path d="M475.19,480.61s5.32-1,11.58,6l8.05,8.83" fill="none" stroke="#ef9681" stroke-miterlimit="10"/><path d="M467.65,484.38a10.13,10.13,0,0,1,6.49,4.29" fill="none" stroke="#ef9681" stroke-miterlimit="10"/><rect x="260.75" y="370.66" width="33.18" height="57.06" rx="16.59" fill="#f4a892"/><path d="M201.05,446.74l3.34-10s13.88,10.69,32.07,8.75l-3.75,11.1s8.88,7.22,3,22.21c0,0-11.66,32.91-35.68,25.55,0,0-13.33-4.58-11.8-31C188.28,473.4,186.06,448,201.05,446.74Z" fill="#FFD54F"/><path d="M201.05,446.74s8.47,12.64,31.66,9.86" fill="#FFD54F"/><path d="M343.22,589.74l3.78,6.13h23.78l-6.6-18.07S347,580.93,343.22,589.74Z" fill="#f4a892"/><path d="M258.11,403.85v37.06s11.25,8.06,29.71,3.2V423.72Z" fill="#f4a892"/><path d="M287.87,440.31l-.05-16.59s-8.53,8.94-21.06.37C266.76,424.09,270.15,436.8,287.87,440.31Z" fill="#ef9681"/><path d="M256.93,394h7a0,0,0,0,1,0,0v13.19a0,0,0,0,1,0,0h-7a6.59,6.59,0,0,1-6.59-6.59v0A6.59,6.59,0,0,1,256.93,394Z" fill="#f4a892"/><path d="M295.06,406.92a3.46,3.46,0,0,0,.49-2.28c-.58-3.8-7-2.6-7-2.6a9.82,9.82,0,0,1-9.58-1c-2.92-3.33-5.55-2.22-5.55-2.22-4.31,1.11-2.92,6-2.92,6,.56,4.3-1.53,5.41-1.53,5.41-2.38,2-2.72,5.7-2.6,8.34a10.47,10.47,0,0,0,5.46,8.8c6.15,3.32,14.91,1.88,14.91,1.88,12.78-2.5,7.64-17.49,7.64-17.49A6.25,6.25,0,0,1,295.06,406.92Zm-5.6,3.44c-.14,1.84-4.13,3-8.91,2.64s-8.53-2.18-8.39-4,4.14-3,8.92-2.64S289.61,408.53,289.46,410.36Z" fill="#070e3f"/><path d="M261.86,398.71V385.8a8,8,0,0,1,1.56-4.81c1.36-1.82,3.76-3.33,7.74-1.3,0,0,14.5,6.48,20.65-.51,0,0,5.36-5.2,3.08-11.91a11.2,11.2,0,0,0-9.1-7.36c-4.42-.63-10.25.35-11,9.5,0,0-20,5.49-20.2,20.76a8.25,8.25,0,0,0,4.45,7.47A14.07,14.07,0,0,0,261.86,398.71Z" fill="#070e3f"/><path d="M251.17,397.32s1.67-2.92,4.45-3.05c0,0-6.81-16,19.15-24.86,0,0-.45-8.57,7.9-9.77a12.57,12.57,0,0,0-11.78-.22s-11.25-8.19-18.88.55c0,0-4.59,1.67-2.64,16.11C249.37,376.08,244,384,251.17,397.32Z" fill="#FFD54F"/><path d="M249.37,376.08s11.1-14.58,20.68-16.24c0,0-10.54-2-21.1,6.89A52.22,52.22,0,0,0,249.37,376.08Z" opacity="0.2"/><path d="M229.79,156.72l-6,29.85,25.38,7.69s3.5-.33,5.3-1.58l-1-18.88-20-19.16Z" fill="#f4a892"/><path d="M253.53,173.8,254,184s-17.93-4.41-18.77-18.78Z" fill="#ef9681"/><ellipse cx="239.09" cy="116.46" rx="4.3" ry="4.03" fill="#FFD54F"/><rect x="233.68" y="121.74" width="34.15" height="53.73" rx="17.08" fill="#f4a892"/><path d="M252.56,125.49s-1.43,5.17-8.12,11a72.88,72.88,0,0,0-6.74,6.76l-6.24,7.08-11-4.31s-6.25-28.32,20.69-28.6c0,0,21.1.61,27,12.6a2.52,2.52,0,0,1-1.85,3.59C262.53,134.27,255.9,134,252.56,125.49Z" fill="#070e3f"/><path d="M230.69,147.14h5.07a0,0,0,0,1,0,0v11a0,0,0,0,1,0,0h-5.07a5.48,5.48,0,0,1-5.48-5.48v0a5.48,5.48,0,0,1,5.48-5.48Z" fill="#f4a892"/><path d="M237.11,112.87s-12.73-.71-11.48,14.7c0,0-.56,7.08,4.16,23.18,0,0,6.67,22.91-3,33.05,0,0,60.11,19.57,14,33,0,0,11-11,2.22-19,0,0,2,12.08-6.11,19.71L209.8,218s8.79-9.28,5.18-18.3a12,12,0,0,0-11.66-7.42c-5.48.22-14.41-1.12-15.46-11.91,0,0-2.63-9,20.27-26.24,0,0-10.34-27.47,7.37-46a16.56,16.56,0,0,1,12-5.18c4.61,0,10,2,13.05,9.73A5,5,0,0,0,237.11,112.87Z" fill="#070e3f"/><path d="M237.11,112.87s-12.73-.71-11.48,14.7c0,0-.56,7.08,4.16,23.18,0,0,6.67,22.91-3,33.05,0,0,60.11,19.57,14,33,0,0,11-11,2.22-19,0,0,2,12.08-6.11,19.71L209.8,218s8.79-9.28,5.18-18.3a12,12,0,0,0-11.66-7.42c-5.48.22-14.41-1.12-15.46-11.91,0,0-2.63-9,20.27-26.24,0,0-10.34-27.47,7.37-46a16.56,16.56,0,0,1,12-5.18c4.61,0,10,2,13.05,9.73A5,5,0,0,0,237.11,112.87Z" opacity="0.2"/><path d="M152.21,496.59C143,477.73,126.9,468,108.84,473.38s-20.92,30.62-7.33,37,27-12.24,34.17-16.07S152.21,496.59,152.21,496.59Z" fill="#22b573"/><path d="M161.09,546.92c0-2.28-.14-4.56-.22-6.84q-.23-6.81-.49-13.61c-.3-8.32-1.2-16.46-4.63-24.13a37.47,37.47,0,0,0-14.57-16.78,30.4,30.4,0,0,0-7.65-3.31,17.91,17.91,0,0,0-8.94-4.92,36.36,36.36,0,0,0-12.74-.33c-.16,0-.14.27,0,.24a30.64,30.64,0,0,1,12.05.87,25.24,25.24,0,0,1,4.85,1.88,21.66,21.66,0,0,1,2.8,1.72,26,26,0,0,0-11.07.11,24.67,24.67,0,0,0-3.84,1.27,11.69,11.69,0,0,0-3-.27,18.64,18.64,0,0,0-3.93.57,28.75,28.75,0,0,0-7.45,3.26c-.14,0,0,.27.13.19a28.57,28.57,0,0,1,7.26-2.74,26.26,26.26,0,0,1,3.75-.54,17.87,17.87,0,0,1,2.07,0,24,24,0,0,0-11.7,11.66c0,.14.14.27.2.13a22.15,22.15,0,0,1,14.93-12c.41-.1.82-.14,1.22-.22-.09.6-.16,1.21-.19,1.82-.13.91-.29,1.83-.46,2.73a48.07,48.07,0,0,1-1.47,5.54,43.16,43.16,0,0,1-2.26,5.34,24.75,24.75,0,0,1-3.07,5.17.13.13,0,0,0,.14.22.18.18,0,0,0,0-.07c1.09-1.71,2.36-3.28,3.35-5.05a38,38,0,0,0,2.45-5.26,34.84,34.84,0,0,0,1.59-5.67c.2-1,.36-2,.47-3.06a7.06,7.06,0,0,0,.13-1.89,25.08,25.08,0,0,1,6.42-.12c-.81,4.51-1.66,9.2-4.19,13.11-.08.12.14.25.22.11a51.2,51.2,0,0,0,3.16-6.44A24.51,24.51,0,0,0,128,483a29.7,29.7,0,0,1,10.63,3.56A35.15,35.15,0,0,1,152.82,502a58.27,58.27,0,0,1,5.25,22.14c.61,9.65.73,19.36,1.7,29,0,.63,1.06.84,1.17.13A35,35,0,0,0,161.09,546.92Z" fill="#070e3f"/><path d="M139.87,484a10.69,10.69,0,0,0-2.09-1.88c-.76-.62-1.58-1.22-2.34-1.77a16.91,16.91,0,0,0-5.2-2.42c-.16,0-.22.2,0,.23a14,14,0,0,1,5.14,2.53,22.66,22.66,0,0,1,2.23,1.79,12.82,12.82,0,0,0,2.1,1.79C139.79,484.26,140,484.1,139.87,484Z" fill="#070e3f"/><path d="M110.57,490.81a56.53,56.53,0,0,0-4.23,5.5,34.31,34.31,0,0,0-3.16,6.22s.08.09.11,0a74.68,74.68,0,0,1,7.42-11.66C110.84,490.85,110.66,490.68,110.57,490.81Z" fill="#070e3f"/><path d="M130.32,488.94a13.8,13.8,0,0,1-1,3.4,22.31,22.31,0,0,1-1.74,3s0,.12.09,0a12.31,12.31,0,0,0,2.93-6.47C130.57,488.85,130.34,488.78,130.32,488.94Z" fill="#070e3f"/><path d="M159.81,497.05s13-16.33,38.16-10.54c23.85,5.51,34.8,49.24,10.76,54.48S188.8,505.8,180,498.87C173.59,493.84,164.31,494.92,159.81,497.05Z" fill="#22b573"/><path d="M217.28,510.4a48.55,48.55,0,0,0-5.17-4,22.65,22.65,0,0,0-5.5-2.75,35.93,35.93,0,0,0-3.27-4.21,32.89,32.89,0,0,0-7.6-6h.75a38.12,38.12,0,0,1,4,0,22,22,0,0,1,7.73,1.93c.14,0,.26-.16.11-.22a35.36,35.36,0,0,0-7.73-2.34,21.54,21.54,0,0,0-3.92-.33,12.45,12.45,0,0,0-2.11.12h-.41A33.82,33.82,0,0,0,186.9,490a3.64,3.64,0,0,0,.7-.19,33.53,33.53,0,0,1,3.72-.61,29.05,29.05,0,0,1,7.51.11c.16,0,.19-.21,0-.22a47,47,0,0,0-7.59-.32,32.19,32.19,0,0,0-6.33.82,35.28,35.28,0,0,0-4.58-.52c-8.75-.38-18.29,2.9-23.73,10.09s-6.43,16.8-7.38,25.49a193.77,193.77,0,0,0-.82,36.52c0,.71,1.06.59,1.09-.09.33-10.32.69-20.56,1.67-30.91.46-4.74,1-9.49,1.76-14.23a41.8,41.8,0,0,1,3.46-11.73,21.45,21.45,0,0,1,8.46-9.11,28.32,28.32,0,0,1,12-3.7,32.44,32.44,0,0,1,11.26,1.06,7,7,0,0,0,0,2.23,12.13,12.13,0,0,0,.55,2.73,14.21,14.21,0,0,0,1,2.44c.46.85,1.05,1.58,1.58,2.45,0,.12.29,0,.19-.14a11.61,11.61,0,0,1-1.94-4.95,22.14,22.14,0,0,1-.3-2.55V492.7a33.57,33.57,0,0,1,11,5.79c.6.49,1.18,1,1.77,1.58a12.46,12.46,0,0,0-2.14,2.61,26.41,26.41,0,0,0-2.23,4,33.84,33.84,0,0,0-2.38,8.62c0,.16.2.2.22,0a25.1,25.1,0,0,1,2.86-8.27,32.62,32.62,0,0,1,2.23-3.67c.41-.6.85-1.2,1.31-1.79.24-.3.51-.62.75-1a34.36,34.36,0,0,1,7.11,10h0a17.48,17.48,0,0,0-2.94,4.24,38.66,38.66,0,0,0-2.34,5,85.1,85.1,0,0,0-3,10.24.13.13,0,0,0,.07.16.12.12,0,0,0,.16-.08.11.11,0,0,0,0-.08A43.33,43.33,0,0,1,205.2,520c.76-1.58,1.58-3.16,2.39-4.65A46.34,46.34,0,0,0,210,511a32.65,32.65,0,0,1,2.86,11.62c0,.16.25.14.24,0a40.85,40.85,0,0,0-5.63-17.84c1.54.62,3.06,1.32,4.53,2.09a25.23,25.23,0,0,1,5.22,3.65C217.25,510.69,217.41,510.54,217.28,510.4Z" fill="#070e3f"/><path d="M198.88,511.32c-.75,2.48-1.7,4.89-2.38,7.38a28.48,28.48,0,0,0-1.1,7.39h.11a72.14,72.14,0,0,1,3.6-14.69C199.18,511.24,198.94,511.16,198.88,511.32Z" fill="#070e3f"/><path d="M214.79,505.18a14.18,14.18,0,0,0-3.34-2.37,21.92,21.92,0,0,0-3.84-1.36c-.15,0-.19.19,0,.22a15.19,15.19,0,0,1,3.71,1.58,26.27,26.27,0,0,1,3.4,2.09S214.85,505.25,214.79,505.18Z" fill="#070e3f"/><path d="M172.16,475.23s2.41-29.35,24.23-38.86c18.22-7.9,28.66,12.53,15.82,25.07C201.74,471.58,185,467,172.16,475.23Z" fill="#22b573"/><path d="M208.13,442.05a90.68,90.68,0,0,0-9.71,4.6,68.74,68.74,0,0,0-7.53,5c.36-.74.68-1.58,1-2.25.56-1.13,1.18-2.24,1.85-3.32a31.78,31.78,0,0,1,4.75-6.09c.11-.09,0-.26-.18-.15a49.79,49.79,0,0,0-5.06,5.88,36.77,36.77,0,0,0-2.07,3.32,14.08,14.08,0,0,0-1.47,3.38l-.24.18a72.29,72.29,0,0,0-10.42,10.2,3,3,0,0,1,.19-.84c.41-1.44.86-2.85,1.33-4.27a35.85,35.85,0,0,1,3.94-8.55.12.12,0,0,0-.05-.16.12.12,0,0,0-.16,0,67.67,67.67,0,0,0-4.57,8.35,32.18,32.18,0,0,0-1.58,4.34,18.52,18.52,0,0,0-.71,2.94c-.95,1.2-1.9,2.42-2.77,3.68-9.38,13.34-14.07,29.47-15.2,45.61a139.5,139.5,0,0,0-.25,14.46,91.85,91.85,0,0,0,1.28,14.52.26.26,0,0,0,.34.16.26.26,0,0,0,.18-.24c-.09-4.24-.53-8.48-.61-12.65a120.52,120.52,0,0,1,.41-12.75,118.52,118.52,0,0,1,4.74-25A89.57,89.57,0,0,1,176.67,469c.92-.19,1.84-.44,2.74-.66l3.27-.87a33.44,33.44,0,0,0,6.07-2.23c.15,0,0-.29-.12-.21a19.35,19.35,0,0,1-6.17,2.14c-1.71.33-3.48.55-5.19,1,1.58-2.31,3.28-4.54,5.08-6.68a37.54,37.54,0,0,0,12.41-.91,54,54,0,0,0,6.33-2c2.18-.85,4.25-1.93,6.4-2.83.16,0,0-.3-.09-.22a36.74,36.74,0,0,1-12.65,4.12,76.08,76.08,0,0,1-11.77,1c1.58-1.77,3.16-3.51,4.86-5.14a57.34,57.34,0,0,1,20.08-13.08C208.35,442.22,208.27,442,208.13,442.05Z" fill="#070e3f"/><path d="M190.37,442.15a32.47,32.47,0,0,0-2.68,3.9,21.5,21.5,0,0,0-1.92,4.56h.09c.73-1.44,1.34-2.93,2.07-4.37a22.67,22.67,0,0,1,2.61-4C190.64,442.19,190.46,442,190.37,442.15Z" fill="#070e3f"/><path d="M210.63,451.92a23.7,23.7,0,0,1-4.48,1.87A39.59,39.59,0,0,1,201.6,455v.13a22,22,0,0,0,4.74-1,39.58,39.58,0,0,0,4.41-2C210.93,452,210.8,451.84,210.63,451.92Z" fill="#070e3f"/><path d="M155.27,470c-.12,1.28-3.3-10.66-21.74-21.24-16.84-9.62-36.77-34.64-20.42-50.45C126.38,385.61,161.32,413.33,155.27,470Z" fill="#22b573"/><path d="M167.93,538.33a324.41,324.41,0,0,0-2.93-37.1A166.69,166.69,0,0,0,157.2,468c-1.37-3.89-2.94-7.7-4.63-11.47a26.69,26.69,0,0,0,0-4.38c-.09-1.88-.27-3.76-.44-5.63s-.35-3.75-.59-5.61-.61-3.73-.69-5.6a.11.11,0,0,0-.22,0h0a39.51,39.51,0,0,1,.64,5.95c.15,1.8.26,3.62.3,5.44s0,3.62,0,5.44v2q-2.61-5.5-5.61-10.8c1.25-7.65-.38-15.64-1.93-23.12,0-.16-.27,0-.24,0A64.75,64.75,0,0,1,145,432.15c0,3.16,0,6.33-.09,9.49-.45-.76-.87-1.5-1.33-2.25q-3.6-5.88-7.67-11.46a17.73,17.73,0,0,0-.18-5.44,41.76,41.76,0,0,0-1.34-6,57.87,57.87,0,0,0-2-5.76c-.79-1.95-1.87-3.78-2.64-5.73a.11.11,0,0,0-.15-.05.12.12,0,0,0-.06.15,28.59,28.59,0,0,1,2.2,5.77,52.07,52.07,0,0,1,1.5,5.74c.4,2,.72,3.89,1,5.85.19,1.3.3,2.64.53,4a141.31,141.31,0,0,0-12.92-15c-.12-.11-.27,0-.16.17a171.16,171.16,0,0,1,18.75,25.57l.6,1c-1-.63-2.18-1.14-3.16-1.67l-5.38-3c-1.75-.93-3.49-1.9-5.23-2.86-.89-.49-1.77-1-2.69-1.47a23.06,23.06,0,0,1-3.16-1.74c-.13-.1-.29.11-.13.19,1.77,1,3.34,2.43,5.06,3.52s3.47,2.17,5.27,3.16c3.27,1.84,6.83,3.17,10.07,5.05q3.35,5.86,6.2,12-2.94-1.87-6-3.59c-1.3-.72-2.61-1.45-3.94-2.15a20.09,20.09,0,0,1-3.72-2.24c-.12-.1-.28,0-.17.17a35.53,35.53,0,0,0,7.1,4.94c2.37,1.39,4.75,2.72,7.23,3.93a139.15,139.15,0,0,1,5.34,13.21c7.77,22,10.62,45.34,12,68.52.41,6.91.61,13.83.71,20.75s-.29,13.81-.27,20.72a.18.18,0,0,0,.36,0c.84-6.14,1-12.37,1.25-18.54S168,544.61,167.93,538.33Z" fill="#070e3f"/><path d="M134.37,438.76a88.4,88.4,0,0,1-9.81-5.08,104.77,104.77,0,0,1-9.3-5.89s-.11,0,0,.07a78.47,78.47,0,0,0,8.94,6.33A90.26,90.26,0,0,0,134.32,439C134.4,439,134.51,438.82,134.37,438.76Z" fill="#070e3f"/><path d="M139.73,413.9c-.29-1.07-.62-2.12-1-3.16a.11.11,0,0,0,0-.11c-.24-.6-.48-1.19-.73-1.77a.89.89,0,0,0,0-.23l-.14-.33h0l.19.6a2,2,0,0,0,.09.35,86.39,86.39,0,0,1,2.74,12.53.11.11,0,0,0,.22,0A42.93,42.93,0,0,0,139.73,413.9Z" fill="#070e3f"/><polygon points="187.39 542.79 186.08 558.4 182.05 606 138.88 606 134.84 558.4 133.53 542.79 187.39 542.79" fill="#00796B"/><polygon points="187.39 542.79 186.08 558.4 134.84 558.4 133.53 542.79 187.39 542.79" opacity="0.2"/><rect x="129.29" y="536.53" width="62.34" height="14.98" fill="#00796B"/></svg>