<?xml version="1.0" encoding="UTF-8"?>
<svg xmlns="http://www.w3.org/2000/svg" id="a" width="865.76" height="682.89" viewBox="0 0 865.76 682.89">
  <g>
    <ellipse cx="778.93" cy="615.83" rx="5.03" ry="4.94" fill="#231f20" stroke="#231f20" stroke-miterlimit="10"></ellipse>
    <ellipse cx="780.69" cy="616.18" rx="5.03" ry="4.94" fill="#fff" stroke="#231f20" stroke-miterlimit="10"></ellipse>
    <path d="M759.19,604.6s1.66,9.11,6.25,9.28c0,0,1.76,3.7,7.41,2.29l6,1.28c1.21,.26,2.38-.62,2.46-1.85h0s-22.12-11-22.12-11Z" fill="#231f20" stroke="#231f20" stroke-miterlimit="10"></path>
    <circle cx="781.05" cy="615.38" r="1.32" fill="#fff" stroke="#231f20" stroke-miterlimit="10"></circle>
    <path d="M811.77,636.51c.21,.26,.23,.63,.04,.9-.33,.48-.96,1.22-2.04,1.86-.84,.5-1.79,.45-2.77,.46,0,0-.02,0-.03,0-1.38,0-3.34-2.03-3.95-3.26l-1.06-1.94,6-2.65,3.82,4.63Z" fill="#231f20" stroke="#231f20" stroke-miterlimit="10"></path>
    <ellipse cx="808.98" cy="631" rx="3.28" ry="7.27" transform="translate(-127.57 212.1) rotate(-13.86)" fill="#fff" stroke="#231f20" stroke-miterlimit="10"></ellipse>
    <circle cx="841.38" cy="609.56" r="7.5" fill="#231f20" stroke="#231f20" stroke-miterlimit="10"></circle>
    <circle cx="842.96" cy="610.44" r="7.5" fill="#fff" stroke="#231f20" stroke-miterlimit="10"></circle>
    <path d="M739.32,481.4l1.6-1.8c1.56-1.76,4.09-2.28,6.22-1.29l34.15,15.9c3.83,1.78,7.17,4.47,9.74,7.83l50.72,66.37c1.12,1.46,.89,3.55-.52,4.73l-3.54,2.96-74.73-52.53,31.2,98.35-32.14-15.78c-3.32-1.63-6.21-4.03-8.42-6.99l-40.56-54.29c-.64-.86-.14-2.09,.92-2.26l3.14-.51-17.46-27.34c-9.17-13.58,7.23-23.64,7.23-23.64,5.11-4.13,11.69-8.32,15.99-10.94,2.79-1.7,6.18-2.09,9.29-1.09l7.18,2.32Z" fill="#FFD54F" stroke="#231f20" stroke-miterlimit="10"></path>
    <path d="M736.68,506.1l-25.4-12.35s-9.47,4.71-8.98,14.48c.09,1.8,.63,3.55,1.53,5.11l5.15,5.81,22.23,7.94-2.16-5.8c-.78-2.09-.72-4.4,.19-6.44,1.03-2.3,3.14-5.32,7.44-8.75Z" fill="#fff" stroke="#231f20" stroke-miterlimit="10"></path>
    <path d="M669.13,442.41l2.98-1.93h2.28s0,0,0,0l-3.16,2.11-2.1-.17s0,0,0-.01Z" fill="#e2e3e4" stroke="#231f20" stroke-miterlimit="10"></path>
    <polygon points="670.53 443.3 631.27 374.75 633.81 375.03 674.05 444.18 670.53 443.3" fill="#e2e3e4" stroke="#231f20" stroke-miterlimit="10"></polygon>
    <path d="M684.49,447.52l2.45-1.57,2.8-.7s0,0,0,0l-3.86,2.28h-1.38s-.01-.01,0-.02Z" fill="#e2e3e4" stroke="#231f20" stroke-miterlimit="10"></path>
    <path d="M645.36,375.97l41.77,72.71-.9,.62-42.34-73.21,.56,.14s.61-.02,.91-.26Z" fill="#e2e3e4" stroke="#231f20" stroke-miterlimit="10"></path>
    <path d="M638.95,369.56l3,5.85c.22,.42,.64,.7,1.11,.73l1.39,.09c.32,.02,.65-.07,.91-.26l2.94-2.08c.5-.36,.66-1.03,.37-1.58l-3.89-7.16-5.13,4.25-.69,.16Z" fill="#e2e3e4" stroke="#231f20" stroke-miterlimit="10"></path>
    <path d="M575.09,564.67s3,9.35,3.18,16.94l18.35,1.59,5.29-3.35s-4.06-14.29-5.65-23.64l-21.17,8.47Z" fill="#f9a17f" stroke="#231f20" stroke-miterlimit="10"></path>
    <path d="M577.03,378.91l.88,87.15s9.53,32.28,12,55.39l8.11,35.28c-2.19,1.75-5.18,3.77-9,5.47-5.81,2.59-11.1,3.33-14.64,3.53-11.58-37.05-23.17-74.09-34.75-111.14,0,0-3.35-17.46-5.65-22.76l28.93-61.21,14.11,8.29Z" fill="#FFD54F" stroke="#231f20" stroke-miterlimit="10"></path>
    <path d="M609.14,598.36c-1.41,3.18-12.7,7.23-12.7,7.23-4.59,1.76-8.64,5.47-8.64,5.47-2.29,3-7.23,5.47-7.23,5.47-13.59,4.44-22.16,3.03-25.45,2.11-1.34-.37-1.91-1.95-1.11-3.09h0c1.53-2.19,5.61-4.03,8.11-5,1.44-.56,2.69-1.52,3.59-2.78,7.52-10.46,10.59-22.12,11.32-25.33,.09-.38,.26-.73,.5-1.02,.29-.37,.69-.65,1.15-.81,1.94-.66,4.71-.25,4.71-.25l9.47,.91c2.23,.21,4.47-.18,6.5-1.14l1.9-.9c.88-.41,1.91,.09,2.13,1.04l.53,2.34c.17,.76,.55,1.45,1.07,2.03,.16,.18,.32,.37,.47,.57,3.27,4.36,3.69,13.15,3.69,13.15Z" fill="#00796B" stroke="#231f20" stroke-miterlimit="10"></path>
    <path d="M610.32,604.33c-.03,.98-.46,1.92-1.19,2.58-3.09,2.79-9.82,5.87-12.89,7.19-.78,.34-1.57,.61-2.38,.87-4.07,1.32-7.49,6.14-7.49,6.14-3.18,3.35-9.17,5.12-9.17,5.12-12.35,3.53-22.23,1.41-22.23,1.41-4.41-1.23-4.06-5.29-4.06-5.29,.35-5.73,2.99-6.77,3.07-6.8-.79,1.14-.22,2.71,1.11,3.09,3.3,.92,11.86,2.33,25.45-2.11,0,0,4.94-2.47,7.23-5.47,0,0,4.06-3.7,8.64-5.47,0,0,11.29-4.06,12.7-7.23,1.1,2.19,1.24,4.52,1.19,5.97Z" fill="#fff" stroke="#231f20" stroke-miterlimit="10"></path>
    <path d="M602.26,593.42c-7.06,2.47-13.05-5.12-13.05-5.12-6.35-7.23-11.63-6.77-11.63-6.77l-.05-.1c.29-.37,.69-.65,1.15-.81,1.94-.66,4.71-.25,4.71-.25l9.47,.91c2.23,.21,4.47-.18,6.5-1.14l1.9-.9c.88-.41,1.91,.09,2.13,1.04l.53,2.34c.17,.76,.55,1.45,1.07,2.03,.16,.18,.32,.37,.47,.57v.15c.7,6.41-3.19,8.06-3.19,8.06Z" fill="#fff" stroke="#231f20" stroke-miterlimit="10"></path>
    <path d="M601.9,363.39s7.38,1.13,15.86-2.26c0,0-4.04-3.74-4.4-8.15,0,0-11.47,6-11.47,10.41Z" fill="#00796B" stroke="#231f20" stroke-miterlimit="10"></path>
    <path d="M472.42,558.32c-4.76,6.17-7.06,14.29-7.06,14.29l-3.7,2.47c-6,4.06-13.76,1.06-13.76,1.06-9.04-2.92-10.61-6.2-10.88-7.24-.06-.22-.06-.34-.06-.34,7.59-9.35,14.47-20.64,14.47-20.64l14.47-1.41,6.35-1.59,.18,13.41Z" fill="#f9a17f" stroke="#231f20" stroke-miterlimit="10"></path>
    <path d="M465.54,576.13c-11.47,17.82-25.93,7.59-25.93,7.59-.35-6.17-6.7-9.88-6.7-9.88l4.06-5.29,.06,.34c.27,1.05,1.84,4.33,10.88,7.24,0,0,7.76,3,13.76-1.06l3.7-2.47,.18,3.53Z" fill="#fff" stroke="#231f20" stroke-miterlimit="10"></path>
    <path d="M470.13,589.54c0,1.94-1.81,3.44-3.62,4.45-1.53,.86-3.2,1.41-4.92,1.72-7.42,1.32-24.1,8.64-24.1,8.64-13.58,6.35-22.4,7.41-22.4,7.41-18.23,2.05-25.14-1.51-27.69-3.97-1.04-1-.86-2.72,.36-3.49,0,0,0,0,0,0,3.76-2.37,11.62-5.42,11.62-5.42,12.88-6,33.52-25.05,33.52-25.05,0,0,4.51,2.63,6.14,7.15,.82,2.27,2.63,4.05,4.93,4.79,5.17,1.66,14.01,2.09,21.56-9.64l4.59,13.41Z" fill="#00796B" stroke="#231f20" stroke-miterlimit="10"></path>
    <path d="M459.89,604.53c-13.41,3-27.34,9.35-27.34,9.35-12.17,5.12-18.35,5.65-18.35,5.65-28.58,3.18-29.81-7.06-29.81-7.06-1.04-6.07,3.22-8.1,3.37-8.16-1.22,.77-1.4,2.49-.36,3.49,2.55,2.46,9.46,6.02,27.69,3.97,0,0,8.82-1.06,22.4-7.41,0,0,16.67-7.32,24.1-8.64,1.72-.31,3.39-.86,4.92-1.72,1.81-1.01,3.62-2.51,3.62-4.45,4.59,13.41-10.23,14.99-10.23,14.99Z" fill="#fff" stroke="#231f20" stroke-miterlimit="10"></path>
    <path d="M510.35,368.5s-1.76,3.18-.53,8.82l2.3,6.64,6.11-13.49c.27-.6,.49-1.23,.65-1.88l.68-2.72-1.09-1.6s-2.82,2.47-8.11,4.23Z" fill="#f9a17f" stroke="#231f20" stroke-miterlimit="10"></path>
    <path d="M523.4,302.17l12-4.59,63.15,44.1s3.35,24.34-22.93,40.04c0,0-17.99,16.05-44.45,58.39,0,0-9.7,15.35-15.35,34.4,0,0-6,32.64-24.7,56.27,0,0-12.35,20.29-15.52,28.4,0,0-4.59,2.65-9.53,.18l3.18-5.65-.18-5.47-2.47,2.47-3.53,5.47s-7.41,.71-13.05-7.94c0,0,30.34-64.04,33.34-89.97,0,0-.53-14.64,6.53-25.05l28.37-62.84c.26-.58,.48-1.19,.63-1.81,1.13-4.44,5.64-23.57,4.86-42.43l-.35-23.99Z" fill="#FFD54F" stroke="#231f20" stroke-miterlimit="10"></path>
    <path d="M510.03,378.32s-12.2,1.04-15.25-8c-.49-1.44-.62-2.98-.47-4.5,.29-3.05-.08-12.58-2.65-16.37,0,0-21.35,4.94-19.58-18.35l12.35-91.38s7.59-42.51,24.7-47.28c0,0-3.5,13.71-6.2,27.57-2.28,11.71-2.41,23.74-.42,35.5l1.54,9.07c.43,2.55,.23,5.18-.6,7.63l-3.66,10.88c-.72,2.14,.07,4.51,1.93,5.79,3.64,2.51,10.88,5.94,23.28,6.05l.42,6.46-2,.77s.55,22.35,.19,35.52c0,0-1,16.37-4.03,28.17h0c-3.12,1.71-5.63,4.36-7.17,7.57l-2.35,4.89Z" fill="#00796B" stroke="#231f20" stroke-miterlimit="10"></path>
    <polygon points="524.64 144.64 537.51 186.45 556.92 165.98 547.39 134.23 524.64 144.64" fill="#f9a17f" stroke="#231f20" stroke-miterlimit="10"></polygon>
    <path d="M544.99,195.8c7.9-31.22,25.02-37.05,37.17-36.85,9.32,.15,17.87,5.08,22.77,13,5.3,8.57,10.91,23.47,10.91,48.19,0,0,.99,40.72,15.42,91.05,2.56,8.92,6.87,17.26,12.67,24.5,3.1,3.86,5.15,9.07,.66,14.28,0,0-9.53-7.06-26.46,.71-16.94,7.76-16.23,12.7-16.23,12.7,0,0-14.11,0-12.88-24.34l-36.69,4.23s-31.75,4.59-22.05-20.64c0,0,3.82-11.75,1.54-30.83-.79-6.59-1.15-13.23-.99-19.86,.36-15.26,2.47-40.82,11.25-66.45,1.09-3.19,2.08-6.43,2.91-9.7Z" fill="#00796B" stroke="#231f20" stroke-miterlimit="10"></path>
    <path d="M589.03,339.04s3-8.64-.18-29.46c0,0-6-38.99-6.88-62.1,0,0-.53-19.05,3.18-31.75" fill="none" stroke="#231f20" stroke-linecap="round" stroke-linejoin="round"></path>
    <path d="M637.36,358.8l4.94,2.12c3.18,2.12,2.47,4.23,2.47,4.23l-5.13,4.25c-.65,.54-1.53,.71-2.33,.45l-3.07-.98s-3.23-2.48-4.46-6.36c0,0,1.94-1.23,3.53-4.76,0,0,1.41,1.59,4.06,1.06Z" fill="#fff" stroke="#231f20" stroke-miterlimit="10"></path>
    <polygon points="645.36 375.97 688.52 451.06 690.99 449.12 648.3 373.89 645.36 375.97" fill="#fff" stroke="#231f20" stroke-miterlimit="10"></polygon>
    <line x1="519.87" y1="364.8" x2="530.99" y2="341.86" fill="none" stroke="#231f20" stroke-linecap="round" stroke-linejoin="round"></line>
    <line x1="515.82" y1="369.91" x2="517.4" y2="372.21" fill="none" stroke="#231f20" stroke-linecap="round" stroke-linejoin="round"></line>
    <path d="M491.65,349.45s10.94-1.59,23.29-4.06" fill="none" stroke="#231f20" stroke-linecap="round" stroke-linejoin="round"></path>
    <path d="M524.11,285.59l1.12,6.14c.19,1.07,.12,2.16-.23,3.19v.02s.41,6.46,.41,6.46l7.07-2.68s-.35-4.76-.66-6.92c0,0-.53-3.97-.51-5.45l-7.21-.77Z" fill="#f9a17f" stroke="#231f20" stroke-miterlimit="10"></path>
    <path d="M531.31,286.36s-21.09-2.84-31.61-.48c0,0-.61-.87,.08-2.78l3.66-10.88s1.53-4.11,.6-7.63l-1.67-9.85c-1.97-11.59-1.81-23.44,.5-34.96,.5-2.49,1.09-5.19,1.77-8.08,0,0,9.06-55.58,37.46-41.29,0,0,13.94,5.29-.02,35.1,0,0-8.72,22.08-10.88,59.11,0,0-.8,11.58,.11,21.75Z" fill="#fff" stroke="#231f20" stroke-miterlimit="10"></path>
    <path d="M685.87,447.53h-1.38s-.03,.02-.02,.03l37.56,64.89,1.97,.82s.09-.03,.07-.08l-29.39-54.9-8.82-10.76Z" fill="#e2e3e4" stroke="#231f20" stroke-miterlimit="10"></path>
    <polygon points="633.48 375.03 675.11 448.06 677.05 446.65 635.07 373.26 633.48 375.03" fill="#fff" stroke="#231f20" stroke-miterlimit="10"></polygon>
    <path d="M759.16,497.71l-16.46,9.98c-7.72,4.68-10.2,13.66-5.55,21.4l53.21,88.54c4.12,6.85,13.27,8.62,19.65,3.8l28.83-21.82c5.93-4.49,7.09-12.94,2.6-18.86l-60.72-80c-5.08-6.69-14.38-7.4-21.56-3.05Z" fill="#FFD54F" stroke="#231f20" stroke-miterlimit="10"></path>
    <path d="M671.23,442.59l3.1-2.06s.1-.01,.13,.03l40.35,69.25-2.1,1.93s-.02,0-.02,0l-41.45-69.14Z" fill="#fff" stroke="#231f20" stroke-miterlimit="10"></path>
    <path d="M671.23,442.59l-2.12-.18h0s40.93,68.98,40.93,68.98l2.62,.35s.02-.01,.01-.02l-41.44-69.13Z" fill="#e2e3e4" stroke="#231f20" stroke-miterlimit="10"></path>
    <path d="M828.44,607.08h0c.56,.92,1.78,1.17,2.66,.56l5.93-4.12c1.03-.72,2.3-1.04,3.54-.83,1.31,.22,2.51,1.02,1.77,3.43l-1.39,4.29c-.49,1.51,.37,3.13,1.89,3.58h0c1.48,.43,3.04-.41,3.48-1.89l3.25-10.74s1.23-3.35-.53-4.59c0,0,2.23-1.91-2.84-6.34-.47-.41-.7-1.04-.61-1.66,.09-.65,.05-1.5-.64-2.06-.78-.64-1.99-.39-2.48,.49-.45,.8-.84,2.23-.84,4.81,0,0,0,3-4.23,6.53l-8.46,6.04c-.8,.57-1.02,1.66-.51,2.5Z" fill="#231f20" stroke="#231f20" stroke-miterlimit="10"></path>
    <circle cx="843.49" cy="611.33" r="1.68" fill="#fff" stroke="#231f20" stroke-miterlimit="10"></circle>
    <path d="M799.36,621.13l2.83,.94c.52,.17,1.09,.1,1.54-.2l11.89-7.88c.84-.56,1.98-.37,2.59,.44h0c.66,.86,.48,2.09-.4,2.73l-9.16,6.6c-2.12,1.06-1.06,2.82-1.06,2.82l4.14,1.38c.37,.12,.64,.47,.66,.86l.25,4.25c.03,.58-.45,1.06-1.03,1.02l-2.94-.21c-.6-.04-1.2,.04-1.76,.23l-4.79,1.65c-4.06,.35-5.82-3-5.82-3-7.76-2.82-6.43-13.05-6.43-13.05l.85-.41c.82-.4,1.8-.31,2.54,.24l2.28,1.71c.48,.36,1.1,.45,1.66,.25l.99-.35c.37-.13,.78-.14,1.16-.01Z" fill="#231f20" stroke="#231f20" stroke-miterlimit="10"></path>
    <ellipse cx="811.92" cy="630.73" rx="1.15" ry="1.68" fill="#fff" stroke="#231f20" stroke-miterlimit="10"></ellipse>
    <path d="M513.38,126.14s-2.51,12.73,8.45,19.51c4.65,2.88,8.11,7.35,9.83,12.54,.81,2.43,1.62,5.4,2.39,9.02,1.31,6.16,.34,12.59-2.77,18.06-3.7,6.52-8.02,17.51-6.65,31.87,0,0-5.29-4.41-4.06-19.93,0,0-8.64,31.75,5.82,53.98,0,0-25.93-21.17-12.7-64.39,0,0-10.9,28.23-19.92,25.49,0,0-6.9-3.97,.87-20.2,0,0,12.7-24.87,12.7-39.87,0,0-1.52-21.3,6.03-26.08Z" fill="#231f20" stroke="#231f20" stroke-miterlimit="10"></path>
    <rect x="515.37" y="86.22" width="37.62" height="63.83" rx="18.81" ry="18.81" transform="translate(33.88 -103.24) rotate(11.4)" fill="#f9a17f" stroke="#231f20" stroke-miterlimit="10"></rect>
    <path d="M532.78,98.94s-11.01-9.86-16.96,14.65l-7.12,51.77c-.29,2.14-.55,4.29-.75,6.44-.11,1.2-.35,2.97-.83,5.19-1.37,6.37-4.11,12.35-7.93,17.62-3.75,5.16-8.8,13.58-5.4,17.67,0,0-9.12-4.53-5.68-16.07,0,0-4.8-1.52-1.8-8.12,.82-1.79,1.99-3.4,3.41-4.77,3.33-3.21,11.91-12.69,14.08-26.87l4.4-39.82s.69-40.96,39.92-31.83c0,0,33.42,1.17,28.39,46.51,0,0-3.55,38.47,8.84,55.02,0,0,29.2,17.04,12.23,34.96,0,0-9.13,10.12-3.72,13.51,0,0,4.48,1.77,8.39-1.83,0,0-1.93,13.19-17.01,9.21,0,0-7.83-2.1-5.39-13.49,0,0-3.26,7-12.21,8.02,0,0,14.76-7.32,5.68-22.54,0,0-20.79-24.22-19.65-47.34l-.69-41.22s2.37-33.77-20.2-26.67Z" fill="#231f20" stroke="#231f20" stroke-miterlimit="10"></path>
    <path d="M551.71,109.98s-6.79,85.82-26.73,95.35c0,0,16.14,5.83,19.18-6.79,0,0,19.63,22.84,6.92,42.95,0,0,15.17-10.94,6.53-38.28,0,0-6.26-12-2.51-23.99,0,0,6.39-38.98,8.69-39.34s-12.08-29.9-12.08-29.9Z" fill="#231f20" stroke="#231f20" stroke-miterlimit="10"></path>
    <path d="M486,188.59c-3.14,6.61-7.51,21.57-.73,46.68,0,0,6.07-23.94,15-36.07l-9.1-11.21c-1.43-1.76-4.21-1.44-5.18,.6Z" fill="#231f20" stroke="#231f20" stroke-miterlimit="10"></path>
    <path d="M524.11,285.59s-16-1.71-24.41,.29c0,0-.49,4.27,13.81,7.81,0,0,7.07,1.42,11.48,1.25,0,0,.76-2.04-.06-4.73l-.82-4.62Z" fill="#e2e3e4" stroke="#231f20" stroke-miterlimit="10"></path>
    <path d="M613.37,352.98c-.04,.3,.53,5.82,7.59,10.94,0,0,2.47,1.41,4.06,3.7,0,0,1.06,3,4.23,5.47,0,0,3.88,4.76,6.88,2.82,0,0,2.82-2.47-1.59-6.88,0,0-3.53-2.65-4.76-6.53,0,0,2.12-1.41,3.53-4.76,0,0,1.94,1.76,4.06,1.06l4.94,2.12s3,1.94,2.47,4.23l1.59,3s.71-1.06,.53-2.12c0,0,1.41-1.06,.35-3.53l-1.06-2.29s-1.59-4.23-1.59-6.88c0,0,.35-1.41,0-3.35,0,0-9.7-7.06-26.46,.71l-4.76,2.29Z" fill="#f9a17f" stroke="#231f20" stroke-miterlimit="10"></path>
    <path d="M628.54,358.09s.35,2.12,1.23,4.41" fill="none" stroke="#231f20" stroke-linecap="round" stroke-linejoin="round"></path>
    <line x1="633.3" y1="357.92" x2="634.01" y2="355.8" fill="none" stroke="#231f20" stroke-linecap="round" stroke-linejoin="round"></line>
    <path d="M637.18,348.92l2.19,.7c1.05,.34,1.92,1.1,2.38,2.1,.84,1.85,2.33,4.87,3.66,6.38" fill="none" stroke="#231f20" stroke-linecap="round" stroke-linejoin="round"></path>
    <path d="M689.68,445.28l-3.81,2.25,38.2,65.66c.04,.06,.12,.06,.15,0l1.92-4.01c.08-.16,.07-.35-.02-.5l-36.33-63.36s-.08-.06-.12-.03Z" fill="#fff" stroke="#231f20" stroke-miterlimit="10"></path>
    <line x1="739.32" y1="481.4" x2="765.08" y2="493.22" fill="none" stroke="#231f20" stroke-linecap="round" stroke-linejoin="round"></line>
  </g>
  <circle cx="217.22" cy="461.98" r="151.46" fill="#FFD54F" stroke="#231f20" stroke-miterlimit="10"></circle>
  <g>
    <path d="M74.54,377.82c.88-1.48,1.78-2.95,2.7-4.41" fill="none" stroke="#231f20" stroke-miterlimit="10"></path>
    <path d="M82.97,364.96c5.09-7.03,10.81-13.75,17.14-20.08,64.67-64.67,169.53-64.68,234.2,0,8.44,8.44,15.78,17.56,22.02,27.19" fill="none" stroke="#231f20" stroke-dasharray="0 0 10.21 10.21" stroke-miterlimit="10"></path>
    <path d="M359.04,376.4c.89,1.48,1.76,2.97,2.61,4.47" fill="none" stroke="#231f20" stroke-miterlimit="10"></path>
  </g>
  <path d="M285.11,369.64c.74-1.02,.88-1.57,1.71-2.45,5.23-5.56,14.59-.09,19.68-.23l.46,4.49c2.41,.05,3.8-.74,3.7-3.29-.19-4.63-11.07-2.83-12.64-7.32,2.59-3.61,10.37,1.11,13.48,2.69,2.27,1.16,4.45,2.22,6.48,3.38,2.18,1.2,4.72,3.33,5.74,3.94,.6-2.41,.83-6.81,1.99-8.2,.28-.05,.56,0,.83,.05-7.83-8.61-16.63-16.26-26.26-22.83-.6,.32-1.34,.51-2.13,.56-3.15,.23-4.12-1.76-7.92-.56-1.95,.6-4.58,2.08-6.76,1.76,.6-.46,3.47-3.15,3.8-3.8,3.29-5.88-6.9-1.53-5.05-8.52-5.09-2.5-10.37-4.72-15.79-6.62-.23,.65-.19,1.57,.19,3.01,.79,2.96,1.39,5.09-.79,6.95-1.76,1.53-4.4,1.81-1.95,5.28,1.81,2.59,3.89,1.85,7.46,1.76,.74,2.04,.65,3.84,2.55,4.45,2.27,.74,3.57,.79,4.54,2.73-.65,1.67-1.81,2.18-2.5,4.45-2.18,7.04-.51,6.9-9.22,11.99,1.71,1.67,7.32,.23,8.57,4.35,1.25,4.03-3.7,4.63-6.72,5.84-4.82,1.95-3.47,4.21-1.16,7.69,1.44,2.18,3.33,6.16,6.81,5.88,1.48-1.44,.51-2.13,3.2-2.83,.74,1.99,2.27,3.1,1.81,6.16-.28,2.04-1.62,3.94-2.27,5.74-.74,2.04-.93,4.31-1.62,6.34-1.81,5.46-5.23,10.37-2.41,19.31,.65,2.04,1.44,3.7,2.59,5.33,1.16,1.67,2.32,2.27,3.06,4.91,1.3,4.72,2.69,5.79,7.73,8.2,6.76,3.24,8.61,11.67,13.94,9.45,4.68-1.95,.69-6.39,10.1-5.84,3.98,.23,3.7-.6,4.31-3.98,.46-2.55,2.32-3.1,4.91-2.36s5,.14,7.13,.79c4.12,1.3,.97,6.81,3.52,11.76,1.39,2.69,4.68,8.15,6.25,9.63,2.5,2.36,6.3,5,3.47,10.61-1.85,3.7-4.35,7.22-1.81,11.9,6.62,12.27,11.3,8.34,11.02,20.84-.09,4.54,2.36,9.86,5.05,11.21,.69-.46,1.02-.88,1.57-1.3,5.88-15.93,9.08-33.16,9.08-51.13,0-33.67-11.25-64.7-30.24-89.52l-11.9,2.5c.23,1.57,1.11,1.99,2.36,2.59-2.55,2.13-4.12,5.74-9.54,2.32-6.76-4.31-5.28,.37-10.33,.28,.37-1.57,.51-2.92,.14-4.63-1.71-1.02-4.96-.56-6.72,0-3.75,1.11-11.39,5.33-12.97,8.94l-4.45,.42c1.11-1.71,3.43-2.5,2.69-6.16-.51-2.69-1.99-4.21-1.57-7.5,1.67-.6,1.9-.19,2.78-1.39h0Zm-212.39,61.69c2.83-13.38,7.46-26.12,13.62-37.88,2.87,.05,6.21,.46,9.49-.46,4.58-1.3,12.74-5.19,14.5-7.92-4.77,1.99-6.58,3.94-13.38,2.92-.65-.69-1.11-1.76-1.81-2.59-1.3,1.39-1.53,3.8-3.57,4.12-1.07,.19-2.04-.19-2.69-.83,.93-1.62,1.9-3.24,2.92-4.86,3.01-.6,6.95-.46,9.22-1.25,10.47-3.7,6.11-6.85,8.01-7.97,3.29-.97,3.52,2.55,3.84,5.42,4.12,.32,9.77-2.55,13.06,.09-.09-4.91-3.15-12.92,3.94-12.32-.28-1.71,.09-2.04,1.16-3.29,.74-.83,.19-.05,.6-.83h-3.06c-.23-1.34-.74-2.18,.6-2.55,3.2-.93,5.51,1.95,8.61,2.18,4.08,.28,6.9-2.78,10.7-3.47,5.33-.97,6.81,2.18,10.7,3.47,3.61,1.2,10.19-1.71,11.95,1.16-2.83,2.87-8.61-.65-7.13,3.84l3.33,.56c-.6,2.87-1.11,3.29-.88,6.67-5.33,.6-9.03-1.34-14.22-1.25,.74-2.27,1.9-2.36,1.81-5.28l-4.54,1.39s-.14-.14-.19-.14c-1.95-1.81-4.77-2.13-7.22-.79,1.3,3.06,1.57,3.01,1.62,6.99,1.11,.88,2.96,1.07,1.9,3.1-.65,1.34-1.95,1.81-3.06,2.69-1.44,1.16-1.02,2.27-3.47,1.99-1.48-.19-3.01-1.07-3.52-1.9-.65,1.25-.88,2.22-1.57,3.47-1.85,3.38-4.4,6.48-2.69,10.42,2.83,.32,12.74-1.16,16.26-1.53,12.09-1.25,4.08-6.99,3.66-8.2-1.3-3.8,1.95-10.28,8.1-9.4,2.87,.42,3.89,2.92,5.74,3.29,4.08,.69,3.75-1.76,4.63-4.03,3.01-.42,3.1,2.04,4.77,3.7,2.55,2.55,9.12,2.41,12.27,5.23,2.41,2.18,1.99,2.22,3.1,5.51,1.85,.14,2.83-.37,4.26,.79,.97,.79,1.81,1.71,1.44,3.66-1.57,1.02-5.51,1.25-7.92,.93-3.01-.37-3.1-2.5-3.7-5.14-2.04,.28-3.61,1.16-5.28,1.62-2.69,.69-4.03-1.3-5.19,.83-1.44,2.64-2.64,6.16-4.08,8.71,2.64,.05,3.66-2.69,7.6-2.5l.51,2.92,5.42-.37c-.28,1.99-1.57,3.61-2.69,4.4-2.5,1.85-2.78,.79-4.35-.65-7.64-.32-4.68,5.51-6.44,10.84-.93,2.78-3.15,2.45-3.43,5.19-.51,4.72-1.3,1.95-3.52,4.63,.69,2.45,2.78,2.04,1.07,6.58-.79,2.18-2.13,3.94-2.13,6.58,.05,4.35,2.87,8.75,3.43,13.8-1.9-.51-3.01-1.62-3.94-2.73-4.12-5.09-6.02-4.54-11.67-1.71l-.28,1.95c-9.22,1.16-13.48,5.79-13.06,15.75,.19,4.31,2.64,7.18,6.21,8.15,4.03,1.11,8.85,.32,7.97-5.51,6.02-.88,3.66,1.99,6.02,5.88,1.9,3.1,4.54,3.38,8.8,2.08,.37,2.83,.09,2.69,1.99,4.03,1.34,.97,1.76,1.48,3.61,2.41,6.58,3.29,4.03-1.16,8.85-.46,1.44,1.34,.79,2.32,3.89,1.9-.05-8.85-1.39-8.66,14.17-9.45,13.48-.69,9.68-.42,15.14,2.87,1.48,.88,2.59,1.07,4.58,1.16,8.15,.32,11.67,4.54,18.76,5.19,5.42,.51,17.51-2.45,21.07,1.48,1.25,1.39-.51,7.32-.14,10.33,.42,2.96,1.99,6.11,3.1,8.66,6.34,14.45-5.6,10.51-8.48,23.94-.79,3.7-2.04,5.37-3.29,8.52-2.27,5.6,3.7,17.55-3.06,18.57-.97-.88-1.99-4.54-4.82-2.87-2.83,1.62-.14,6.72,1.39,8.57,2.64,3.2,2.87,4.45-.56,7.6l1.11,.42c.28,.32,.37,1.02,.23,1.53-.46,1.62-4.4,.79-7.5,3.24-.23,5.74,.88,10.1,2.41,15.1,.56,1.9,1.07,5.19,2.41,6.16,2.18,1.62,6.21-1.2,6.44,2.55-2.59,1.2-8.75,2.36-12.09,.88-2.13-.93-4.63-4.91-6.07-7.64l-8.29-19.08c-1.2-4.35,.56-8.34,.19-12.92-.32-4.17-1.39-7.27-3.01-10.65-2.83-5.84-5.79-13.29-8.57-18.76-3.98,.14-6.62,.23-8.85-1.99-.74-.74-1.67-2.04-2.45-2.96-1.71-1.99-3.15-3.89-5.28-5.51-1.11-.83-2.18-1.3-3.33-2.08-7.78-5.33-2.18-18.52-6.16-25.7-2.69-4.82-4.45-2.27-6.67-2.87-1.07-.28-2.5-1.3-3.61-1.81-4.03-1.85-8.06-1.9-11.53-4.4-3.33-2.45-3.84-1.71-8.38-2.04-6.9-.51-14.17,1.81-20.24,.74-6.62-1.2-9.45-5.7-12.74-8.57-1.57-1.39-11.16-7.73-13.25-7.6-1.99,5.79,6.72,8.89,8.29,13.29-8.1-.05-7.22-6.02-10.37-11.62-3.1-5.51-8.8-4.63-13.43-8.2-3.94-3.01-5.28-10.37-6.53-15.14-1.62-6.21-4.68-9.73-6.44-14.91l-.32,.79c-.42,1.39-.56,3.24-1.16,4.49-1.62-.28-2.78-1.53-3.2-3.29h0Zm21.35-50.94c1.62-.19,2.13-1.25,3.61-1.81,1.25-.46,4.12,.28,6.53-.19,4.12-.83,1.81-1.34,3.7-3.57,1.3-1.48,3.75-1.07,4.03-3.15-2.78-2.32-3.47,.65-4.63,1.9-2.78,3.01-3.57-1.48-5.65,.37-.88,.79-.32,1.44-2.27,1.34-.97-.05-1.48-.05-1.85,.05-1.16,1.67-2.32,3.33-3.47,5.05h0Zm10.14-7.92c3.52,1.34,5.14-7.92,.28-1.39-.97,1.34-.28,1.39-.28,1.39h0Zm10.37-8.8c.69,1.25,1.34,1.39,2.87,.93,2.08-.65,1.62-.79,3.15,.23l.14-1.9c-3.06-.37-5.37-1.81-6.16,.74h0Zm66.18,99.76c1.76,.93,4.63,.69,6.3-.56,2.13-1.53-.74-1.11,3.47-3.89,.05-.05,.14-.09,.23-.14l.42-.32c-2.64,.09-4.96-.42-7.55,.28-2.78,.79-3.66,1.53-2.87,4.63h0Zm-21.3-.93c3.43-.09,2.87-.74,4.58-1.95,3.94-2.69,7.78,1.81,10.33,1.53,1.71-.19,4.58-.32,4.35-2.18-.28-2.13-2.32-1.39-4.31-1.25-2.59,.19-2.78-1.3-6.02-.79-3.1,.51-8.48,1.71-8.94,4.63h0Zm67.8-113.79c.74-.79,.74-1.71,1.62-2.45,1.81-1.62,7.13-.83,7.22-5.79-1.48-.09-2.04,.14-3.47-.32-3.2-.97-3.47,.51-5.19,1.76-1.39,1.02-1.76,.32-3.43,.74-1.76,.46-4.49,2.22-2.41,3.7,.83,.6,4.45,1.99,5.65,2.36h0Zm25.29,9.03c.74-1.44,3.43-4.21,3.33-5.46-.19-1.85-1.44-.05-.19-3.43,.51-1.44,.56-1.99,.83-3.52,4.21,.88,7.64,8.1,15.7,9.12-.42,2.55,.23,3.2-1.57,4.54-1.07,.79-2.87,1.53-4.31,1.71-4.08,.46-3.8-3.94-5.6-5.84-3.94,0-.97,3.47-3.24,4.68-1.67,.83-4.08-1.02-4.96-1.81h0Zm-119.9-4.96c-3.2,.42-6.72,1.16-8.89,2.45,.14,2.92,3.06,2.92,5.74,2.36,3.75-.74,4.26-.14,4.63,3.43,5.19,.32,10.19,1.02,10.23-3.57l-3.33,.23c-.65-1.07,0-.42-.83-1.07,1.95-4.54,5.6-4.03,8.29-8.66,1.11-1.9,1.2-4.4,2.5-6.11,1.48-1.99,3.38-1.16,4.49-4.4-6.44,.42-7.27,4.08-12.83,6.25-5.37,2.04-10.51,2.22-10,9.08h0Zm23.02-4.03c2.73,1.48,6.34-3.06,13.11,2.73,7.69,6.53,10.47,2.27,12.09,2.18,.74,3.75,1.39,6.07,3.43,8.01,.93,.88,5.19,4.12,6.9,4.86,3.57,1.57,6.72,.37,7.46-2.78,.79-3.33-1.02-7.73,.6-10.61,.69-1.25,4.26-2.18,7.09-4.4,2.27-1.81,4.08-3.52,6.53-5.23,1.76-1.25,6.44-3.15,7.13-4.68,.93-2.13-3.06-5.65-1.85-9.17,1.48-.74,3.66-.05,5.56-.46,2.13-.51,1.76-1.48,2.64-3.47,1.44-3.33,6.44-2.32,4.54-6.76-2.96-.93-7.55,3.89-9.35,5.14-2.78,1.9-2.73-.05-8.66,2.78-.37,.19-1.02,.46-1.39,.56-1.2,.23-1.3-.05-1.48-.09-.42-2.08,.42-3.38,1.02-5.14,.79-2.27,1.95-3.7,1.81-4.96-.42-3.75-6.11,.69-9.4,.83-2.18,.09-4.03-.79-5.88,.19-2.32,1.25-1.02,3.52-3.06,3.94-3.57,.74-6.53-4.86-9.77,1.07-2.08,3.84-4.08,3.7-9.31,4.35-1.99,.23-3.57,.88-4.96,1.76l-11.35,9.35c-1.53,1.67-3.8,5.79-3.84,8.38l.42,1.62h0Zm-22.65,21.67l-3.01-2.08,.65,4.4c5.09,.09,5.65,2.04,7.18,4.31,5.09-2.36-3.61-5.97-4.82-6.62Z" fill="#fff" fill-rule="evenodd" stroke="#231f20" stroke-miterlimit="10"></path>
  <path d="M232.5,313.18c-.08,1.47-10.26,12.21-8.18,12.33,1.66,.05,11.51-.81,11.32,2.5l.28,.02-.32,5.6-.28-.02c-.35,6.12-15.58-1.18-16.72-1.24l-.02,.28-.28-.02c-.08,1.33-6.6,8.09-6.7,9.75,1.56,.09,11.34-1.97,11.16,1.16l.28,.02-.29,5.07-.28-.02c-.18,3.18-11.48,.29-13.83-1.08l-1.04-.06c-.03,.52-3.63,5.26-7.03,9.78-3.09,4.06-5.97,7.94-6,8.41l-1.85-.11,.05-.81-3.03-.17-3.89-.22c.03-.52,2.36-3.77,4.29-6.84,.16-.28,.36-.55,.52-.83,1.62-2.62,2.8-4.93,1.76-4.99,.37-6.45,8.76-17.62,9.04-22.41,2.89,.17,2.88-12.97,3.09-16.62-3.75-.21-7.71-.78-11.76-1.44-7.21-1.22-14.64-2.74-21.61-3.14-.06,1.04-15.63,17.8-15.72,17.8l-.02,.28-2.67,.13-1.85-.11,.33-.79c.08-1.47,6.8-22.3,5.04-22.4l.02-.28c-1.56-.09-1.79-2.05-1.41-3.7-.19-1.68,.25-3.6,1.82-3.51l.02-.28c1.8,.1-2.53-21.36-2.45-22.83l-.24-.82,1.85,.11,2.64,.44-.02,.28s13.65,18.38,13.58,19.48c6.92,.4,14.53-.26,21.83-.65,4.1-.19,8.1-.3,11.85-.08,.21-3.65,1.72-16.7-1.17-16.86,.28-4.84-6.79-16.9-6.42-23.3,1.04,.06,.14-2.37-1.18-5.16-.13-.29-.3-.59-.43-.88-1.57-3.28-3.51-6.77-3.48-7.29l3.89,.22,3.03,.17,.05-.81,1.85,.11c-.03,.47,2.44,4.66,5,9.04,2.86,4.87,5.9,10,5.87,10.52l1.04,.06c2.49-1.05,14.04-2.62,13.86,.51l.28,.02-.29,5.07-.28-.02c-.18,3.13-9.66-.03-11.22-.12-.1,1.66,5.61,9.12,5.54,10.45l.28,.02-.02,.28c1.14,.07,17.11-5.44,16.75,.68l.28,.02-.32,5.6-.28-.02c-.19,3.32-9.88,1.34-11.53,1.19-2.09-.12,6.8,11.71,6.71,13.18,1.71,.1,3.37,.19,4.93,.33,27.09,2.08,40.48,7.51,39.61,11.98,.31,4.54-13.57,8.45-40.72,7.37-1.61-.14-3.22-.23-4.93-.33Z" fill="#00796B" fill-rule="evenodd" stroke="#231f20" stroke-miterlimit="10"></path>
  <path d="M388.04,402.57h0c10.45,10.45,9.78,26.88,0,37.95l-18.95,21.37-18.95-21.37c-9.78-11.02-10.45-27.5,0-37.95h0c10.4-10.4,27.45-10.4,37.9,0Z" fill="#00796B" fill-rule="evenodd" stroke="#231f20" stroke-miterlimit="10"></path>
  <circle cx="369.04" cy="421.14" r="16.24" fill="#fff" stroke="#231f20" stroke-miterlimit="10"></circle>
  <path d="M85.4,402.57h0c10.45,10.45,9.78,26.88,0,37.95l-18.95,21.37-18.95-21.37c-9.78-11.02-10.45-27.5,0-37.95h0c10.4-10.4,27.45-10.4,37.9,0Z" fill="#00796B" fill-rule="evenodd" stroke="#231f20" stroke-miterlimit="10"></path>
  <path d="M65.54,404.9c8.98,0,16.24,7.27,16.24,16.24s-7.27,16.24-16.24,16.24-16.24-7.27-16.24-16.24,7.31-16.24,16.24-16.24Z" fill="#fff" fill-rule="evenodd" stroke="#231f20" stroke-miterlimit="10"></path>
  <circle cx="369.04" cy="421.14" r="12.54" fill="#00796B" stroke="#231f20" stroke-miterlimit="10"></circle>
  <circle cx="65.52" cy="421.14" r="12.54" fill="#00796B" stroke="#231f20" stroke-miterlimit="10"></circle>
  <path d="M20.5,85.95c-.26-3.2,1.24-6.28,3.79-8.23l7.38-5.62,.09-.05c1.34-.51,2.63-1.11,3.92-1.43,1.38-.37,2.81-.46,4.43,.18,2.26,.92,4.01,2.72,6,4.01,15.22,11.58,27.54,20.85,37.32,28.14,2.35,1.75,42.16,10.19,44.19,11.76,13.1,9.78-.92,13.15-7.75,14.62-2.08,.46-3.51,.74-3.28,.97,3.04,3.14-55.86,15.73-67.76,21.82l-27.54-62.99c-.4-.92-.67-1.89-.76-2.89,0-.1-.02-.21-.03-.31Z" fill="#fff" fill-rule="evenodd" stroke="#231f20" stroke-miterlimit="10"></path>
  <path d="M46.05,74.82s-.05-.05-.09-.05c.05,.05,.09,.05,.09,.05h0Zm-.09-.05h0Z" fill="#ececec" fill-rule="evenodd"></path>
  <path d="M32.77,71.68s.05,0,.05-.05h0c.18-.09,.37-.14,.55-.23-.18,.14-.37,.18-.6,.28Z" fill="#2c74b7" fill-rule="evenodd"></path>
  <path d="M454.28,63.84c-56.64-28.37-67.07-22.79-106.09-11.35-39.02,11.44-149.59,46.59-190.69,58.9-41.1,12.32-83.67,26.71-87.55,28.18,0,0-13.56,6.23-30.58,16.93,0,0-7.52,4.34-10.56,7.1-2.91,2.58,1.43,11.39,7.8,14.07,1.48,.65,17.85,5.58,17.85,5.58,0,0,8.44,3.41,26.29,4.43,15.36,.88,174.27-10.75,330.82-57.06,44.65-13.19,71.17-43.04,68.31-53.78-2.86-10.33-25.6-13.01-25.6-13.01Z" fill="#fff" fill-rule="evenodd" stroke="#231f20" stroke-miterlimit="10"></path>
  <path d="M411.47,130.59c-16.84,4.98-33.72,9.55-50.46,13.79-14.16,1.61-28.41,1.85-42.67,.51-20.85-1.94-41.47-5.63-62.36-7.24-24.17-1.85-48.62-.51-72.79,1.25-24.12,1.75-48.16,4.57-72.05,8.26-24.03,3.74-48.57,8.4-71.13,17.71-3.74,1.52-7.56,3.04-11.39,4.61-.37-.92-.69-1.85-.78-2.68,.32-.23,.65-.46,1.01-.69,38.75-26.29,85.89-37.69,131.37-45.76,48.62-8.67,98.25-12.41,147.61-13.52,44.19-1.01,89.72,.51,132.8-11.21,9.23-2.49,32.29-9.04,38.7-19.97,.18,.37,.32,.78,.42,1.15,2.91,10.75-23.62,40.59-68.27,53.78Z" fill="#FFD54F" fill-rule="evenodd" stroke="#231f20" stroke-miterlimit="10"></path>
  <path d="M382.55,77.53c-3.14-3.23-5.67-6.92-8.12-10.7,0-.02-.02-.04-.02-.06-1.04-2.53,.37-5.4,2.96-6.26,3.06-1.02,6.38-2.09,9.94-3.19,1.29-.42,2.54-.78,3.69-1.11l23.94,18.4c-5.95,2.4-11.99,4.52-17.71,6.04-6.13,1.57-9.96,1.75-14.67-3.14Zm66.24-15.81s-20.8-11.16-26.71-11.99c-1.43-.23-6.37-.74-25.88,4.61l23.34,18.45c8.21-3.04,19.97-7.15,29.24-11.07Z" fill="#FFD54F" fill-rule="evenodd" stroke="#231f20" stroke-miterlimit="10"></path>
  <path d="M223.32,172.33h0c-76.02,12.04-132.62,15.73-142.39,15.31,9.78,.42,66.38-3.28,142.39-15.31h0Zm-142.39,15.31h0Zm0,0h0Zm-.09,0h0Zm0,0h0Zm0,0h0Zm-.05,0h0Zm0,0h0Zm0,0h0s-.05,0,0,0c-.05,0,0,0,0,0Z" fill="#2c74b7" fill-rule="evenodd"></path>
  <path d="M36.51,177.68h0s0-.05,0,0c0-.05,0,0,0,0h0Zm0-.05c-.18-.09-.37-.18-.55-.23,.18,.09,.37,.18,.55,.23h0Zm-.6-.23h0Z" fill="#2c74b7" fill-rule="evenodd"></path>
  <path d="M36.51,177.68c-1.11-.46-2.12-1.11-3.09-1.89,.78,.65,1.61,1.15,2.49,1.61h0c.23,.09,.42,.18,.6,.28h0s0,0,0,0Z" fill="#2c6fae" fill-rule="evenodd"></path>
  <path d="M450.04,90.27c.84,1.47,2.67,2.07,4.27,1.51,9.52-3.37,20.21-8.96,25.19-15.84-.05-.23-.14-.32-.14-.32-3.67-8.96-25.67-11.96-25.67-11.96-7.8,4.06-6.06,16.66-3.76,26.4,.03,.06,.06,.14,.11,.21Z" fill="#e2e3e4" fill-rule="evenodd" stroke="#231f20" stroke-miterlimit="10"></path>
  <path d="M223.32,172.33h0c-76.2,12.04-132.89,15.78-142.44,15.31h.05c9.78,.42,66.38-3.28,142.39-15.31h0Zm-142.44,15.31s-.05,0,0,0t0,0h0Zm-.05,0h0Zm0,0h0Zm0,0s-.05,0,0,0t0,0h0Zm-.05,0h0Zm0,0h0Zm0,0h0Zm-.05,0h0Zm0,0h0Zm0,0h0Zm-.05,0h0Z" fill="#2c6fae" fill-rule="evenodd"></path>
  <path d="M260.91,154.3s27.12-11.58,44.37-15.31l10.33,43.08,.09,.14,2.17,4.34s-20.3,5.58-46.73,6.46c-2.35,.65-7.43-6.64-10.24-17.3-2.81-10.75-2.35-20.8,0-21.4Z" fill="#e2e3e4" fill-rule="evenodd" stroke="#231f20" stroke-miterlimit="10"></path>
  <path d="M306.76,163.98c3.46,13.15,8.49,23.2,11.16,22.51,2.68-.69,2.08-11.95-1.43-25.09-3.46-13.15-8.49-23.2-11.16-22.46-2.68,.74-2.03,11.95,1.43,25.05Z" fill="#fff" fill-rule="evenodd" stroke="#231f20" stroke-miterlimit="10"></path>
  <path d="M249.15,175.79s22.93-9.78,37.5-12.96l8.72,36.39,.09,.09,1.85,3.64h0l-.42,.09c-2.81,.74-18.82,4.66-39.02,5.35-2.03,.55-6.27-5.63-8.67-14.62-2.44-8.95-2.08-17.44-.05-17.99Z" fill="#e2e3e4" fill-rule="evenodd" stroke="#231f20" stroke-miterlimit="10"></path>
  <path d="M287.9,184c2.95,11.12,7.15,19.6,9.46,19,2.26-.6,1.75-10.06-1.2-21.17-2.95-11.07-7.15-19.6-9.46-19-2.31,.6-1.75,10.1,1.2,21.17Z" fill="#fff" fill-rule="evenodd" stroke="#231f20" stroke-miterlimit="10"></path>
  <path d="M248.74,140.92l59.09-15.64s15.59-2.81,10.33,6.5c-5.26,9.32-65.82,64.95-65.82,64.95,0,0-5.86,5.49-15.41,8.35,0,0-42.99,14.67-35.24,3.37,7.75-11.3,33.49-57.06,33.49-57.06,0,0,6.27-8.9,13.56-10.47Z" fill="#c0cfce" fill-rule="evenodd"></path>
  <path d="M248.74,140.92l59.09-15.64s15.59-2.81,10.33,6.5c-5.26,9.32-65.82,64.95-65.82,64.95,0,0-5.86,5.49-15.41,8.35,0,0-42.99,14.67-35.24,3.37,7.75-11.3,33.49-57.06,33.49-57.06,0,0,6.27-8.9,13.56-10.47Z" fill="#fff" fill-rule="evenodd" stroke="#231f20" stroke-miterlimit="10"></path>
  <path d="M53.85,169.43l39.02-5.86s4.52-.42,7.56,1.98c2.03,1.61,3.92,5.44,1.38,7.89-4.57,4.47-51.75,28.78-51.75,28.78,0,0-9.87,4.43-17.9,3.64,0,0-21.96,2.08-15.78-3.46,6.18-5.54,27.63-28.37,27.63-28.37,.05,.05,4.98-4.29,9.83-4.61Z" fill="#e2e3e4" fill-rule="evenodd" stroke="#231f20" stroke-miterlimit="10"></path>
  <path d="M53.85,169.43l39.02-5.86s12.45-.05,6.13,6.18c-4.57,4.47-49.08,30.21-49.08,30.21,0,0-4.34,2.54-10.75,3.37,0,0-28.97,4.7-22.79-.83,6.18-5.54,27.63-28.37,27.63-28.37,.05-.05,4.98-4.38,9.83-4.7Z" fill="#fff" fill-rule="evenodd" stroke="#231f20" stroke-miterlimit="10"></path>
  <rect x="329.19" y="68.16" width="33" height="52" rx="6.48" ry="6.48" transform="translate(-12.59 94.09) rotate(-15.23)" fill="#fff" stroke="#231f20" stroke-miterlimit="10"></rect>
</svg>
