<svg id="aa915a77-87a0-4189-89f6-5953fdcb5e06" data-name="Layer 1" xmlns="http://www.w3.org/2000/svg" xmlns:xlink="http://www.w3.org/1999/xlink" width="865.76" height="682.89" viewBox="0 0 865.76 682.89"><defs><clipPath id="bf4ad92e-4494-4d09-ade0-0c78eee87725"><path id="fa4baaed-3a2c-4583-b3ca-4f18909c99a1" data-name="SVGID" d="M359.29,46.16a22.79,22.79,0,0,1,20.65-13.89c10.16,0,18.78,7.07,21.74,16.83a20,20,0,0,1,4.27-.46c8.26,0,15.26,5,17.62,11.76a19.34,19.34,0,0,1,5.21-.72c9.51,0,17.23,6.91,17.23,15.42A14.13,14.13,0,0,1,444,82.41c12,1.23,43,3.07,45.77,4,3.35,1.07-28.7,1.95-39.15,2.76-2.2.17-4.56,1.51-4.56,2.39,0,9.07-10.48,16.43-23.38,16.43a30.33,30.33,0,0,1-13.83-3.19A18.31,18.31,0,0,1,393.89,112a18.52,18.52,0,0,1-14.13-6.24,23.7,23.7,0,0,1-14,4.23c-6.38,0-12-2.19-15.59-5.57-3.86,2.17-9.44,3.54-15.65,3.54-11.56,0-21-4.74-21.08-10.61a143.19,143.19,0,0,0-16.25-1.19c-15.33-.23-44.49-.56-46.43-1.71s16.43-4,41.37-5.54A5.2,5.2,0,0,1,291,85.75C291,82,295.38,79,300.74,79a12.63,12.63,0,0,1,5.78,1.33c.31-6.27,7.15-11.28,15.52-11.28a20,20,0,0,1,2.7.18,15,15,0,0,1,5.95-8.06c.82-9.36,9.49-16.73,20.05-16.73A21.86,21.86,0,0,1,359.29,46.16Z" fill="#eff2ff" clip-rule="evenodd"/></clipPath><clipPath id="fd041fe2-93a2-4799-9396-589e97014521"><path id="f73afa38-5397-4320-9ec1-fdeb5c73ea5c" data-name="SVGID" d="M695.07,137a13.81,13.81,0,0,1,26.16,1.81,12.07,12.07,0,0,1,2.64-.28,11.33,11.33,0,0,1,10.87,7.25,12.15,12.15,0,0,1,3.22-.44c5.87,0,10.63,4.26,10.63,9.51a8.69,8.69,0,0,1-1.27,4.51c7.4.76,26.55,1.9,28.24,2.45,2.07.66-17.71,1.2-24.16,1.7-1.35.11-2.81.93-2.81,1.48,0,5.59-6.47,10.13-14.43,10.13a18.76,18.76,0,0,1-8.53-2,11.76,11.76,0,0,1-17.92.61,14.66,14.66,0,0,1-8.63,2.61,14,14,0,0,1-9.62-3.44,20.26,20.26,0,0,1-9.66,2.18c-7.13,0-12.93-2.92-13-6.54a86.88,86.88,0,0,0-10-.74c-9.46-.14-27.45-.34-28.65-1.05s10.14-2.46,25.53-3.42a3.19,3.19,0,0,1-.69-1.94c0-2.3,2.68-4.17,6-4.17a7.77,7.77,0,0,1,3.57.82c.19-3.87,4.41-7,9.58-7a13,13,0,0,1,1.66.11,9.23,9.23,0,0,1,3.67-5c.51-5.78,5.86-10.33,12.38-10.33A13.3,13.3,0,0,1,695.07,137Z" fill="#eff2ff" clip-rule="evenodd"/></clipPath><clipPath id="adc23019-33b6-4ea3-9558-87bc12130152"><path id="b8810c35-3106-4d38-bda6-dfab99dfec19" data-name="SVGID" d="M674.56,69.84a17.43,17.43,0,0,1,13.92-6.58c8.18,0,15,5.21,16.48,12.1,7.61,1.33,13.34,7.08,13.34,14a12.32,12.32,0,0,1-.22,2.28,15.57,15.57,0,0,1,5.75,12,16.17,16.17,0,0,1-11.26,15.08c0,.33,0,.66,0,1,0,8.24-7.65,14.92-17.08,14.92a18.51,18.51,0,0,1-11-3.54,20,20,0,0,1-6,.93,19.64,19.64,0,0,1-9.25-2.29,22.91,22.91,0,0,1-14.41,4.9,22.37,22.37,0,0,1-16.52-6.88c-3.19,2.6-8.16,4.27-13.73,4.27a24,24,0,0,1-11.19-2.6,17.51,17.51,0,0,1-9.49,2.6c-7.34,0-13.34-3.94-13.67-8.88-18.1-.26-35.35-.43-41.28-.73-.06,0,32.15-4.73,35.2-7.28a2.13,2.13,0,0,0,.22-.21,7.19,7.19,0,0,1-.77-3.24c0-4.69,4.58-8.5,10.22-8.5a11.4,11.4,0,0,1,7,2.27c2-2.46,5.79-4.11,10.08-4.11a15,15,0,0,1,6.73,1.52c.2-6.35,6.3-11.46,13.79-11.46a16.56,16.56,0,0,1,2.66.22,10.17,10.17,0,0,1-.11-1.47c0-6.18,5.75-11.19,12.84-11.19a14.81,14.81,0,0,1,4.3.64,12.74,12.74,0,0,1,2.87-6,9.61,9.61,0,0,1,4.29-3.47A17.5,17.5,0,0,1,666.6,68,17.68,17.68,0,0,1,674.56,69.84Z" fill="#eff2ff" clip-rule="evenodd"/></clipPath></defs><rect x="74.85" y="332.32" width="4.91" height="120.64" fill="#e6e7e8"/><rect x="110.15" y="331.4" width="4.91" height="120.64" fill="#e6e7e8"/><path d="M55.72,448.68h77.1a11.88,11.88,0,0,1,11.88,11.88V572.38a17,17,0,0,1-17,17H60.8a17,17,0,0,1-17-17V460.56a11.88,11.88,0,0,1,11.88-11.88Z" fill="#FFD54F"/><rect x="70.55" y="325.26" width="48.2" height="9.21" rx="3.79" fill="#FFD54F"/><path d="M76.64,453.92a1.39,1.39,0,0,1-1.19-2.12c.35-.57,8.56-13.76,19.7-13.13,1.1,0,16.93.32,19.43,12.67a1.4,1.4,0,0,1-2.74.55c-2.12-10.49-16.57-10.42-16.72-10.43H95c-9.48-.51-17.12,11.68-17.2,11.8A1.38,1.38,0,0,1,76.64,453.92Z" fill="#FFD54F"/><rect x="43.84" y="569.96" width="8.42" height="18.98" rx="3.47" fill="#2f2e41"/><rect x="135.97" y="570.45" width="8.42" height="18.98" rx="3.47" fill="#2f2e41"/><path d="M327.6,536.72s-66.94,15.35-32.08,31.07c0,0,19.71,8.57,65.14,17.14,0,0,26.86,4.29,23.72,8.86,0,0-.58,3.14-22.58,9.43,0,0-34.85,8.28-20.57,16.28,0,0,13.22,5.57,73.22,4.5l95.78-.64s54-1.71,55.29,5.14c0,0,6,6.43-20.57,10.72,0,0-14.15,2.57,1.71,6,0,0,31.72,7.71,96.86,4.71,0,0,34.28-2.14,25.71-9,0,0-2.57-4.28-20.57-9,0,0-12-5.14,16.29-6.86,0,0,114.85-2.71,109.71-31.28,0,0,6.29-18.86-31.43-26.86,0,0-59.43-15.43-41.14-24.57,0,0,49.14-17.71-21.71-22.86Z" fill="#eec8ad"/><ellipse cx="389.03" cy="581.64" rx="41.22" ry="4.16" fill="#e0b08f"/><ellipse cx="491.03" cy="641.57" rx="29.7" ry="4.64" fill="#eec8ad"/><ellipse cx="722.16" cy="636.31" rx="19.49" ry="4.33" fill="#eec8ad"/><ellipse cx="762.26" cy="553.59" rx="32.8" ry="9.28" fill="#eec8ad"/><ellipse cx="764.73" cy="552.97" rx="17.33" ry="4.33" fill="#e0b08f"/><path d="M775,502.79s20.11-29.11,47-43.09l-3.56,27.68L812.6,486l3.84,6.58s-14.53,42.2-45.22,52.62C771.22,545.21,775,508.27,775,502.79Z" fill="#a2c130"/><polygon points="802.39 421.25 810.67 426.77 809.48 452.01 800.41 457.93 802.39 421.25" fill="#cf8044"/><path d="M749.54,407.45l2,59.94-7.1-.39.4-16.56a153.37,153.37,0,0,1-.4-43Z" fill="#cf8044"/><path d="M726.61,197.47h0a3.38,3.38,0,0,1,3.38,3.38v17.57a0,0,0,0,1,0,0h-6.76a0,0,0,0,1,0,0V200.85a3.38,3.38,0,0,1,3.38-3.38Z" transform="translate(111.45 -231.12) rotate(19.55)" fill="#7b911d"/><path d="M668.31,293.85s120,58.13,149.74,39.8l-107.41-69.5-44.26-10.93Z" fill="#00796B"/><path d="M668.31,293.85s120,58.13,149.74,39.8l-107.41-69.5-44.26-10.93Z" fill="#231f20" opacity="0.2"/><path d="M396.75,527.48a110.45,110.45,0,0,1-13.29.76c-16.26,0-29.45-3.17-29.45-7.07s13.19-7.08,29.45-7.08,29.45,3.17,29.45,7.08C412.91,523.92,406.34,526.31,396.75,527.48Z" fill="#fff"/><polygon points="655.79 551.7 373.43 551.7 373.43 64.05 658.92 63.5 655.79 551.7" fill="#a9fdff"/><polygon points="413.81 364.07 654.38 364.07 654.07 551.92 374.5 551.92 413.81 364.07" fill="#eec8ad"/><path d="M431.57,513.69l56-.45a1.86,1.86,0,0,0,1.84-1.86h0a1.85,1.85,0,0,0-1.86-1.85H467.42a1.62,1.62,0,0,1-1.62-1.62h0a1.61,1.61,0,0,1,1.62-1.62H556a1.39,1.39,0,0,1,1.39,1.39h0a1.38,1.38,0,0,1-1.39,1.38h-5.32a2.09,2.09,0,0,0-2.08,2.09h0a2.08,2.08,0,0,0,2.08,2.08h47.87v38.39H430.19Z" fill="#7b911d"/><path d="M422,516.51s4.54-10.06,12.34,0l9.74,14.3-9.42,8.12Z" fill="#a2c130"/><path d="M649.17,369.68l-70.28,6.69H541.75a1.43,1.43,0,1,1,0-2.85h10.86a2.43,2.43,0,1,0,0-4.86H468.18a2.43,2.43,0,1,0,0,4.86h18.43a1.71,1.71,0,0,1,0,3.42H419.68a1.36,1.36,0,0,0,0,2.72h6.89a2.47,2.47,0,0,1,2.47,2.46,2.46,2.46,0,0,1-2.47,2.47H416.39l-7.53-94.17h234S649,329.27,649.17,369.68Z" fill="#97e9ff"/><path d="M624.44,290.23C608.58,190.66,522.25,193,522.25,193c-98.5-.36-104.78,97.07-104.78,97.07Z" fill="#ffcc4c" opacity="0.14"/><path d="M452.25,290.41s1.33-37.74,35.24-55.57a69.74,69.74,0,0,1,70.92,3.26c13.61,9,26.94,24.81,31.9,52.31Z" fill="#ffcc4c" opacity="0.61"/><path d="M587.05,369.67l-10.81-1.73s-2.62-25.13-1.78-40.66c0,0,47,3.78,65.48,25.6L633.64,368l15.53,1.68s4.9,1.68,4.9,8v85.63L608.46,427.6l-27.71-35.68-2.94-14.27Z" fill="#7b911d"/><path d="M596.08,349.14s28.9,10.8,50.13,79l8,23.67" fill="none" stroke="#6d7c13" stroke-miterlimit="10"/><path d="M597.82,376.3s12.88-6.62,33.07,14.27" fill="none" stroke="#6d7c13" stroke-miterlimit="10"/><line x1="636.12" y1="401.71" x2="643.77" y2="375.95" fill="none" stroke="#6d7c13" stroke-miterlimit="10"/><path d="M619.41,406.58s18.1,9.75,26.8,21.58" fill="none" stroke="#6d7c13" stroke-miterlimit="10"/><path d="M417,474.29s5.77,8.13,18.83,2.77a28.37,28.37,0,0,1,5.17-1.52,67.9,67.9,0,0,1,9.56-1.15,20.24,20.24,0,0,1,3.73.13c3.89.49,15.54.72,22.39-12.82a24,24,0,0,0,2.64-11.33,9.17,9.17,0,0,1,6.28-9.27s22.31-11.71,13.66-21.19c0,0-5.85-10-20.07-2.51,0,0-6.93,3.82-13.27-1.13a10.55,10.55,0,0,0-7.72-2.28c-3.71.44-7.83,3-8.57,12.06,0,0-.28,5.85-2.23,10C447.43,436.08,406.16,467,417,474.29Z" fill="#7b911d"/><path d="M474.48,433c-2.23,1.41-4.51,2.73-6.8,4s-4.59,2.56-6.91,3.8-4.66,2.44-7,3.59l-3.55,1.73c-1.2.54-2.38,1.11-3.6,1.63,1.11-.72,2.25-1.38,3.37-2.07l3.42-2c2.28-1.31,4.6-2.55,6.92-3.79s4.66-2.44,7-3.6S472.06,434.07,474.48,433Z" fill="#6d7c13"/><path d="M459.7,427.16c-1.82,3.29-3.88,6.41-6,9.49s-4.36,6.07-6.82,8.92a109.23,109.23,0,0,1,6-9.49A110.82,110.82,0,0,1,459.7,427.16Z" fill="#6d7c13"/><path d="M460.25,454.49a54.84,54.84,0,0,1-14.77-.56,54.84,54.84,0,0,1,14.77.56Z" fill="#6d7c13"/><path d="M417,474.29s5,8.34,18.83,2.77c0,0,13-4.44,15.47,7.55,0,0,3.42,9-13.66,15.89,0,0-10,3.91-7.81,8.65,0,0,4.18,8.64-.28,16.17L386.64,509.7s20.91-4.18,23.7-24C410.34,485.72,408.39,480.7,417,474.29Z" fill="#a2c130"/><path d="M417,474.29s5,8.34,18.83,2.77c0,0,13-4.44,15.47,7.55,0,0,3.42,9-13.66,15.89,0,0-10,3.91-7.81,8.65,0,0,4.18,8.64-.28,16.17L386.64,509.7s20.91-4.18,23.7-24C410.34,485.72,408.39,480.7,417,474.29Z" fill="#231f20" opacity="0.61"/><path d="M425.68,492.14c-2.68,1.51-5.4,2.92-8.13,4.31s-5.49,2.75-8.25,4.08-5.54,2.63-8.35,3.87l-4.2,1.86c-1.42.59-2.83,1.21-4.26,1.77,1.34-.76,2.7-1.47,4-2.21l4.09-2.11c2.73-1.41,5.49-2.74,8.25-4.08s5.54-2.62,8.34-3.87S422.82,493.27,425.68,492.14Z" fill="#7b911d"/><path d="M413.41,486.28a8.35,8.35,0,0,1-1.58,2.56,8.06,8.06,0,0,1-2.33,1.9,9.05,9.05,0,0,1,3.91-4.46Z" fill="#7b911d"/><path d="M459.68,533.73s3.9-15.27-4.87-16.24c0,0-7.79-1-16.24,11,0,0-2.72,8.52-9-3.21l-12.12,2.56,1,24.69,41.58-.65Z" fill="#a2c130"/><path d="M459.68,533.73s3.9-15.27-4.87-16.24c0,0-7.79-1-16.24,11,0,0-2.72,8.52-9-3.21l-12.12,2.56,1,24.69,41.58-.65Z" fill="#231f20" opacity="0.61"/><path d="M431.1,542.17a4.35,4.35,0,0,1,3.85,2.09,10.46,10.46,0,0,0,3.28,3.37c3.41,2.08,9.25,4.11,11.71-4.16,0,0,4.86-11.49,13.86-11.5a10.4,10.4,0,0,1,8.16,4.21l4.61,6a4.59,4.59,0,0,0,5.44,2.09,7.92,7.92,0,0,1,7.5,1.23,18.18,18.18,0,0,1,4.6,6.43h-64A65.39,65.39,0,0,0,431.1,542.17Z" fill="#a2c130"/><ellipse cx="718.28" cy="594.94" rx="11.68" ry="3.51" fill="#eec8ad"/><ellipse cx="526.97" cy="579.37" rx="10.5" ry="3" fill="#e0b08f"/><polygon points="374.61 172.99 400.81 172.8 421.99 462.33 374.03 462.33 374.61 172.99" fill="#fff"/><path d="M374.24,95.89h3.2a20.17,20.17,0,0,1,20.17,20.17v50a0,0,0,0,1,0,0H374.24a0,0,0,0,1,0,0V95.89A0,0,0,0,1,374.24,95.89Z" fill="#a2c130"/><rect x="374.05" y="121.72" width="23.75" height="8.48" fill="#7b911d"/><path d="M374.84,201.14s16.29-11.15,22.29-28.29l3.68,0,1.46,18S386,212.71,374.41,216.14Z" fill="#00796B"/><path d="M374.41,244.42V259s20.83-10.53,30.69-28.54l-1.71-24.71S393.7,233.28,374.41,244.42Z" fill="#00796B"/><path d="M374.45,297.86V314.1s21.18-17.65,33.89-41L406.69,252S397.75,272.92,374.45,297.86Z" fill="#00796B"/><path d="M374.21,360.69l.24,17.65s17.88-15.06,37.89-51.06l-2.12-24.48S398.45,336.22,374.21,360.69Z" fill="#00796B"/><ellipse cx="503.31" cy="391.42" rx="9.43" ry="2.45" fill="#e0b08f"/><ellipse cx="522.35" cy="402.25" rx="5.41" ry="1.4" fill="#e0b08f"/><ellipse cx="479.03" cy="403.12" rx="4.72" ry="1.92" fill="#e0b08f"/><path d="M570.35,290.42H471.84c2.81-25.23,23.79-44.84,49.25-44.84S567.54,265.19,570.35,290.42Z" fill="#ffcc4c"/><path d="M471.84,290.42h0a2.27,2.27,0,0,0,2.27,2.26H488a2.3,2.3,0,0,1,2.3,2.31h0a2.3,2.3,0,0,1-2.3,2.3h-3.37a1.77,1.77,0,0,0-1.77,1.77h0a1.77,1.77,0,0,0,1.77,1.77h24.27a2,2,0,0,1,1.95,1.95h0a1.6,1.6,0,0,1-1.6,1.59H506a1.6,1.6,0,0,0-1.59,1.6h0a1.59,1.59,0,0,0,1.59,1.59H535.8a1.94,1.94,0,0,0,1.94-1.95h0a2,2,0,0,0-1.94-1.95h-4.43a1.77,1.77,0,0,1-1.77-1.77h0a1.77,1.77,0,0,1,1.77-1.77h25.5a1.42,1.42,0,0,0,1.42-1.42h0a1.42,1.42,0,0,0-1.42-1.41h-3.7a2.32,2.32,0,0,1-2.32-2.32h0a2.32,2.32,0,0,1,2.32-2.32h15a2.22,2.22,0,0,0,2.23-2.23H471.84Z" fill="#ffcc4c" opacity="0.61"/><path d="M614.07,195.91s20.62,49,28.82,94.51c0,0,6.91,49.58,6.28,79.26a8.06,8.06,0,0,1,4.9,8l0-139.85S639.9,187,628.54,164.08Z" fill="#8c4826"/><circle cx="599.61" cy="179.94" r="11" fill="#cf8046"/><path d="M625.29,225.9s6.48-15,19.86-19.06" fill="none" stroke="#cf8045" stroke-miterlimit="10"/><path d="M635.42,258.74S643.87,242,654,237.8" fill="none" stroke="#cf8045" stroke-miterlimit="10"/><path d="M641.51,283.07s6.89-6.08,13-6.49" fill="none" stroke="#cf8045" stroke-miterlimit="10"/><line x1="646.78" y1="324.02" x2="653.26" y2="324.02" fill="none" stroke="#cf8045" stroke-miterlimit="10"/><path d="M654.48,150.49s-17.91,1.17-20.15,10a15,15,0,0,0-26.6-6.26l-.29-.08s-14.19-45.41,38.93-89.61l7.7-.26Z" fill="#a2c130"/><path d="M611.5,150.89s-1.22-34.06,42.57-67.71l.41,67.31s-16.37.92-20.15,10C634.33,160.48,628.21,143,611.5,150.89Z" fill="#7b911d"/><path d="M445.75,232.23s17.57-35.15,40.72-44.15l64.28-28.28s18.43-7.72,26.57-4.29l13.29,5.14s-15.43,9-23.14,18.43l4.71-9-18.43,19.29,10.72-17.14L525,210.37l27.86-33.86-27.43,24.43,13.71-20.14-42.43,42,23.15-34.29-31.72,31.72L516,186.8,471.9,227.94s33.85-39,34.28-37.71-50.57,48-50.57,48l28.71-36.86s-30.85,32.57-30.42,31.28,16.71-23.57,16.71-23.57Z" fill="#a2c130"/><polygon points="508.25 372.99 507.32 372.6 518.11 346.81 519.03 347.19 508.25 372.99" fill="#7b911d"/><path d="M537.33,352.63l-39.86-9.85s7-15.48,26.73-8.44C524.2,334.34,537.33,338.09,537.33,352.63Z" fill="#a2c130"/><rect x="452.89" y="362.92" width="1" height="16.47" transform="translate(-99.54 177.27) rotate(-19.98)" fill="#00796B"/><g opacity="0.61"><rect x="452.89" y="362.92" width="1" height="16.47" transform="translate(-99.54 177.27) rotate(-19.98)" fill="#231f20"/></g><path d="M530.94,497.17s-9.13-48.93-.29-53.35c0,0,5.22-7.05,16.91,45.74a155,155,0,0,1,3.07,20.21l1.24,14.52Z" fill="#7b911d"/><path d="M526.52,512.2s-29.79,1.56-27.44,11a4.76,4.76,0,0,0,2.35,2.94c4.27,2.38,18.7,7.78,51.92-1.54C553.35,524.58,541,522.23,526.52,512.2Z" fill="#231f20" opacity="0.2"/><line x1="551.87" y1="524.29" x2="557.77" y2="528.42" fill="none" stroke="#6d7c13" stroke-miterlimit="10"/><path d="M559,552s-2.36-7.08,2.65-11.5a29.11,29.11,0,0,1-9.08-.17,4.7,4.7,0,0,1-1.06-8.71,28.44,28.44,0,0,1,19-2.91s.68-2.74,7.75-6c0,0-5.69,10.4-5.1,29.56Z" fill="#231f20" opacity="0.2"/><path d="M567.49,515.45s-6.78-24.76-3.53-39.79l29.47,3.24-5.89,42.74L575.16,524S571.33,517.8,567.49,515.45Z" fill="#a2c130"/><path d="M567.49,515.45s-6.78-24.76-3.53-39.79l29.47,3.24-5.89,42.74L575.16,524S571.33,517.8,567.49,515.45Z" fill="#231f20" opacity="0.2"/><path d="M583.7,512.2s-35.85-11.76-36-29.28a5,5,0,0,1,1.3-3.52c2.14-2.25,7.58-3.65,20.27,11.29l16.38,18.93Z" fill="#a2c130"/><polygon points="668.31 365.25 701.16 270.47 707.48 273.63 668.94 381.67 668.31 365.25" fill="#7b911d"/><path d="M693.47,276.94s-3.38-11.72-24.52-16.29l.17-58.81s57-4.72,104.58,43a156.16,156.16,0,0,1,39.06,67.08c2.64,9.12,3.75,14.88,5.29,21.76,0,0-29-21.07-62.3-20.71C755.75,312.94,733.47,273.51,693.47,276.94Z" fill="#00796B"/><path d="M669.16,245.36s15.79,1.86,25.45,19c0,0,30.57-5.72,63.71,30.28,0,0,28.88-1.81,54.44,17.24l-3-9.52s-26.57-16.29-49.14-13.43c0,0-25.14-32.57-62-30,0,0-9.74-17.61-29.45-20.18Z" fill="#fff"/><path d="M668.61,227.8s16.57.57,33.71,22.28c0,0,26.86-1.14,61.43,29.43,0,0,24.3,2.93,43.72,16.93l-4-9.79s-21.43-12.57-36.86-12c0,0-24.57-26.57-61.14-30a69.76,69.76,0,0,0-36.29-23.71Z" fill="#fff"/><path d="M770.05,452.41s-3.95,38.25-8.68,55.21c0,0-8.28,33.52-5.52,45.74l14.2.79s6.7-59.55,9.46-73.35L785,455.17Z" fill="#8c4826"/><path d="M758.55,552.92c-2.14-8.58,3.2-36.33,3.43-37.5l1,.19c-.06.28-5.53,28.7-3.44,37.07Z" fill="#cf8043"/><path d="M762.23,553.8c-2.45-12.55,9.63-80.35,10.14-83.23l1,.18c-.13.7-12.57,70.49-10.15,82.86Z" fill="#cf8043"/><path d="M766.62,553.79c-1.37-8.21,8.61-66.22,9-68.69l1,.17c-.11.61-10.39,60.31-9,68.35Z" fill="#cf8043"/><path d="M807.67,483a122.4,122.4,0,0,0-12.16,13.6c-.9,1.22-1.85,2.41-2.74,3.65L790.13,504l-2.48,3.82c-.85,1.27-1.57,2.61-2.35,3.9l-1.18,2-1.08,2c-.71,1.34-1.46,2.66-2.13,4-1.3,2.75-2.65,5.47-3.77,8.3a139.92,139.92,0,0,0-5.92,17.26l1-4.46c.36-1.48.69-3,1.18-4.42l1.38-4.37c.46-1.46,1.08-2.87,1.6-4.3,1-2.89,2.41-5.62,3.67-8.41.66-1.38,1.41-2.72,2.11-4.08l1.07-2,1.17-2a118.59,118.59,0,0,1,10.47-15.05q2.91-3.56,6.07-6.88A84.12,84.12,0,0,1,807.67,483Z" fill="#7b911d"/><path d="M725.72,516.71s34.81,7.4,26.59,37.27l17.74.17S765.46,512.59,725.72,516.71Z" fill="#a2c130"/><path d="M774.78,554.25h-9.32s-3.29-27.13,33.44-29.87C798.9,524.38,774.78,527.39,774.78,554.25Z" fill="#7b911d"/><line x1="478.01" y1="48.93" x2="543.87" y2="48.93" fill="none" stroke="#ed1c24" stroke-miterlimit="10"/><path d="M541.75,125.08c-66.43-6-107.57,21-107.57,21s24.43-7.28,36-9l-30,12.86,45.43-11.57-45.43,17.57,67.29-13.71L459,155.51l58.71-11.57-41.57,13.29,44.14-9.43-39,16.28,57.86-13.28-19.71,9,32.14-6L513.9,167.94l53.57-9.86-17.57,8.15s45-15,51.42,2.14l4.72,2.14-6.86-17.14Z" fill="#7b911d"/><path d="M604.61,158.19S603,144,578.25,128.59c0,0-59.19-35.68-113.12-17l28-.19-24,4.5h40.5l-42,4.93,62.57,2.14-45.86,2.14L534,126.8l-37.72,2.57,40.29,1.71L501,136.65h52.71l-19.28,3.43,28.28,3L528,146.51H576.9L558,151.65s39-2.57,42,9a32.69,32.69,0,0,1,1.28,7.72l4.72,2.14S603.61,166,604.61,158.19Z" fill="#a2c130"/><path d="M634.61,163.37a15,15,0,1,1-.28-2.89A15.23,15.23,0,0,1,634.61,163.37Z" fill="#cf8046"/><circle cx="620.75" cy="187.08" r="15" fill="#d34439"/><ellipse cx="615.75" cy="197.37" rx="6.14" ry="11.43" transform="translate(368.86 794.99) rotate(-85.33)" fill="#d2ebef"/><path d="M659,32.5H371.56a10.09,10.09,0,0,0-10.09,10.09V557.05a10.09,10.09,0,0,0,10.09,10.09H659a10.09,10.09,0,0,0,10.09-10.09V42.59A10.09,10.09,0,0,0,659,32.5Zm-5,519.42H374.5V64.27H654.07Z" fill="#FFD54F"/><ellipse cx="626.91" cy="607.09" rx="66.6" ry="3.97" fill="#e0b08f"/><path d="M374.52,163.4h31.85a2.24,2.24,0,0,1,2.24,2.24v5a2.24,2.24,0,0,1-2.24,2.24H374.52a0,0,0,0,1,0,0V163.4A0,0,0,0,1,374.52,163.4Z" fill="#7b911d"/><path d="M402.25,405.41s2.23-13.66,15.06-8.64c0,0,9.76,3.62,15.62-2,0,0,12.55-15.33,25.09-5.29,0,0,11.72,7-2.51,22.86,0,0-13.08,10.57-9.85,16.89a11,11,0,0,1,1.11,2.9c1.05,5.14,2.78,19.39-7.21,29.63a14,14,0,0,1-5.33,3.33c-7,2.5-25.48,10.16-23.89,20.59,0,0-1.67,23.7-35.7,26.21l-.27-50.19s4.46-31.79,19.24-29c0,0,12-1.4,8.92-12C402.53,420.75,400.3,412.94,402.25,405.41Z" fill="#a2c130"/><path d="M374.92,491.86a231,231,0,0,1,11.27-22.26c4.12-7.24,8.62-14.25,13.4-21.07a206.44,206.44,0,0,1,15.82-19.34,122.94,122.94,0,0,1,18.91-16.25c-3.22,2.63-6.58,5.08-9.54,8-3.14,2.71-5.91,5.81-8.81,8.77a224.67,224.67,0,0,0-15.56,19.4c-4.83,6.75-9.31,13.74-13.56,20.87q-3.21,5.34-6.17,10.82C378.66,484.43,376.76,488.13,374.92,491.86Z" fill="#7b911d"/><path d="M414.8,411.27c-.43,2.37-1,4.72-1.51,7.07s-1.16,4.67-1.77,7-1.28,4.64-2,6.94l-1.08,3.45c-.39,1.14-.76,2.29-1.18,3.42.21-1.19.47-2.36.71-3.55l.8-3.52c.54-2.35,1.16-4.67,1.77-7s1.28-4.64,2-6.94S414,413.54,414.8,411.27Z" fill="#7b911d"/><path d="M398.35,451.42c2.1-.8,4.24-1.5,6.38-2.18s4.29-1.31,6.45-1.92,4.33-1.19,6.51-1.71l3.28-.77c1.11-.22,2.2-.48,3.31-.67-1,.41-2.12.76-3.17,1.14l-3.21,1c-2.13.7-4.29,1.31-6.45,1.93s-4.33,1.18-6.52,1.7S400.56,451,398.35,451.42Z" fill="#7b911d"/><path d="M380.78,478.75c2.08-.55,4.18-1,6.28-1.42s4.21-.8,6.33-1.16,4.23-.68,6.36-.94l3.19-.38c1.07-.09,2.14-.22,3.22-.28-1,.28-2.09.51-3.14.76l-3.15.66c-2.1.44-4.21.8-6.32,1.16s-4.23.67-6.36.93S382.93,478.61,380.78,478.75Z" fill="#7b911d"/><path d="M428.09,558c-19.91,44.88-75.72,19.12-75.72,19.12-39.81-13.66-16-55.22-16-55.22,0,7.22,21.32,13.07,47.61,13.07s47.62-5.85,47.62-13.07C433.16,544,428.09,558,428.09,558Z" fill="#d34439"/><path d="M384,508.82c-26.29,0-47.61,5.86-47.61,13.08S357.69,535,384,535s47.62-5.85,47.62-13.07S410.28,508.82,384,508.82Zm12.77,18.66a110.45,110.45,0,0,1-13.29.76c-16.26,0-29.45-3.17-29.45-7.07s13.19-7.08,29.45-7.08,29.45,3.17,29.45,7.08C412.91,523.92,406.34,526.31,396.75,527.48Z" fill="#fff"/><path d="M396.77,527.57a110.45,110.45,0,0,1-13.29.76c-16.26,0-29.45-3.17-29.45-7.07s13.19-7.08,29.45-7.08,29.45,3.17,29.45,7.08C412.93,524,406.36,526.4,396.77,527.57Z" fill="#e6e7e8"/><path d="M412.91,521.17c0,2.75-6.57,5.14-16.16,6.31a4.88,4.88,0,0,0-1.57-3.39c-7.71-6-41.17-2.92-41.17-2.92,0-3.91,13.19-7.08,29.45-7.08S412.91,517.26,412.91,521.17Z" fill="#d1d3d4"/><path d="M385.78,527.65,395.36,474a14.16,14.16,0,0,1,16.75-11.4l48.83,9.86-1.82,3.63L412.59,467a10.92,10.92,0,0,0-12.82,8.65l-10,52Z" fill="#e6e7e8"/><path d="M551.87,524.29s-37-9.59-40.46-33.61a5.5,5.5,0,0,1,8.36-5.36c2.86,1.81,6.53,5.35,11.17,11.85Z" fill="#a2c130"/><path d="M557.1,436.87l-14.28.69s-7-35.16-6.61-49.78c0,0,55.7-3.83,81.46,20.89l-5.23,18.1,21.24.35s14.32,18.36,20.39,36.16l.15,34.5-68.58,11.84s-7-9.05-10.09-14.27l12.88-13.93-21.59,4.18s-17.4-22.28-18.45-38.64Z" fill="#a2c130"/><path d="M565.45,411.8s40.38,18.1,66.84,74.84" fill="none" stroke="#7b911d" stroke-miterlimit="10"/><path d="M571.37,442.78s15.66-8,41.07,10.45" fill="none" stroke="#7b911d" stroke-miterlimit="10"/><path d="M621.84,468.54s2.09-25.76,2.79-34.11" fill="none" stroke="#7b911d" stroke-miterlimit="10"/><path d="M601.65,476.55s16.71,4.18,23.33,11.83" fill="none" stroke="#7b911d" stroke-miterlimit="10"/><path d="M694.72,547.28a62.83,62.83,0,0,1-4.93,24.48A62.16,62.16,0,0,1,672.73,595a60,60,0,0,1-51,13c-27.7-5.77-48.55-30.75-48.55-60.7a62.25,62.25,0,0,1,25.58-50.51h0A59.74,59.74,0,0,1,634,485.33c1.61,0,3.2.06,4.78.19C670.06,488,694.72,514.71,694.72,547.28Z" fill="#00796B"/><path d="M644.39,608.07l-.11.27a60.27,60.27,0,0,1-22.53-.36c-5-4.53-42-41-19.22-106.11l12.79-1.94S643.61,532.1,644.39,608.07Z" fill="#fff"/><path d="M694.72,547.28a62.34,62.34,0,0,1-22,47.71c13.77-78.84-41.52-102.42-41.52-102.42a26.61,26.61,0,0,0,7.53-7.05C670.06,488,694.72,514.71,694.72,547.28Z" fill="#fff"/><path d="M689.79,571.76A62.16,62.16,0,0,1,672.73,595a60,60,0,0,1-51,13c-27.7-5.77-48.55-30.75-48.55-60.7a62.25,62.25,0,0,1,25.58-50.51c-2.24,6.26-16.82,52.35,29.72,78,0,0,29.07,16.28,61.24-3.1Z" fill="#231f20" opacity="0.2"/><path d="M570.44,528.71s-13.91-6.37-16-13.58a4.46,4.46,0,0,1,6.28-5.23c3.17,1.53,8.31,5.37,14.79,14.21C575.51,524.11,571.33,525.76,570.44,528.71Z" fill="#a2c130"/><path d="M744,424.8l.39-17.35s-21.69,22.08-41.8,35.49c0,0,35.89,16.17,41.8,24.06l.4-16.56,55.6,7.49,2-36.68Z" fill="#8c4826"/><path d="M782.86,443.05a6.62,6.62,0,1,1,6.62-6.62A6.63,6.63,0,0,1,782.86,443.05Zm0-12.23a5.62,5.62,0,1,0,5.62,5.61A5.62,5.62,0,0,0,782.86,430.82Z" fill="#cf8043"/><rect x="746.38" y="429.82" width="19.73" height="1" transform="translate(-16.22 29.85) rotate(-2.24)" fill="#cf8043"/><rect x="763.24" y="431.89" width="1" height="15.79" transform="translate(286.34 1180.6) rotate(-87.14)" fill="#cf8043"/><rect x="781.18" y="441.53" width="1" height="18.6" transform="translate(266.2 1191.47) rotate(-85.14)" fill="#cf8043"/><path d="M756.44,449.36c-4.46,0-9-1.12-9-3.26s4.52-3.26,9-3.26,9,1.12,9,3.26S760.9,449.36,756.44,449.36Zm0-5.52c-4.87,0-8,1.34-8,2.26s3,2.26,8,2.26,8-1.32,8-2.26S761.31,443.84,756.44,443.84Z" fill="#cf8043"/><path d="M732.7,451.1c-5.25,0-15-9-15.44-9.37a2.55,2.55,0,0,1-.54-2.68c1.58-3.82,13.64-5.5,15-5.67l.13,1c-3.57.46-13.07,2.28-14.22,5.06a1.58,1.58,0,0,0,.35,1.63c3,2.8,11.85,10,15.45,8.94a2.08,2.08,0,0,0,1.42-1.66c0-.06,1.12-3.64-.33-5.88a4.15,4.15,0,0,0-3.19-1.78c-3.91,0-7,.59-7.15,1.12,0,0,0,.23.72.69l9.8,3.13-.31.95-10-3.21c-.37-.23-1.47-.93-1.2-1.84.48-1.66,5.87-1.84,8.17-1.84a5.18,5.18,0,0,1,4,2.24c1.69,2.64.49,6.53.44,6.69a3,3,0,0,1-2.1,2.35A3.75,3.75,0,0,1,732.7,451.1Z" fill="#cf8043"/><path d="M437.91,367.17l25.79-4.69a17.33,17.33,0,0,0-1.51-2.14,13.91,13.91,0,0,0-22.58,1.49A11.61,11.61,0,0,0,437.91,367.17Z" fill="#00796B"/><path d="M353.06,279.5a5.18,5.18,0,0,1-.5.15c-.49,4.77.11,9.6-.59,13.76-.11.65-.83,1-1.32,1.48-3.77,3.5-8.85,2.93-9.66,2.82a7.26,7.26,0,0,0-5.19-.34,4.78,4.78,0,0,0-2.64,1.68c-16.91,13.22-36.78,18.95-43.91,20.68a11.12,11.12,0,0,1-9-1.63c-8.75-6-17-23.82-17-23.82,8.08-2.43,15.46-13.55,15.46-13.55L280,278l7.62,15.09c2.07,5.09,5.34,4.9,7.11,4.33,1.27-.4,2.53-.81,3.82-1.1,14.58-3.25,31.38-10,31.38-10-1.89-7.27,6.19-14.28,6.19-14.28a41.34,41.34,0,0,1,7.42-6.12,13.76,13.76,0,0,1,4.37-1.9,2.6,2.6,0,0,1,2.25,4.43,14.78,14.78,0,0,1-5.3,2.66,3.91,3.91,0,0,0-2.58,2.38c-.95,2.7,3.27,1,3.27,1l1-.4c19.57-7.85,20.78-3.91,20.78-3.91C370.23,275.17,356.11,278.6,353.06,279.5Z" fill="#f9ad9b"/><path d="M285.74,518.65c-2.83,6.47-23.85,6.47-23.85,6.47-10.51.8-10.51-4.86-10.51-4.86L226.73,395.78c-2.42-18.59-6.47,2.83-6.47,2.83L188.74,519.05c-1.62,8.89-16.57,4.85-16.57,4.85l-10.1-7.27c-2.72-3.5-.59-6.24-.42-6.46h0l13.74-87.7L189,352.4l3.37-3.5,67.49-1.22,25.59,169.14Z" fill="#FFD54F"/><path d="M159.61,532.83l-2.14,8.85a24,24,0,0,0,18.93,5.19l2.74-9.15Z" fill="#f9ad9b"/><path d="M153.5,553.28l4-11.6s6.72,6.72,18.93,5.19l-4,11.3S170,546,153.5,553.28Z" fill="#e6e7e8"/><path d="M171.82,587.17s5.5,11-20.15,7.93c0,0-25.33-5.49-14.95-13.13l16.78-28.69s15-8.24,18.93,4.89Z" fill="#00796B"/><path d="M280.32,535l2.25,9.28a25.24,25.24,0,0,1-19.9,5.44L258,534.54Z" fill="#f9ad9b"/><path d="M286.74,556.43l-4.17-12.16s-7.06,7-19.9,5.44l4.17,11.83S269.41,548.75,286.74,556.43Z" fill="#e6e7e8"/><path d="M267.48,592s-5.78,11.51,21.18,8.31c0,0,26.65-5.75,15.73-13.76l-17.65-30.07s-15.73-8.64-19.9,5.12Z" fill="#00796B"/><path d="M151.67,595.1s-25.33-5.49-14.95-13.13c0,0,13.73,11.3,35.1,5.2C171.82,587.17,177.32,598.15,151.67,595.1Z" fill="#231f20" opacity="0.2"/><path d="M288.93,600.21s26.45-5.81,15.51-13.72c0,0-14.45,11.77-37,5.46C267.48,592,261.91,603.37,288.93,600.21Z" fill="#231f20" opacity="0.2"/><path d="M352.56,279.65c-.49,4.77.11,9.6-.59,13.76-.11.65-.83,1-1.32,1.48-3.77,3.5-8.85,2.93-9.66,2.82a7.26,7.26,0,0,0-5.19-.34c-.77-.69-4.15-4.25-2.78-12.38a26,26,0,0,1,3.83-9.67,108.56,108.56,0,0,1,6.69-9.33,13.76,13.76,0,0,1,4.37-1.9,2.6,2.6,0,0,1,2.25,4.43,14.71,14.71,0,0,1-5.27,2.65,4,4,0,0,0-2.61,2.39c-.95,2.7,3.27,1,3.27,1l1-.4a20.92,20.92,0,0,1,6.47,5.37A5.18,5.18,0,0,1,352.56,279.65Z" fill="#f29981"/><path d="M263.91,295.82l5.93,10.24s12.93-1.63,15.49-17.65l-4.72-8.76a2,2,0,0,0-1.88,1.08C276.34,284.53,271.28,293.42,263.91,295.82Z" fill="#f29981"/><path d="M159.67,243.91s-30.06-17.79-31.56-31.07c0,0-7.52-40.33-7.77-53.86,0,0-7.18.78-13.24-23.88,0,0-2.63-5.86,2-4.44,0,0-1.41-6.27,1-6.27,0,0,1.41.41,3.23,6.06,0,0-1.41-9.29,1.22-8.48,0,0,2.62-.2,3.43,4.65,0,0-.6-6.47,2-3.84l6.87,20.61s2.83-11.52,6.47-10.71c0,0,2.78,15.31-.58,22.93a10,10,0,0,0-.14,7.42l14.29,39.29a9.09,9.09,0,0,0,3.34,4.34l19.87,13.72S162.53,234.7,159.67,243.91Z" fill="#f9ad9b"/><line x1="112.76" y1="143.99" x2="109.12" y2="130.66" fill="none" stroke="#f29981" stroke-miterlimit="10"/><line x1="113.36" y1="130.45" x2="116.39" y2="142.78" fill="none" stroke="#f29981" stroke-miterlimit="10"/><line x1="118.01" y1="126.62" x2="121.24" y2="139.95" fill="none" stroke="#f29981" stroke-miterlimit="10"/><path d="M147.92,236.14s4-16.57,11.72-23l10.51,7.28-10.48,23.53Z" fill="#f29981"/><path d="M189,352.4,187,362s50.83,18.33,74-5.19l-1.13-9.16-67.49,1.22Z" fill="#231f20" opacity="0.2"/><path d="M285.74,518.65c-2.83,6.47-23.85,6.47-23.85,6.47-10.51.8-10.51-4.86-10.51-4.86L226.73,395.78c-2.42-18.59-6.47,2.83-6.47,2.83L188.74,519.05c-1.62,8.89-16.57,4.85-16.57,4.85l-10.1-7.27c-2.72-3.5-.59-6.24-.42-6.46h0s6.64,8,14.4,6.85a6.06,6.06,0,0,0,4.88-4.31l36.14-121.28s4.15-15.91,11.41-4.5l28.36,124.49a10.8,10.8,0,0,0,10.72,7.26Z" fill="#231f20" opacity="0.2"/><path d="M278.73,280.73A51.31,51.31,0,0,1,271,291.36c-3.45,3.4-7.58,5.7-11.35,3.11,0,0-1.62,32.06,5.39,53.08,0,0-.65,1.48-4.47,3.77l-.82.48c-4.55,2.55-12.9,6-28.12,9.49,0,0-24.25,1.08-42.57-8.89a3.83,3.83,0,0,1-1.2-.86c-1.23-1.24-2.73-4.05-1-9.92,0,0,19-37.47-.06-73a15.11,15.11,0,0,0-5.79-6,161.2,161.2,0,0,1-19.74-13.48s-2.51-1.07-1.82-5.27a14.11,14.11,0,0,1,1-3.34l10-21.56s4.32-2.69,8.63,1.62A44.85,44.85,0,0,0,193.59,225s8.89,1.61,15.63,5.66c0,0,23.71,3.77,27.75,4,0,0,19.4,1.08,25.06,8.89,0,0,10.23,18.86,17,26.14C279,269.69,285.74,277,278.73,280.73Z" fill="#00796B"/><path d="M213.54,218.95h18.13a0,0,0,0,1,0,0v14.82a9.07,9.07,0,0,1-9.07,9.07h0a9.07,9.07,0,0,1-9.07-9.07V218.95A0,0,0,0,1,213.54,218.95Z" fill="#f9ad9b"/><path d="M265,347.55s-.65,1.48-4.47,3.77l-.56,0s-11.24-45-.28-84.43c0,0,4.67-2.48,5.76,6.58,0,0,2.67,11.89,5.51,17.87-3.45,3.4-7.58,5.7-11.35,3.11C259.6,294.47,258,326.53,265,347.55Z" fill="#231f20" opacity="0.2"/><path d="M200.19,308.58s-1.47,25.37-12.38,43c-1.23-1.24-2.73-4.05-1-9.92,0,0,19-37.47-.06-73a15.11,15.11,0,0,0-5.79-6,161.2,161.2,0,0,1-19.74-13.48s-2.51-1.07-1.82-5.27l.23,0s12,7.65,21.89,11.49C181.56,255.39,198.55,262.52,200.19,308.58Z" fill="#231f20" opacity="0.2"/><path d="M213.57,231.85l-.14-14.28,18,3.85.14,5.86S227.14,232,213.57,231.85Z" fill="#f29981"/><ellipse cx="223.93" cy="195.51" rx="20.12" ry="30.07" fill="#f9ad9b"/><ellipse cx="203.36" cy="205.02" rx="5.31" ry="7.3" transform="translate(-83.39 170.91) rotate(-38.45)" fill="#f9ad9b"/><path d="M198.83,199.3s-11.83-3.79-3.43-9.54c0,0-9.29-4.87,1.33-11.5,0,0-4.87-14.15,8.84-11.94,0,0-2.83-17.35,10.19-15.94a15,15,0,0,1,6.85,2.75c1.93,1.35,5.37,2.43,8.62-3.18,0,0,4.34-7.06,12.19-5.43a12.21,12.21,0,0,1,9.76,11.16,9.53,9.53,0,0,1-3.38,8s9.73.45,8.85,7.08c0,0,3.53,9.73-6.2,9.73,0,0,1.4,11.6-8.52,11.31l-.58-4.14s-4.77.14-6.11-4.17a8.54,8.54,0,0,1-9.16,1.88s-2.7-.54-3.51-7.27c0,0-12.39,9.43-14.82-1.89,0,0,0,8.89-3.5,9.43,0,0,4.58,5.12-2.15,7.28l-.27,6.19S201.91,197.08,198.83,199.3Z" fill="#7a383a"/><path d="M352.39,291.35c.42,4.49-4.37,5.85-7.12,6.56a7,7,0,0,1-5.08-.47c-3.45-1.82-4.24-5.89-4.3-9a11.3,11.3,0,0,1,2.9-8.08c5.44-5.76,13.44-.93,13.76-.74h0Z" fill="#f9ad9b"/><path d="M337.12,283.58a23.32,23.32,0,0,1,5-1,22.65,22.65,0,0,1,5.14,0,26.54,26.54,0,0,1-10.18,1Z" fill="#f29981"/><path d="M337.23,287.6a26.29,26.29,0,0,1,10.18-1,22.75,22.75,0,0,1-5,1A23.87,23.87,0,0,1,337.23,287.6Z" fill="#f29981"/><path d="M338,292.21a26.29,26.29,0,0,1,10.18-1,26.29,26.29,0,0,1-10.18,1Z" fill="#f29981"/><path d="M190.76,533.6c-1.62,6.06-9.3,6.06-9.3,6.06-16.56,3.64-27.88-9.7-27.88-9.7-4.45-4,1.61-12.53,1.61-12.53.81-6.87,6.47-7.27,6.47-7.27s-2.42,2.83.41,6.47l6.22,4.47a19.07,19.07,0,0,0,12.3,3.68c3.7-.23,7.39-1.56,8.15-5.73C194.39,517.84,190.76,533.6,190.76,533.6Z" fill="#00796B"/><path d="M283,536.71s-11.37,7-27.51,2.56c0,0-5.13,0-5.59-7a32.44,32.44,0,0,0-.93-6.12c-.65-2.48-.85-5.68,2.4-5.85,0,0,0,5.66,10.51,4.86,0,0,21,0,23.85-6.47l-.28-1.83c1-.51,2.88-.65,3.42,5.21C288.88,522,291.81,533,283,536.71Z" fill="#00796B"/><path d="M359.29,46.16a22.79,22.79,0,0,1,20.65-13.89c10.16,0,18.78,7.07,21.74,16.83a20,20,0,0,1,4.27-.46c8.26,0,15.26,5,17.62,11.76a19.34,19.34,0,0,1,5.21-.72c9.51,0,17.23,6.91,17.23,15.42A14.13,14.13,0,0,1,444,82.41c12,1.23,43,3.07,45.77,4,3.35,1.07-28.7,1.95-39.15,2.76-2.2.17-4.56,1.51-4.56,2.39,0,9.07-10.48,16.43-23.38,16.43a30.33,30.33,0,0,1-13.83-3.19A18.31,18.31,0,0,1,393.89,112a18.52,18.52,0,0,1-14.13-6.24,23.7,23.7,0,0,1-14,4.23c-6.38,0-12-2.19-15.59-5.57-3.86,2.17-9.44,3.54-15.65,3.54-11.56,0-21-4.74-21.08-10.61a143.19,143.19,0,0,0-16.25-1.19c-15.33-.23-44.49-.56-46.43-1.71s16.43-4,41.37-5.54A5.2,5.2,0,0,1,291,85.75C291,82,295.38,79,300.74,79a12.63,12.63,0,0,1,5.78,1.33c.31-6.27,7.15-11.28,15.52-11.28a20,20,0,0,1,2.7.18,15,15,0,0,1,5.95-8.06c.82-9.36,9.49-16.73,20.05-16.73A21.86,21.86,0,0,1,359.29,46.16Z" fill="#eff2ff" fill-rule="evenodd"/><path id="aed2c749-0677-4467-9273-0485d178cd78" data-name="SVGID" d="M359.29,46.16a22.79,22.79,0,0,1,20.65-13.89c10.16,0,18.78,7.07,21.74,16.83a20,20,0,0,1,4.27-.46c8.26,0,15.26,5,17.62,11.76a19.34,19.34,0,0,1,5.21-.72c9.51,0,17.23,6.91,17.23,15.42A14.13,14.13,0,0,1,444,82.41c12,1.23,43,3.07,45.77,4,3.35,1.07-28.7,1.95-39.15,2.76-2.2.17-4.56,1.51-4.56,2.39,0,9.07-10.48,16.43-23.38,16.43a30.33,30.33,0,0,1-13.83-3.19A18.31,18.31,0,0,1,393.89,112a18.52,18.52,0,0,1-14.13-6.24,23.7,23.7,0,0,1-14,4.23c-6.38,0-12-2.19-15.59-5.57-3.86,2.17-9.44,3.54-15.65,3.54-11.56,0-21-4.74-21.08-10.61a143.19,143.19,0,0,0-16.25-1.19c-15.33-.23-44.49-.56-46.43-1.71s16.43-4,41.37-5.54A5.2,5.2,0,0,1,291,85.75C291,82,295.38,79,300.74,79a12.63,12.63,0,0,1,5.78,1.33c.31-6.27,7.15-11.28,15.52-11.28a20,20,0,0,1,2.7.18,15,15,0,0,1,5.95-8.06c.82-9.36,9.49-16.73,20.05-16.73A21.86,21.86,0,0,1,359.29,46.16Z" fill="#eff2ff" fill-rule="evenodd"/><g clip-path="url(#bf4ad92e-4494-4d09-ade0-0c78eee87725)"><path d="M357.14,38.61a22.79,22.79,0,0,1,20.64-13.89c10.16,0,18.79,7.07,21.74,16.83a20,20,0,0,1,4.28-.46c8.26,0,15.26,4.95,17.61,11.77a19,19,0,0,1,5.22-.72c9.5,0,19.78,5.11,19.78,13.61,0,2.65,3,5.79,1.65,8,12,1.22,43.64,11.72,46.39,12.61,3.35,1.07-35.24-1.49-45.68-.68-2.2.17-4.56,1.51-4.56,2.39,0,9.06-10.83,12.36-23.73,12.36a30.24,30.24,0,0,1-13.84-3.19,18.29,18.29,0,0,1-14.9,7.23,18.51,18.51,0,0,1-14.13-6.23,23.82,23.82,0,0,1-14,4.23c-6.37,0-12-2.19-15.58-5.58-3.86,2.17-9.45,3.54-15.65,3.54-11.56,0-21-4.74-21.09-10.6-2,3.83-5.33,3.62-12.38,3.5-5.12-.1-51,1.23-52.92.08s19.06-10.47,44-12a5.16,5.16,0,0,1-1.12-3.15c0-3.73,4.35-6.76,9.7-6.76a12.7,12.7,0,0,1,5.78,1.33c.32-6.26,7.15-11.28,15.53-11.28a19.71,19.71,0,0,1,2.69.18,15,15,0,0,1,5.95-8.06c.82-9.35,9.49-16.72,20.06-16.72A21.93,21.93,0,0,1,357.14,38.61Z" fill="#eff2ff" fill-rule="evenodd"/></g><path d="M343.09,85.08A10.83,10.83,0,0,0,363,92.72a11.22,11.22,0,0,1-.37,1.29,10.79,10.79,0,0,1-20.32-7.24A10.45,10.45,0,0,1,343.09,85.08Z" fill="#eff2ff" fill-rule="evenodd"/><path d="M308.66,81.75c-.92,4.43,1.83,9.09,6.57,10.78a9.7,9.7,0,0,0,11.68-3.8,8.86,8.86,0,0,1-.31,1.12c-1.69,4.73-7.23,7.09-12.37,5.26S306.29,88,308,83.21A8.11,8.11,0,0,1,308.66,81.75Z" fill="#eff2ff" fill-rule="evenodd"/><path d="M363,61.72a10.83,10.83,0,0,0-18.18,11.15,12.57,12.57,0,0,1-.8-1.08,10.79,10.79,0,0,1,18.11-11.72A11.34,11.34,0,0,1,363,61.72Z" fill="#eff2ff" fill-rule="evenodd"/><path d="M376.24,87.8a10.83,10.83,0,0,0,19.91,7.64,11.22,11.22,0,0,1-.37,1.29,10.79,10.79,0,0,1-20.32-7.24A10.42,10.42,0,0,1,376.24,87.8Z" fill="#eff2ff" fill-rule="evenodd"/><path d="M387.61,68.59A10.83,10.83,0,0,0,372.5,53.54a10.43,10.43,0,0,1,.86-1,10.79,10.79,0,1,1,14.25,16.08Z" fill="#eff2ff" fill-rule="evenodd"/><path d="M417.85,84.9a12.54,12.54,0,0,0-17.79-17.11,12.46,12.46,0,1,1,19.38,15.65A11.47,11.47,0,0,1,417.85,84.9Z" fill="#eff2ff" fill-rule="evenodd"/><path d="M695.07,137a13.81,13.81,0,0,1,26.16,1.81,12.07,12.07,0,0,1,2.64-.28,11.33,11.33,0,0,1,10.87,7.25,12.15,12.15,0,0,1,3.22-.44c5.87,0,10.63,4.26,10.63,9.51a8.69,8.69,0,0,1-1.27,4.51c7.4.76,26.55,1.9,28.24,2.45,2.07.66-17.71,1.2-24.16,1.7-1.35.11-2.81.93-2.81,1.48,0,5.59-6.47,10.13-14.43,10.13a18.76,18.76,0,0,1-8.53-2,11.76,11.76,0,0,1-17.92.61,14.66,14.66,0,0,1-8.63,2.61,14,14,0,0,1-9.62-3.44,20.26,20.26,0,0,1-9.66,2.18c-7.13,0-12.93-2.92-13-6.54a86.88,86.88,0,0,0-10-.74c-9.46-.14-27.45-.34-28.65-1.05s10.14-2.46,25.53-3.42a3.19,3.19,0,0,1-.69-1.94c0-2.3,2.68-4.17,6-4.17a7.77,7.77,0,0,1,3.57.82c.19-3.87,4.41-7,9.58-7a13,13,0,0,1,1.66.11,9.23,9.23,0,0,1,3.67-5c.51-5.78,5.86-10.33,12.38-10.33A13.3,13.3,0,0,1,695.07,137Z" fill="#eff2ff" fill-rule="evenodd"/><path id="b3fd238e-0957-482b-a7d3-c79de46ef5d6" data-name="SVGID" d="M695.07,137a13.81,13.81,0,0,1,26.16,1.81,12.07,12.07,0,0,1,2.64-.28,11.33,11.33,0,0,1,10.87,7.25,12.15,12.15,0,0,1,3.22-.44c5.87,0,10.63,4.26,10.63,9.51a8.69,8.69,0,0,1-1.27,4.51c7.4.76,26.55,1.9,28.24,2.45,2.07.66-17.71,1.2-24.16,1.7-1.35.11-2.81.93-2.81,1.48,0,5.59-6.47,10.13-14.43,10.13a18.76,18.76,0,0,1-8.53-2,11.76,11.76,0,0,1-17.92.61,14.66,14.66,0,0,1-8.63,2.61,14,14,0,0,1-9.62-3.44,20.26,20.26,0,0,1-9.66,2.18c-7.13,0-12.93-2.92-13-6.54a86.88,86.88,0,0,0-10-.74c-9.46-.14-27.45-.34-28.65-1.05s10.14-2.46,25.53-3.42a3.19,3.19,0,0,1-.69-1.94c0-2.3,2.68-4.17,6-4.17a7.77,7.77,0,0,1,3.57.82c.19-3.87,4.41-7,9.58-7a13,13,0,0,1,1.66.11,9.23,9.23,0,0,1,3.67-5c.51-5.78,5.86-10.33,12.38-10.33A13.3,13.3,0,0,1,695.07,137Z" fill="#eff2ff" fill-rule="evenodd"/><g clip-path="url(#fd041fe2-93a2-4799-9396-589e97014521)"><path d="M693.74,132.37a14.07,14.07,0,0,1,12.74-8.58,14.22,14.22,0,0,1,13.42,10.39,12.07,12.07,0,0,1,2.64-.28,11.33,11.33,0,0,1,10.87,7.26,11.76,11.76,0,0,1,3.22-.45c5.86,0,12.21,3.16,12.21,8.41,0,1.63,1.83,3.57,1,4.91,7.41.76,26.94,7.24,28.63,7.78,2.07.67-21.74-.92-28.19-.42-1.35.11-2.81.93-2.81,1.48,0,5.59-6.69,7.63-14.65,7.63a18.63,18.63,0,0,1-8.53-2,11.76,11.76,0,0,1-17.92.61,14.68,14.68,0,0,1-8.63,2.61,14,14,0,0,1-9.62-3.44,20.26,20.26,0,0,1-9.66,2.19c-7.13,0-12.93-2.93-13-6.55-1.24,2.37-3.29,2.24-7.64,2.16-3.16-.05-31.46.76-32.66,0s11.76-6.45,27.15-7.42a3.19,3.19,0,0,1-.69-1.94c0-2.3,2.68-4.17,6-4.17a7.9,7.9,0,0,1,3.57.82c.19-3.86,4.41-7,9.58-7a13,13,0,0,1,1.66.11,9.19,9.19,0,0,1,3.67-5c.51-5.77,5.86-10.32,12.38-10.32A13.47,13.47,0,0,1,693.74,132.37Z" fill="#eff2ff" fill-rule="evenodd"/></g><path d="M685.07,161a6.69,6.69,0,0,0,12.29,4.72,7.15,7.15,0,0,1-.23.79,6.66,6.66,0,0,1-12.54-4.46A6.25,6.25,0,0,1,685.07,161Z" fill="#eff2ff" fill-rule="evenodd"/><path d="M663.83,159a6.2,6.2,0,0,0,11.26,4.31,6.08,6.08,0,0,1-11.68-3.41A4.63,4.63,0,0,1,663.83,159Z" fill="#eff2ff" fill-rule="evenodd"/><path d="M697.36,146.63a6.68,6.68,0,0,0-11.22,6.88,5.49,5.49,0,0,1-.49-.67,6.65,6.65,0,0,1,11.17-7.23A7.13,7.13,0,0,1,697.36,146.63Z" fill="#eff2ff" fill-rule="evenodd"/><path d="M705.54,162.72a6.68,6.68,0,0,0,12.28,4.72,7.84,7.84,0,0,1-.23.79,6.66,6.66,0,1,1-12.05-5.51Z" fill="#eff2ff" fill-rule="evenodd"/><path d="M712.55,150.87a6.68,6.68,0,0,0-9.32-9.29,6.2,6.2,0,0,1,.53-.64,6.66,6.66,0,0,1,9.65,9.17A7.67,7.67,0,0,1,712.55,150.87Z" fill="#eff2ff" fill-rule="evenodd"/><path d="M731.21,160.93a7.74,7.74,0,0,0-11-10.56,6.06,6.06,0,0,1,.6-.74A7.7,7.7,0,0,1,732.19,160,6.38,6.38,0,0,1,731.21,160.93Z" fill="#eff2ff" fill-rule="evenodd"/><path d="M674.56,69.84a17.43,17.43,0,0,1,13.92-6.58c8.18,0,15,5.21,16.48,12.1,7.61,1.33,13.34,7.08,13.34,14a12.32,12.32,0,0,1-.22,2.28,15.57,15.57,0,0,1,5.75,12,16.17,16.17,0,0,1-11.26,15.08c0,.33,0,.66,0,1,0,8.24-7.65,14.92-17.08,14.92a18.51,18.51,0,0,1-11-3.54,20,20,0,0,1-6,.93,19.64,19.64,0,0,1-9.25-2.29,22.91,22.91,0,0,1-14.41,4.9,22.37,22.37,0,0,1-16.52-6.88c-3.19,2.6-8.16,4.27-13.73,4.27a24,24,0,0,1-11.19-2.6,17.51,17.51,0,0,1-9.49,2.6c-7.34,0-13.34-3.94-13.67-8.88-18.1-.26-35.35-.43-41.28-.73-.06,0,32.15-4.73,35.2-7.28a2.13,2.13,0,0,0,.22-.21,7.19,7.19,0,0,1-.77-3.24c0-4.69,4.58-8.5,10.22-8.5a11.4,11.4,0,0,1,7,2.27c2-2.46,5.79-4.11,10.08-4.11a15,15,0,0,1,6.73,1.52c.2-6.35,6.3-11.46,13.79-11.46a16.56,16.56,0,0,1,2.66.22,10.17,10.17,0,0,1-.11-1.47c0-6.18,5.75-11.19,12.84-11.19a14.81,14.81,0,0,1,4.3.64,12.74,12.74,0,0,1,2.87-6,9.61,9.61,0,0,1,4.29-3.47A17.5,17.5,0,0,1,666.6,68,17.68,17.68,0,0,1,674.56,69.84Z" fill="#eff2ff" fill-rule="evenodd"/><path id="b3ccc0c5-8019-4a8f-a9ad-2cd1d20d854b" data-name="SVGID" d="M674.56,69.84a17.43,17.43,0,0,1,13.92-6.58c8.18,0,15,5.21,16.48,12.1,7.61,1.33,13.34,7.08,13.34,14a12.32,12.32,0,0,1-.22,2.28,15.57,15.57,0,0,1,5.75,12,16.17,16.17,0,0,1-11.26,15.08c0,.33,0,.66,0,1,0,8.24-7.65,14.92-17.08,14.92a18.51,18.51,0,0,1-11-3.54,20,20,0,0,1-6,.93,19.64,19.64,0,0,1-9.25-2.29,22.91,22.91,0,0,1-14.41,4.9,22.37,22.37,0,0,1-16.52-6.88c-3.19,2.6-8.16,4.27-13.73,4.27a24,24,0,0,1-11.19-2.6,17.51,17.51,0,0,1-9.49,2.6c-7.34,0-13.34-3.94-13.67-8.88-18.1-.26-35.35-.43-41.28-.73-.06,0,32.15-4.73,35.2-7.28a2.13,2.13,0,0,0,.22-.21,7.19,7.19,0,0,1-.77-3.24c0-4.69,4.58-8.5,10.22-8.5a11.4,11.4,0,0,1,7,2.27c2-2.46,5.79-4.11,10.08-4.11a15,15,0,0,1,6.73,1.52c.2-6.35,6.3-11.46,13.79-11.46a16.56,16.56,0,0,1,2.66.22,10.17,10.17,0,0,1-.11-1.47c0-6.18,5.75-11.19,12.84-11.19a14.81,14.81,0,0,1,4.3.64,12.74,12.74,0,0,1,2.87-6,9.61,9.61,0,0,1,4.29-3.47A17.5,17.5,0,0,1,666.6,68,17.68,17.68,0,0,1,674.56,69.84Z" fill="#eff2ff" fill-rule="evenodd"/><g clip-path="url(#adc23019-33b6-4ea3-9558-87bc12130152)"><path d="M673,63a17.43,17.43,0,0,1,13.92-6.58c8.19,0,15,5.21,16.49,12.09,7.6,1.33,13.33,7.09,13.33,14a12.24,12.24,0,0,1-.21,2.28,15.61,15.61,0,0,1,5.75,12c0,6.91-4.69,12.81-11.27,15.08,0,.32,0,.66,0,1,0,8.23-7.65,14.92-17.07,14.92a18.55,18.55,0,0,1-11.05-3.55,19.9,19.9,0,0,1-6,.93,19.68,19.68,0,0,1-9.26-2.29,22.88,22.88,0,0,1-14.41,4.91,22.32,22.32,0,0,1-16.51-6.89c-3.2,2.6-8.16,4.27-13.73,4.27a24,24,0,0,1-11.2-2.6,17.48,17.48,0,0,1-9.49,2.6c-7.34,0-9.61-2.22-9.94-7.15-16.85,2.22-40.42,5.3-46.34,5-.06,0,33.49-12.18,36.53-14.72l.23-.21a7.24,7.24,0,0,1-.78-3.25c0-4.69,4.59-8.5,10.23-8.5a11.37,11.37,0,0,1,6.95,2.27c2-2.46,5.79-4.11,10.08-4.11A15.2,15.2,0,0,1,616,96c.2-6.35,6.3-11.45,13.79-11.45a15.49,15.49,0,0,1,2.66.22,9,9,0,0,1-.11-1.48c0-6.17,5.75-11.19,12.83-11.19a14.38,14.38,0,0,1,4.3.65,12.69,12.69,0,0,1,2.87-6,9.66,9.66,0,0,1,4.29-3.47A17.82,17.82,0,0,1,673,63Z" fill="#eff2ff" fill-rule="evenodd"/></g><path d="M697.48,117.32c2.23-3.34,1.25-8.4-2.43-11.78s-8.47-3.87-11.62-1.64a8,8,0,0,1,.63-.81c3-3.28,8.7-3,12.7.69s4.8,9.31,1.79,12.59A6.44,6.44,0,0,1,697.48,117.32Z" fill="#eff2ff" fill-rule="evenodd"/><path d="M616.88,117.13A12.54,12.54,0,0,0,639,106.24a10.76,10.76,0,0,1,.8,1.32,12.49,12.49,0,0,1-22.12,11.57A11.9,11.9,0,0,1,616.88,117.13Z" fill="#eff2ff" fill-rule="evenodd"/><path d="M597.22,109.07c-3.73,1.26-6.08,4.71-5.34,8.11s4.09,5.4,7.85,5.15a7.41,7.41,0,0,1-1,.27c-4.29,1-8.43-1.27-9.24-4.95s2-7.44,6.31-8.38A8.58,8.58,0,0,1,597.22,109.07Z" fill="#eff2ff" fill-rule="evenodd"/><path d="M665.08,114.4c-.62,4.19,2.42,8.5,7.23,10,4.65,1.41,9.4-.32,11.35-3.89a6.74,6.74,0,0,1-.24,1.06c-1.36,4.5-6.71,6.87-11.93,5.29s-8.36-6.52-7-11A7.54,7.54,0,0,1,665.08,114.4Z" fill="#eff2ff" fill-rule="evenodd"/><path d="M683,88.81a10.83,10.83,0,0,0-18.84-10,10.12,10.12,0,0,1,.51-1.24A10.79,10.79,0,0,1,684,87.22,9.83,9.83,0,0,1,683,88.81Z" fill="#eff2ff" fill-rule="evenodd"/></svg>