<?xml version="1.0" encoding="UTF-8"?>
<svg xmlns="http://www.w3.org/2000/svg" width="865.76" height="682.89" viewBox="0 0 865.76 682.89">
  <rect x="50.53" y="552.13" width="764.7" height="0.38" fill="#ebebeb"></rect>
  <rect x="687.95" y="576.74" width="50.65" height="0.38" fill="#ebebeb"></rect>
  <rect x="543.81" y="580.9" width="13.29" height="0.38" fill="#ebebeb"></rect>
  <rect x="657.08" y="562.55" width="29.35" height="0.38" fill="#ebebeb"></rect>
  <rect x="130.76" y="565.12" width="66.06" height="0.38" fill="#ebebeb"></rect>
  <rect x="210.44" y="565.12" width="9.68" height="0.38" fill="#ebebeb"></rect>
  <rect x="251.6" y="571.57" width="143.27" height="0.38" fill="#ebebeb"></rect>
  <path d="M413,483.92H117.68a8.73,8.73,0,0,1-8.71-8.73V60.06a8.73,8.73,0,0,1,8.71-8.66H413a8.73,8.73,0,0,1,8.73,8.74h0V475.19A8.73,8.73,0,0,1,413,483.92ZM117.68,51.71a8.35,8.35,0,0,0-8.33,8.35V475.19a8.35,8.35,0,0,0,8.33,8.35H413a8.36,8.36,0,0,0,8.35-8.35V60.06A8.36,8.36,0,0,0,413,51.71Z" fill="#ebebeb"></path>
  <path d="M743.82,483.92H448.5a8.75,8.75,0,0,1-8.74-8.73V60.06a8.76,8.76,0,0,1,8.74-8.66H743.82a8.75,8.75,0,0,1,8.71,8.66V475.19A8.74,8.74,0,0,1,743.82,483.92ZM448.5,51.71a8.37,8.37,0,0,0-8.36,8.35V475.19a8.37,8.37,0,0,0,8.36,8.35H743.82a8.36,8.36,0,0,0,8.35-8.35V60.06a8.36,8.36,0,0,0-8.35-8.35Z" fill="#ebebeb"></path>
  <rect x="108.97" y="51.71" width="641.22" height="432.21" fill="#f5f5f5"></rect>
  <rect x="592.01" y="114.51" width="126.83" height="150.02" fill="#e0e0e0"></rect>
  <rect x="600.69" y="122.75" width="109.31" height="133" fill="#e6e6e6"></rect>
  <polygon points="617.07 197.75 674.51 141.3 612.36 131.04 617.07 197.75" fill="#e0e0e0"></polygon>
  <polygon points="704.13 191.79 706.98 148.51 663.74 159.12 629.18 192.57 704.13 191.79" fill="#f5f5f5"></polygon>
  <circle cx="666.33" cy="148.51" r="17.47" fill="#fafafa"></circle>
  <path d="M690,197.75a8.47,8.47,0,1,1,8.49,8.46h0A8.48,8.48,0,0,1,690,197.75Z" fill="#e0e0e0"></path>
  <polygon points="661.1 224.06 636.64 209.18 668.09 165.96 661.1 224.06" fill="#f5f5f5"></polygon>
  <rect x="672.09" y="136.13" width="4.8" height="106.2" fill="#e0e0e0"></rect>
  <rect x="680.69" y="138.49" width="6.22" height="101.51" fill="#ebebeb"></rect>
  <polygon points="659.43 240 610.25 203.69 610.25 171.92 642.01 171.92 659.43 240" fill="#fafafa"></polygon>
  <rect x="611.9" y="274.93" width="86.89" height="9.59" fill="#e6e6e6"></rect>
  <rect x="411.85" y="329.79" width="90.46" height="9.59" fill="#e6e6e6"></rect>
  <rect x="362.99" y="78.67" width="188.58" height="234.18" fill="#e0e0e0"></rect>
  <rect x="375.39" y="89.23" width="163.39" height="215.68" fill="#fafafa"></rect>
  <polygon points="428.66 157.38 428.66 252.2 466.44 250.07 470.78 157.38 428.66 157.38" fill="#ebebeb"></polygon>
  <polygon points="461.54 130.52 519.66 130.52 519.15 291.2 489.06 291.67 461.54 130.52" fill="#e0e0e0"></polygon>
  <polygon points="404.95 118.28 420.25 118.28 414.89 286.95 395.78 291.67 404.95 118.28" fill="#e6e6e6"></polygon>
  <rect x="138.38" y="92.13" width="178.91" height="216.46" fill="#ebebeb"></rect>
  <rect x="182.33" y="322.87" width="82.74" height="9.59" fill="#e6e6e6"></rect>
  <rect x="146.38" y="100.56" width="162.88" height="198.21" fill="#e0e0e0"></rect>
  <polygon points="272.35 108.02 155.71 216.11 266.77 227.65 272.35 108.02" fill="#ebebeb"></polygon>
  <polygon points="223.7 200.05 225.51 264.67 301.61 290.07 288.11 193.24 223.7 200.05" fill="#f0f0f0"></polygon>
  <circle cx="193.39" cy="254.96" r="26.02" transform="translate(-123.64 211.42) rotate(-45)" fill="#e6e6e6"></circle>
  <circle cx="270.14" cy="146.59" r="12.62" fill="#f5f5f5"></circle>
  <polygon points="187.26 124.42 301.61 184.42 199.43 187.54 187.26 124.42" fill="#f5f5f5"></polygon>
  <ellipse cx="534.75" cy="614.17" rx="254.4" ry="17.31" fill="#f5f5f5"></ellipse>
  <rect x="513.9" y="403.22" width="116.23" height="34.24" fill="#FFD54F"></rect>
  <g opacity="0.2" style="isolation:isolate">
    <rect x="555.85" y="403.22" width="74.28" height="34.24" fill="#fff"></rect>
  </g>
  <rect x="473.06" y="437.43" width="196.15" height="172.13" fill="#FFD54F"></rect>
  <g opacity="0.4" style="isolation:isolate">
    <rect x="548.77" y="437.43" width="120.44" height="172.13" fill="#fff"></rect>
  </g>
  <polygon points="596.7 231.12 605.66 240.08 623.47 278.44 601.18 403.27 540.22 403.27 520.57 276.6 528.93 245.54 533.93 235.89 524.44 138.51 552.55 135.39 563.53 128 564.2 120.83 553.66 117.01 554.78 75.1 577.6 67.07 594.91 75.32 585.93 121.43 585.26 128 594.07 140.06 613.13 151.86 596.7 231.12" fill="#00796B"></polygon>
  <g opacity="0.4" style="isolation:isolate">
    <polygon points="604.67 158.26 599.16 188.52 604.67 192.67 598.31 223.36 558.59 187.48 582.59 204.22 593.11 196.37 593.11 175.29 604.67 158.26"></polygon>
  </g>
  <g opacity="0.4" style="isolation:isolate">
    <polygon points="537.97 195.02 531.7 187.48 532.59 175.06 526.23 156.79 531.84 214.37 551.64 204.22 558.59 187.48 537.97 195.02"></polygon>
  </g>
  <g opacity="0.4" style="isolation:isolate">
    <polygon points="605.66 240.08 564.2 230.66 568.45 249.04 579.22 248.6 564.64 258.46 558.59 202.87 565.55 223.36 596.7 231.12 605.66 240.08"></polygon>
  </g>
  <g opacity="0.4" style="isolation:isolate">
    <polygon points="572.02 310.02 594.24 281.54 577.2 314.71 601.86 332.65 612.39 254.58 623.47 278.44 610.62 350.37 520.57 276.6 572.02 310.02"></polygon>
  </g>
  <g opacity="0.4" style="isolation:isolate">
    <polygon points="531.84 214.37 536.18 230.66 549.86 226.03 533.93 235.89 531.84 214.37"></polygon>
  </g>
  <g opacity="0.4" style="isolation:isolate">
    <polygon points="585.26 128 585.93 121.43 581.64 128.68 581.64 137.32 566.89 146.16 558.59 141.89 565.99 148.85 592.07 137.32 585.26 128"></polygon>
  </g>
  <g opacity="0.4" style="isolation:isolate">
    <polygon points="563.97 118.14 578.76 115 586.73 91.47 588.14 110.17 579.66 118.92 564.2 120.83 553.66 117.01 563.97 118.14"></polygon>
  </g>
  <g opacity="0.4" style="isolation:isolate">
    <polygon points="563.76 111.64 564.2 116.12 565.73 111.86 572.86 110.17 558.59 110.17 563.76 111.64"></polygon>
  </g>
  <g opacity="0.4" style="isolation:isolate">
    <polygon points="580.57 92.36 570.26 91.47 572.02 93.26 567.34 104.24 565.73 108.28 565.73 104.24 562.18 102.6 568.68 87.43 584.14 87.43 580.57 92.36"></polygon>
  </g>
  <g opacity="0.4" style="isolation:isolate">
    <polygon points="554.46 87.43 554.35 91.47 558.59 92.58 557.24 90.8 562.18 90.8 564.43 87.43 554.46 87.43"></polygon>
  </g>
  <g opacity="0.3" style="isolation:isolate">
    <polygon points="565.73 153.1 524.44 138.51 526.23 156.79 532.59 175.06 532.22 180.22 565.73 167.75 584.14 187.48 578.16 171.93 599.09 150.72 565.73 153.1" fill="#fff"></polygon>
  </g>
  <g opacity="0.3" style="isolation:isolate">
    <polygon points="570.9 120.01 566.89 140.88 565.73 120.63 570.9 120.01" fill="#fff"></polygon>
  </g>
  <g opacity="0.3" style="isolation:isolate">
    <polygon points="557.13 96.5 554.35 94.37 553.89 108.28 560.18 104.47 558.59 103.12 561.77 94.94 557.13 96.5" fill="#fff"></polygon>
  </g>
  <g opacity="0.3" style="isolation:isolate">
    <polygon points="577.09 68.6 557.82 75.88 557.03 81.14 565.73 83.39 582.92 80.93 585.15 75.88 577.09 68.6" fill="#fff"></polygon>
  </g>
  <g opacity="0.3" style="isolation:isolate">
    <polygon points="539.88 261.49 524.44 270.79 558.59 287.15 552.76 263.62 551.08 230.66 539.88 261.49" fill="#fff"></polygon>
  </g>
  <g opacity="0.3" style="isolation:isolate">
    <polygon points="538.31 214.37 538.31 223.36 550.74 208.93 538.31 214.37" fill="#fff"></polygon>
  </g>
  <g opacity="0.3" style="isolation:isolate">
    <polygon points="544.53 305.83 565.32 403.27 546.8 403.27 531.84 295.08 544.53 305.83" fill="#fff"></polygon>
  </g>
  <circle cx="736.24" cy="393.31" r="11.13" fill="#FFD54F"></circle>
  <g opacity="0.5" style="isolation:isolate">
    <circle cx="736.24" cy="393.31" r="11.13" fill="#fff"></circle>
  </g>
  <g opacity="0.5" style="isolation:isolate">
    <path d="M743.2,387.45a2.28,2.28,0,1,1-2.29-2.26h0A2.28,2.28,0,0,1,743.2,387.45Z" fill="#fff"></path>
  </g>
  <rect x="725.23" y="403.27" width="22.02" height="206.3" fill="#FFD54F"></rect>
  <g opacity="0.4" style="isolation:isolate">
    <rect x="725.23" y="403.27" width="22.02" height="206.3" fill="#fff"></rect>
  </g>
  <g opacity="0.3" style="isolation:isolate">
    <rect x="740.37" y="407.31" width="2.42" height="197.17" fill="#fff"></rect>
  </g>
  <circle cx="406.66" cy="393.31" r="11.13" fill="#FFD54F"></circle>
  <g opacity="0.5" style="isolation:isolate">
    <circle cx="406.66" cy="393.31" r="11.13" fill="#fff"></circle>
  </g>
  <g opacity="0.5" style="isolation:isolate">
    <path d="M413.62,387.45a2.3,2.3,0,1,1-2.3-2.29A2.3,2.3,0,0,1,413.62,387.45Z" fill="#fff"></path>
  </g>
  <rect x="395.65" y="403.27" width="22.02" height="206.3" fill="#FFD54F"></rect>
  <g opacity="0.4" style="isolation:isolate">
    <rect x="395.65" y="403.27" width="22.02" height="206.3" fill="#fff"></rect>
  </g>
  <g opacity="0.3" style="isolation:isolate">
    <rect x="410.79" y="407.31" width="2.42" height="197.17" fill="#fff"></rect>
  </g>
  <polygon points="727.99 409.36 716.71 417.55 719.39 421.76 727.99 415.56 727.99 409.36" fill="#FFD54F"></polygon>
  <g opacity="0.2" style="isolation:isolate">
    <polygon points="727.99 409.36 716.71 417.55 719.39 421.76 727.99 415.56 727.99 409.36" fill="#fff"></polygon>
  </g>
  <polygon points="714.82 414.78 721.1 424.07 719.73 425.02 713.36 415.69 714.82 414.78" fill="#FFD54F"></polygon>
  <polygon points="413.62 409.36 424.89 417.55 422.21 421.76 413.62 415.56 413.62 409.36" fill="#FFD54F"></polygon>
  <g opacity="0.2" style="isolation:isolate">
    <polygon points="413.62 409.36 424.89 417.55 422.21 421.76 413.62 415.56 413.62 409.36" fill="#fff"></polygon>
  </g>
  <polygon points="425.53 414.78 419.24 424.07 420.62 425.02 426.98 415.69 425.53 414.78" fill="#FFD54F"></polygon>
  <path d="M426.69,416.11,421,424.54l35.59,15.53a285.87,285.87,0,0,0,233.17-2l29.67-13.55-5.74-8.43-24.8,11.28a286,286,0,0,1-233,1.53Z" fill="#00796B"></path>
  <g opacity="0.05" style="isolation:isolate">
    <path d="M426.69,416.11,421,424.54l35.59,15.53a285.87,285.87,0,0,0,233.17-2l29.67-13.55-5.74-8.43-24.8,11.28a286,286,0,0,1-233,1.53Z" fill="#fff"></path>
  </g>
  <path d="M194.19,91.28s1.65,6.34-.24,11l-1.53-3.59s-1.83-4.1-4.55-6.2A53.54,53.54,0,0,1,194.19,91.28Z" fill="#5a3126"></path>
  <path d="M215.15,526.6s2.26,3,11.66,3.28l-1.59-8.23S217.45,524.37,215.15,526.6Z" fill="#FFD54F"></path>
  <g opacity="0.2">
    <path d="M215.15,526.6s2.26,3,11.66,3.28l-1.59-8.23S217.45,524.37,215.15,526.6Z"></path>
  </g>
  <path d="M125.12,297.79s3.95,2.1,10.72-14.35l-1.74-39.85-19.35,7.35s-6,24.19-5.61,25.93S120.4,297,125.12,297.79Z" fill="#e6e7e8"></path>
  <g opacity="0.2">
    <path d="M125.12,297.79s3.95,2.1,10.72-14.35l-1.74-39.85-19.35,7.35s-6,24.19-5.61,25.93S120.4,297,125.12,297.79Z"></path>
  </g>
  <path d="M125.12,297.79s-9.73-8.21-9.16-50.94L121.11,169S99,172.07,96.89,209.08c0,0-13.55,3.24-13.55,17.55L83.91,276S80.48,303.51,125.12,297.79Z" fill="#e6e7e8"></path>
  <path d="M257.83,514.23s-31.95,4.67-42.68,12.37c0,0-14.47-51.78-12.6-80,0,0-8.86-59.49-16.79-74.18,0,0-6.7,38-19.33,69.09a136,136,0,0,0-5.33,15.81L140.76,532.5s-30.91-1.66-43.15-11.69c0,0,7.39-54.3,22.9-92.88a27,27,0,0,0,1.91-11c-.71-21.1-2.23-92.74,8.87-119.89l4.26-10.66c3.68-1.17,7.3-5.11,7.3-5.11a57.81,57.81,0,0,1,37.8-11l29.43.55s15.33,40,26.07,95.08Z" fill="#FFD54F"></path>
  <path d="M181.93,138.2l.58,8.61s-12.57,2.85-14.67-13.62C167.84,133.19,176,140.39,181.93,138.2Z" fill="#eea186"></path>
  <path d="M211.64,260.28c3.55,10.52-1.56,10.52-1.56,10.52l-29.43-.55a57.81,57.81,0,0,0-37.8,11s-3.62,3.94-7.3,5.11c-3.29,1.07-6.62-.09-7.41-8.28,0-.24,0-.49-.07-.76-1.29-17.78,9.38-59.94,9.38-59.94A36.86,36.86,0,0,0,102,209.68a.06.06,0,0,1-.08-.09l16.51-34.68C126.09,155,147,155.09,147,155.09l21.89-4,14.48,7.68c6.88,5.08,9.54,6.09,9.54,6.09,15.27.75,24.76,44.88,24.76,44.88l-7.44,25.33.31,19.24A20,20,0,0,0,211.64,260.28Z" fill="#00796B"></path>
  <g opacity="0.2">
    <path d="M137.45,217.87a.4.4,0,0,1-.15,0,.5.5,0,0,1-.33-.63l10.19-31.28a.5.5,0,1,1,1,.31l-10.18,31.28A.51.51,0,0,1,137.45,217.87Z"></path>
  </g>
  <path d="M132.94,158.71s18.13,3.44,18.32,24.23l-1,49.25a75.37,75.37,0,0,1-2.88,19.17c-4,14.13-12,38.94-20.19,46.05,0,0,17.55,1.71,24.61-30.72L156.21,251A75.59,75.59,0,0,0,159,230.08l-.47-48.48s.57-22.51-22.13-24.61Z" fill="#e6e7e8"></path>
  <g opacity="0.2">
    <path d="M97.08,296.19a.51.51,0,0,1-.34-.13c-5.45-5.06-5-17.06-4.93-17.56l1-68.29a.51.51,0,0,1,.5-.49h0a.5.5,0,0,1,.49.51l-1,68.3c0,.13-.5,12.05,4.61,16.79a.5.5,0,0,1,0,.71A.48.48,0,0,1,97.08,296.19Z"></path>
  </g>
  <g opacity="0.2">
    <path d="M108.52,234.76H92.92a.5.5,0,0,1,0-1h15.6a.5.5,0,0,1,0,1Z"></path>
  </g>
  <g opacity="0.2">
    <path d="M100.32,205.76h-.08a.48.48,0,0,1-.41-.57c4.76-28,18.09-32.46,18.66-32.64a.5.5,0,0,1,.62.33.51.51,0,0,1-.33.63c-.13,0-13.32,4.49-18,31.84A.49.49,0,0,1,100.32,205.76Z"></path>
  </g>
  <path d="M101.88,209.73s-.81,5.35,8.72,5.35l1.34-7S108,207.64,101.88,209.73Z" fill="#00796B"></path>
  <g opacity="0.2">
    <path d="M101.88,209.73s-.81,5.35,8.72,5.35l1.34-7S108,207.64,101.88,209.73Z"></path>
  </g>
  <g opacity="0.2">
    <path d="M138.67,214a.51.51,0,0,1-.36-.15.5.5,0,0,1,0-.7c.07-.07,6.36-6.43,9.21-14.3a.5.5,0,0,1,.94.35c-2.93,8.08-9.38,14.59-9.44,14.65A.5.5,0,0,1,138.67,214Z"></path>
  </g>
  <path d="M187.08,228.88c-6.69,0-13-2-15-3.1a5.74,5.74,0,0,1-2.75-6.71,13.61,13.61,0,0,1,3.53-5.32c5.81-5.69.92-12.51.71-12.8l.8-.59c.06.08,5.62,7.8-.83,14.11a13,13,0,0,0-3.25,4.9,4.74,4.74,0,0,0,2.28,5.54c2.36,1.34,11.25,4,19.28,2.57l.17,1A29.88,29.88,0,0,1,187.08,228.88Z" fill="#FFD54F"></path>
  <path d="M200,198.8l7.7-.47s-5-32.49-24.75-46.23l.49,6.67s7.73,5.55,12.78,20.27a42.09,42.09,0,0,1,1.59,7Z" fill="#FFD54F"></path>
  <path d="M209.5,209.43a19.52,19.52,0,0,0-1.38-4.15l.89-.45a20.13,20.13,0,0,1,1.47,4.39Z" fill="#FFD54F"></path>
  <g opacity="0.2">
    <path d="M135.74,326.46a.51.51,0,0,1-.43-.26.49.49,0,0,1,.19-.68c23.63-13,21.76-36,21.73-36.26a.5.5,0,0,1,1-.09c0,.23,2,23.86-22.25,37.23A.5.5,0,0,1,135.74,326.46Z"></path>
  </g>
  <g opacity="0.2">
    <path d="M221.76,518.53a.5.5,0,0,1-.49-.4l-11.69-52.88c-1.58-9.26.28-15.52,1.54-18.42a2.58,2.58,0,0,0-.68-2.94l-1.9-1.68a3.59,3.59,0,0,1-1.21-2.66,66.85,66.85,0,0,0-1.92-16.3c-.83-2.78-10.73-65.33-11.15-68a.5.5,0,0,1,.42-.57.51.51,0,0,1,.57.42c.1.65,10.3,65.13,11.12,67.85a68.25,68.25,0,0,1,2,16.57,2.64,2.64,0,0,0,.87,1.93l1.91,1.68a3.56,3.56,0,0,1,.92,4.08c-1.2,2.81-3,8.85-1.47,17.83l11.68,52.87a.49.49,0,0,1-.38.59Z"></path>
  </g>
  <g opacity="0.2">
    <path d="M185.76,372.91a.25.25,0,0,1-.12,0,.5.5,0,0,1-.37-.6c6-23.59,14.92-30.84,15.3-31.14a.5.5,0,0,1,.7.09.5.5,0,0,1-.08.7c-.09.07-9,7.39-14.95,30.59A.49.49,0,0,1,185.76,372.91Z"></path>
  </g>
  <path d="M225.22,521.65l9.41,49,7.79.26a23.93,23.93,0,0,0,13.48-3.65l9.16-5.76-7.23-47.26S240.56,516.21,225.22,521.65Z" fill="#f8d9be"></path>
  <path d="M234.63,570.64s-1.22,10.68-3.12,19.35a13.09,13.09,0,0,1-.48,1.62c-1.09,2.94-4.5,14.24,7.06,14.49l67.24-.44s26.75-1.44,10.7-10c0,0-22.68-7.68-36.14-18.24a20.24,20.24,0,0,1-6.19-8.13c-1.77-4.24-5-10.2-8.64-7.83l-9.16,5.76a23.93,23.93,0,0,1-13.48,3.65Z" fill="#00796B"></path>
  <path d="M135.68,532.05l-5.5,25.23c-19.9,7.57-32.73-5.93-32.73-5.93l6.62-26.59C116.77,530.49,135.68,532.05,135.68,532.05Z" fill="#f8d9be"></path>
  <path d="M163.33,603.32c-.88,4.15-9.08,4.58-17,4a77,77,0,0,1-24.7-6.15L88.12,586.76c-10.92-5.82-5.29-13.39-5.29-13.39,4.58-6.17,14.62-22,14.62-22s11.93,10.93,30.79,4.69a3.19,3.19,0,0,1,3.69,1.28c1.73,2.7,2.19,7,2.24,10.59a21.79,21.79,0,0,0,9.09,17.49A67,67,0,0,0,154,591.51C167.21,596.44,163.33,603.32,163.33,603.32Z" fill="#00796B"></path>
  <path d="M159.81,124.33l-.19,13.27a18.55,18.55,0,0,1-6.13,13.55A16.65,16.65,0,0,1,147,155.1s19.84,5.14,36.37,3.67l-1.47-20.57,1.47-19.1-20.78-2.7Z" fill="#f8d9be"></path>
  <rect x="159.77" y="86.95" width="37.3" height="52.54" rx="18.65" transform="matrix(0.92, -0.4, 0.4, 0.92, -30.49, 81.43)" fill="#f8d9be"></rect>
  <path d="M130.77,103.8l8,9.53s39.36-24.41,68.56-22.74a.71.71,0,0,0,.25-1.4c-3.18-.87-8.35-1.7-16.51-1.7L177.52,73.15a10.08,10.08,0,0,0-9-3.06,15.25,15.25,0,0,0-7.28,3.63,19.39,19.39,0,0,1-12.13,4.74q-.61,0-1.26,0s-12.3-2-9,8.9l3.13,11.17S134.91,100.66,130.77,103.8Z" fill="#00796B"></path>
  <g opacity="0.2">
    <path d="M141.93,98.53l49.17-11L185.83,82s-24.06,6.1-45,12.49Z" fill="#fff"></path>
  </g>
  <path d="M142.93,110.88s-.39,8.28,4.48,15.08a1.67,1.67,0,0,1,0,2c-.63.71-1.95,1.42-4.69,1.29a9.12,9.12,0,0,0-4.77,1,7.31,7.31,0,0,0-3.69,4.62,8.89,8.89,0,0,0,4,9.86c3.09,1.88,7.86,2.81,13.9-2.14,0,0,6-4.2,4.4-13.52l2.93-.31q.59-3.41,1.26-6.92.7-3.68,1.47-7.22a22.61,22.61,0,0,0,2.55-3.91,30.88,30.88,0,0,0,3.1-11.91A202,202,0,0,0,142.93,110.88Z" fill="#5a3126"></path>
  <ellipse cx="157.87" cy="117.82" rx="4.96" ry="6.79" transform="translate(-27.02 49.84) rotate(-16.55)" fill="#f8d9be"></ellipse>
  <path d="M174.4,189l-15.53-45.42s-2.34,5.15-5.38,7.56l12.37,40.32Z" fill="#FFD54F"></path>
  <rect x="215.96" y="213.55" width="36.85" height="31.22" transform="translate(468.77 458.33) rotate(-180)" fill="#FFD54F"></rect>
  <g opacity="0.2">
    <rect x="215.96" y="213.55" width="36.85" height="31.22" transform="translate(468.77 458.33) rotate(-180)"></rect>
  </g>
  <path d="M197.62,222.31v28.12h19.73V218.72a2,2,0,0,1,2-2h10a1.29,1.29,0,0,0,1.29-1.29v-5.15a2.31,2.31,0,0,0-2.32-2.31H206.24l-6.42,5.52v8.79s0,0,0,0h-2.13Z" fill="#FFD54F"></path>
  <path d="M227.47,213.47h3.22v-3.22a2.31,2.31,0,0,0-2.32-2.31A10.63,10.63,0,0,0,227.47,213.47Z" fill="#d1d3d4"></path>
  <g opacity="0.2">
    <path d="M221.9,213.88H204.15a.5.5,0,0,1-.5-.5.5.5,0,0,1,.5-.5H221.9a.5.5,0,0,1,.5.5A.5.5,0,0,1,221.9,213.88Z"></path>
  </g>
  <path d="M250.92,248.09h24.65a1.81,1.81,0,0,0,1.81-1.81V212.51a1.81,1.81,0,0,0-1.81-1.81h-25a1.9,1.9,0,0,0-1.9,1.9v4.07a1.17,1.17,0,0,1-1.17,1.17h-.1a1.17,1.17,0,0,0-1.17,1.17v22a1.17,1.17,0,0,0,1.17,1.17h0a1.18,1.18,0,0,1,1.17,1.15l0,2.56A2.28,2.28,0,0,0,250.92,248.09Z" fill="#FFD54F"></path>
  <g opacity="0.2">
    <path d="M271.59,214.05H252.81a.5.5,0,0,1-.5-.5.5.5,0,0,1,.5-.5h18.78a.51.51,0,0,1,.5.5A.5.5,0,0,1,271.59,214.05Z"></path>
  </g>
  <g opacity="0.2">
    <path d="M271.59,222.21H250.88a.5.5,0,0,1-.5-.5.5.5,0,0,1,.5-.5h20.71a.51.51,0,0,1,.5.5A.5.5,0,0,1,271.59,222.21Z"></path>
  </g>
  <g opacity="0.2">
    <path d="M197.62,222.31H209.2l-11.58,13.28S198.27,222.41,197.62,222.31Z"></path>
  </g>
  <path d="M211.46,259.78a75.39,75.39,0,0,1,7.5-7,8.3,8.3,0,0,1,6.06-1.7c2.17.24,5.09.24,7-1a3.26,3.26,0,0,1,2-.61c3.21.19,11.88-.39,12.76-4.67H243a1.89,1.89,0,0,1-1.89-1.89v-4.59a2.63,2.63,0,0,0-3-2.6h0a2.63,2.63,0,0,0-2.25,2.6V243a1.4,1.4,0,0,1-1.4,1.4h0A1.4,1.4,0,0,1,233,243v-5.66a2.71,2.71,0,0,0-2.71-2.71h0a2.71,2.71,0,0,0-2.71,2.71v6.2a1,1,0,0,1-1,1h0a1,1,0,0,1-1-1v-3.17a2.17,2.17,0,0,0-2.17-2.17h0a2.17,2.17,0,0,0-2.17,2.17v4.18l-3.85-.32a26.29,26.29,0,0,0-7.1,4.12l.35,7A13.81,13.81,0,0,0,211.46,259.78Z" fill="#f8d9be"></path>
  <path d="M111.94,208.06S98.53,263,124,271.18c0,0,5,1.49,28.68-4.47l37.61-9.49s10.8-1.68,15.83-6c0,0,6.9-5.55,11.26-6.74a2.86,2.86,0,0,0,1.76-1.37,1.71,1.71,0,0,0-.34-2.13,3.17,3.17,0,0,0-3-.85l-3.93.85s-2.05-1.49,1.31-3c0,0,9.12-2.61,5.4-7.08,0,0,2-5-.86-6.72a3.3,3.3,0,0,0-3.17,0l-5.7,2.92a1.44,1.44,0,0,1-1.93-.6h0a1.45,1.45,0,0,1,.49-1.9l8.74-5.59a2.27,2.27,0,0,0,.59-3.27h0a2.27,2.27,0,0,0-3.13-.49l-14.4,10.26s-4.47,2.79-2.61-2.05c0,0,1.23-3.67.4-6.35a.89.89,0,0,0-1.66-.11c-1,2.1-2.89,5.83-4.69,7.77A15.38,15.38,0,0,0,188.66,238S149,242.69,136,241.76c0,0,0-16,1.49-24.39C137.45,217.37,129.45,207.56,111.94,208.06Z" fill="#f8d9be"></path>
  <path d="M211.19,234.81a.5.5,0,0,1-.21-.95l7.45-3.36a.5.5,0,0,1,.41.92l-7.45,3.35A.45.45,0,0,1,211.19,234.81Z" fill="#eea186"></path>
  <path d="M205.6,248.41h0a.5.5,0,0,1-.46-.53c.32-4-1.34-5.77-2.79-6.55a3.87,3.87,0,0,1-2-3.11c-.37-5-3.76-6.4-3.79-6.41a.5.5,0,0,1-.28-.65.49.49,0,0,1,.65-.28c.16.06,4,1.66,4.42,7.26a2.86,2.86,0,0,0,1.52,2.31c1.71.92,3.67,3,3.31,7.5A.5.5,0,0,1,205.6,248.41Z" fill="#eea186"></path>
  <path d="M127.13,245.73a.51.51,0,0,1-.42-.23.5.5,0,0,1,.15-.69,37.15,37.15,0,0,1,8.83-3.91.5.5,0,0,1,.61.35.49.49,0,0,1-.34.61,37.3,37.3,0,0,0-8.56,3.79A.5.5,0,0,1,127.13,245.73Z" fill="#eea186"></path>
  <path d="M164.31,191.86l11.9-3.37a16.14,16.14,0,0,1,1.92,5.5c.83,6.3-7,9.93-11.12,5.09A13.25,13.25,0,0,1,164.31,191.86Z" fill="#00796B"></path>
  <path d="M199.52,198.77l8.28-.6a1.62,1.62,0,0,1,1.7,1.28l.63,3a2.89,2.89,0,0,1-2.41,3.45h0a2.86,2.86,0,0,1-2.37-.73l-6.1-5.6A.45.45,0,0,1,199.52,198.77Z" fill="#00796B"></path>
  <g opacity="0.2">
    <path d="M164.31,191.86l11.9-3.37a16.14,16.14,0,0,1,1.92,5.5c.83,6.3-7,9.93-11.12,5.09A13.25,13.25,0,0,1,164.31,191.86Z"></path>
    <path d="M199.52,198.77l8.28-.6a1.62,1.62,0,0,1,1.7,1.28l.63,3a2.89,2.89,0,0,1-2.41,3.45h0a2.86,2.86,0,0,1-2.37-.73l-6.1-5.6A.45.45,0,0,1,199.52,198.77Z"></path>
  </g>
  <path d="M180.43,106.17a.54.54,0,0,1-.28-.08c-2.83-1.89-7.4-1.91-7.44-1.91a.5.5,0,1,1,0-1c.2,0,4.91,0,8,2.07a.51.51,0,0,1,.14.7A.5.5,0,0,1,180.43,106.17Z" fill="#5a3126"></path>
  <path d="M189.14,103.68a.5.5,0,0,1-.18-1,13.62,13.62,0,0,1,6.24-.77.51.51,0,0,1,.41.58.51.51,0,0,1-.59.41,12.6,12.6,0,0,0-5.7.72A.57.57,0,0,1,189.14,103.68Z" fill="#5a3126"></path>
  <ellipse cx="178.06" cy="110.03" rx="1.87" ry="2.86" transform="translate(-20.84 44.84) rotate(-13.57)" fill="#5a3126"></ellipse>
  <ellipse cx="192.94" cy="107.59" rx="1.87" ry="2.86" transform="translate(-19.85 48.26) rotate(-13.57)" fill="#5a3126"></ellipse>
  <path d="M181.41,121.2l9-.09S186.82,130.48,181.41,121.2Z" fill="#fff"></path>
  <path d="M186.28,116.28a.5.5,0,0,1-.15-1l2.59-.82-3.7-7.41a.5.5,0,0,1,.89-.45l4,7.94a.48.48,0,0,1,0,.42.48.48,0,0,1-.31.28l-3.15,1A.39.39,0,0,1,186.28,116.28Z" fill="#e59177"></path>
  <path d="M158.7,120.62h-.1a2.68,2.68,0,0,1-1.09-.48,2.42,2.42,0,0,1-.92-2.51,1.87,1.87,0,0,1,1.61-1.39,1.32,1.32,0,0,0-.78-.72c-.51-.1-1,.43-1.06.44a.5.5,0,0,1-.72-.7,2.41,2.41,0,0,1,2-.72c.78.16,1.39.83,1.84,2a.51.51,0,0,1-.08.49.53.53,0,0,1-.47.18c-.11,0-1.13-.14-1.34.65a1.41,1.41,0,0,0,.54,1.46,1.86,1.86,0,0,0,.7.32.49.49,0,0,1,.39.59A.5.5,0,0,1,158.7,120.62Z" fill="#eea186"></path>
</svg>
