<?xml version="1.0" encoding="UTF-8"?>
<svg xmlns="http://www.w3.org/2000/svg" id="a" width="865.76" height="682.89" viewBox="0 0 865.76 682.89">
  <g>
    <g>
      <path d="M772.29,451.2v.02c-.48,1.23-.97,2.44-1.48,3.63-11.79,27.83-31.37,48.56-54.13,64.01-68.15,46.3-164.66,45.13-164.66,45.13-109.31,.17-120.97-48.68-207.48-21.25-.51,.16-1.02,.32-1.53,.49-27.84,9.03-56.67,13.97-85.71,14.4-65.23,.95-172.32-17.46-175.37-102.78-.69-19.29,3.93-41.99,15.56-68.67,.72-1.66,1.52-3.28,2.38-4.85,12.16-22.46,35.68-37.44,19.21-83-2.04-5.63-2.69-11.52-3.65-17.13-.44-2.53-.82-5.04-1.15-7.52-.09-.66-.18-1.32-.27-1.98-.05-.4-.1-.81-.15-1.23-1.54-12.88-1.7-25.89-.46-38.81,2.31-23.46,9.39-44.62,20.04-63.26,4.48-7.85,9.6-15.25,15.25-22.2,37.93-46.55,100.22-72.4,159.75-73.04,2.38-.03,4.76-.01,7.14,.04,.78,.02,1.55,.04,2.32,.07,1.22,.04,2.43,.09,3.64,.16,6.39,.34,12.71,.98,18.96,1.92,2.29,.34,4.58,.73,6.83,1.16,1.85,.36,3.69,.74,5.52,1.13,2.67,.59,5.31,1.24,7.94,1.95,1.13,.31,2.25,.62,3.37,.95,11.4,3.29,22.39,7.87,32.76,13.65,3.85,2.15,7.59,4.49,11.23,7,5.7,3.93,11.09,8.3,16.12,13.06,8.26,7.83,15.46,16.72,21.42,26.42,9.94,16.24,22.59,30.64,37.41,42.6,1.1,.89,2.21,1.76,3.32,2.61,2.04,1.55,4.09,3.05,6.15,4.48,40.59,28.21,72.17-7.41,91.83-15.59,102.16-42.46,197.5,68.21,204.21,134.4,4.53,44.68-2.96,107.77-16.33,142Z" fill="#f1f2f2"></path>
      <path d="M552.44,564.51c-.25,0-.39,0-.42,0-.19,0-.38,0-.57,0-48.46,0-77.34-9.52-102.84-17.92-31.36-10.34-56.13-18.51-103.92-3.35-.5,.16-1.01,.32-1.52,.49-28.23,9.15-57.11,14-85.86,14.42-19.39,.28-69.09-1.01-111.21-19.08-41.55-17.83-63.31-46.15-64.67-84.19-.73-20.29,4.52-43.47,15.6-68.89,.71-1.62,1.49-3.22,2.4-4.89,2.6-4.8,5.77-9.34,8.84-13.74,11.42-16.34,23.22-33.24,10.34-68.85-1.66-4.58-2.41-9.32-3.14-13.91-.18-1.11-.35-2.21-.54-3.31-.44-2.52-.82-5.06-1.15-7.54l-.27-1.98c-.05-.41-.1-.82-.15-1.24-1.54-12.9-1.7-25.99-.46-38.92,2.23-22.66,9-44.01,20.11-63.46,4.41-7.72,9.56-15.21,15.3-22.26,36.26-44.5,97.62-72.56,160.13-73.22,2.4-.03,4.8-.01,7.16,.04,.77,.02,1.53,.04,2.29,.07,1.26,.04,2.47,.1,3.69,.16,6.37,.34,12.76,.99,19.01,1.93,2.23,.33,4.54,.72,6.85,1.16,1.86,.36,3.7,.74,5.53,1.14,2.66,.59,5.34,1.25,7.96,1.95,1.13,.31,2.26,.62,3.38,.95,11.41,3.3,22.47,7.9,32.86,13.69,3.84,2.15,7.64,4.52,11.27,7.03,5.7,3.93,11.14,8.34,16.18,13.11,8.29,7.87,15.53,16.79,21.5,26.53,9.93,16.23,22.48,30.52,37.3,42.48,1.1,.89,2.21,1.76,3.31,2.61,1.99,1.52,4.05,3.02,6.13,4.47,31.32,21.77,57.42,5.08,76.48-7.11,5.62-3.59,10.48-6.7,14.87-8.53,47.7-19.83,89.63-4.94,116.41,11.04,23.06,13.76,44.81,34.41,61.23,58.14,15.57,22.49,25.24,45.8,27.25,65.63,4.45,43.89-2.88,107.62-16.32,142.15l-.03,.11c-.48,1.23-.97,2.45-1.48,3.65-10.8,25.49-29.07,47.1-54.31,64.23-65.22,44.31-157.49,45.22-164.53,45.22Zm-.42-1c.98,.02,97.14,.64,164.38-45.04,25.08-17.03,43.23-38.49,53.95-63.8,.49-1.16,.97-2.34,1.44-3.53l.03-.11c13.42-34.38,20.73-97.98,16.29-141.77-3.69-36.38-35.78-91.86-88-123.01-26.58-15.86-68.2-30.64-115.52-10.98-4.32,1.8-9.14,4.88-14.72,8.45-19.29,12.34-45.72,29.23-77.59,7.09-2.09-1.45-4.16-2.96-6.17-4.49-1.11-.86-2.23-1.73-3.33-2.62-14.9-12.03-27.52-26.41-37.52-42.73-5.93-9.66-13.1-18.52-21.33-26.32-5-4.73-10.4-9.11-16.06-13.02-3.61-2.49-7.37-4.84-11.19-6.98-10.33-5.75-21.31-10.33-32.65-13.6-1.12-.33-2.24-.64-3.36-.95-2.61-.7-5.27-1.36-7.91-1.94-1.82-.39-3.66-.77-5.51-1.13-2.3-.44-4.59-.83-6.81-1.15-6.22-.94-12.58-1.58-18.92-1.92-1.21-.06-2.42-.11-3.63-.16-.8-.02-1.56-.05-2.32-.07-2.34-.06-4.74-.07-7.12-.04-62.22,.66-123.29,28.58-159.36,72.85-5.71,7.01-10.83,14.46-15.21,22.13-11.04,19.33-17.76,40.54-19.98,63.06-1.23,12.85-1.08,25.87,.46,38.7,.05,.42,.1,.82,.15,1.22l.27,1.98c.32,2.47,.71,4.99,1.14,7.51,.19,1.1,.36,2.21,.54,3.32,.72,4.54,1.46,9.24,3.09,13.73,13.06,36.1,1.11,53.22-10.46,69.76-3.05,4.37-6.21,8.89-8.78,13.64-.89,1.64-1.67,3.22-2.36,4.81-11.02,25.29-16.24,48.32-15.52,68.46,1.34,37.61,22.9,65.64,64.07,83.3,41.93,17.99,91.45,19.28,110.8,19,28.65-.42,57.44-5.26,85.56-14.38,.51-.17,1.02-.33,1.53-.49,48.1-15.25,73-7.04,104.54,3.35,25.42,8.38,54.23,17.87,102.53,17.87,.19,0,.38,0,.56,0Z" fill="#231f20"></path>
    </g>
    <g>
      <path d="M99.87,381.34c12.16-22.46,35.68-37.44,19.21-83-2.04-5.63-2.69-11.52-3.65-17.13-.44-2.53-.82-5.04-1.15-7.52-.09-.66-.18-1.32-.27-1.98-.05-.4-.1-.81-.15-1.23-1.54-12.88-1.7-25.89-.46-38.81,2.31-23.46,9.39-44.62,20.04-63.26,5.92,.52,11.7,2.12,17.1,4.98,14.18,7.54,23.32,22.36,27.59,37.82,4.27,15.47,4.28,31.75,4.25,47.8,5.43-6.23,15.04-8.39,22.6-5.07,7.56,3.32,12.5,11.84,11.6,20.05,4.26-14.16,21.14-22.08,35.61-19.03,14.47,3.04,25.93,14.94,31.65,28.57,5.66,13.47,6.44,28.48,5.77,43.08,.66-9.16,13.59-13.84,21.52-8.93,8.08,5,10.75,15.82,9.41,25.23,9.73-12.45,27.66-17.73,42.58-12.53,14.93,5.2,25.71,20.49,25.58,36.28,4.81-11.42,18.87-17.24,30.97-14.6,12.1,2.64,21.83,12.38,26.76,23.75,.77,1.79,1.39,3.63,1.86,5.52H99.87Z" fill="#fff"></path>
      <path d="M448.95,381.83H99.03l.4-.74c2.6-4.8,5.77-9.34,8.84-13.74,11.42-16.34,23.22-33.24,10.34-68.85-1.66-4.58-2.41-9.32-3.14-13.91-.18-1.11-.35-2.21-.54-3.31-.44-2.52-.82-5.06-1.15-7.54l-.27-1.98c-.05-.41-.1-.82-.15-1.24-1.54-12.9-1.7-25.99-.46-38.92,2.23-22.66,9-44.01,20.11-63.46l.16-.28,.32,.03c6.19,.55,12.01,2.24,17.29,5.04,12.89,6.86,23.04,20.75,27.84,38.13,4.21,15.24,4.29,31.19,4.27,46.67,5.71-5.71,14.87-7.52,22.3-4.26,6.89,3.02,11.59,10.08,11.98,17.52,5.42-12.11,20.74-19.56,35.13-16.53,13.46,2.83,25.73,13.89,32.01,28.87,5.58,13.3,6.24,28.07,5.95,39.19,1.16-2.23,3.13-4.13,5.76-5.47,5.01-2.56,11.05-2.48,15.38,.2,8.44,5.22,10.57,15.83,9.84,24.03,10.07-11.67,27.47-16.45,42.06-11.37,14.48,5.04,25.08,19.4,25.87,34.66,5.41-10.01,18.41-15.66,30.62-12.99,11.37,2.48,21.76,11.69,27.11,24.03,.78,1.81,1.41,3.69,1.88,5.6l.15,.62Zm-348.23-1H447.66c-.44-1.64-1-3.26-1.67-4.82-5.22-12.05-15.34-21.04-26.41-23.46-12.52-2.73-25.87,3.55-30.4,14.31l-.98,2.33,.02-2.53c.12-15.61-10.5-30.67-25.25-35.81-14.74-5.13-32.41,.07-42.03,12.37l-1.15,1.48,.27-1.86c1.16-8.08-.55-19.4-9.17-24.74-4.04-2.5-9.69-2.57-14.4-.16-3.79,1.93-6.1,5.1-6.36,8.7l-1-.06c.52-11.3,.5-28.04-5.73-42.87-6.16-14.68-18.15-25.51-31.3-28.28-15-3.15-31.04,5.4-35.03,18.69l-.98-.2c.87-7.93-3.99-16.33-11.31-19.54-7.31-3.21-16.78-1.08-22.03,4.94l-.88,1.01v-1.34c.03-15.8,.06-32.14-4.23-47.67-4.73-17.12-14.69-30.79-27.34-37.52-5.07-2.69-10.65-4.33-16.59-4.9-10.95,19.25-17.62,40.37-19.82,62.79-1.23,12.85-1.08,25.87,.46,38.7,.05,.42,.1,.82,.15,1.22l.27,1.98c.32,2.47,.71,4.99,1.14,7.51,.19,1.1,.36,2.21,.54,3.32,.72,4.54,1.46,9.24,3.09,13.73,13.06,36.1,1.11,53.22-10.46,69.76-2.89,4.14-5.88,8.42-8.38,12.9Z" fill="#231f20"></path>
    </g>
    <g>
      <path d="M318.53,162.32c-1.83-10.99,14.98-18.38,18.34-9.86,1.12-12.11,15.24-16.36,17.26-6.5,.67-11.43,30.43-32.5,37.08-4.04-2.78-27.8,41.42-37.88,33.33-.67,14.54-7.84,26.53,10.09,11.01,21.07h-117.01Zm-104.95,50.01c.81-4.85-6.6-8.08-8.08-4.34-.5-5.33-6.71-7.21-7.6-2.86-.29-5.03-13.4-14.31-16.33-1.78,1.23-12.24-18.23-16.68-14.67-.3-6.41-3.45-11.68,4.44-4.85,9.28h51.53Z" fill="#00796B"></path>
      <path d="M214.01,212.83h-52.11l-.13-.09c-3.79-2.68-4.05-6.21-2.62-8.51,1.21-1.95,3.88-3.31,7.08-2.04-.97-5.69,1.04-8.16,2.38-9.14,2.14-1.57,5.38-1.52,8.25,.12,2.29,1.3,4.58,3.84,5.15,7.39,1.76-3.7,4.66-4.1,6.43-3.95,4.1,.35,8.31,3.89,9.58,6.95,.63-.91,1.63-1.4,2.82-1.33,2,.11,4.2,1.78,4.94,4.48,.87-.81,2.22-1.07,3.73-.64,2.64,.74,5.08,3.31,4.57,6.35l-.07,.42Zm-51.79-1h50.92c.13-2.3-1.8-4.22-3.9-4.8-.59-.17-2.59-.57-3.27,1.15l-.77,1.94-.19-2.08c-.27-2.88-2.36-4.71-4.22-4.81-1.25-.07-2.12,.66-2.39,2l-.77,3.75-.22-3.82c-.16-2.82-4.88-7.2-9.05-7.56-3.17-.27-5.33,1.76-6.28,5.86l-.98-.16c.46-4.58-2.14-7.79-4.72-9.27-2.53-1.45-5.34-1.52-7.16-.18-2.1,1.54-2.75,4.77-1.81,9.1l.23,1.06-.96-.52c-3.03-1.63-5.58-.49-6.67,1.26-1.17,1.88-.92,4.78,2.22,7.08Zm155.89-49.01l-.07-.42c-1.09-6.55,4.2-12.12,9.95-13.72,3.75-1.04,6.91-.2,8.6,2.19,1.25-6.54,6.32-10.63,10.9-10.88,3-.15,5.34,1.27,6.52,3.91,2.08-6.93,12.19-15.87,21.69-16.68,4.15-.35,11.24,.72,14.92,10.89,.48-9.15,6.07-15.61,11.64-18.78,6.31-3.6,13.39-3.72,18.04-.31,5.16,3.79,6.9,11.33,4.95,21.3,7.41-3.49,13.63-.51,16.38,3.92,3.09,4.98,2.5,12.62-5.78,18.48l-.13,.09h-117.6Zm12.87-13.55c-.92,0-1.84,.14-2.72,.39-5.2,1.44-10,6.35-9.29,12.17h116.42c7.62-5.47,8.2-12.49,5.38-17.05-2.62-4.23-8.75-7-15.99-3.09l-.96,.52,.23-1.06c2.19-10.07,.65-17.64-4.35-21.3-4.33-3.18-10.99-3.03-16.95,.37-6.04,3.45-12.11,10.95-11.04,21.66l-.98,.16c-2.85-12.22-9.69-14.25-14.94-13.8-10.02,.86-20.75,11.06-21.15,17.76l-.22,3.81-.77-3.74c-.68-3.34-2.99-5.23-6.1-5.06-4.5,.25-9.54,4.62-10.17,11.51l-.19,2.09-.77-1.95c-.98-2.49-3.16-3.38-5.43-3.38Z" fill="#231f20"></path>
    </g>
    <g>
      <path d="M782.3,597.46c-182.68,74.63-256.72,10.18-365.77,4.9-169.15-8.18-280.55,58.77-372.16-19.62-66.99-57.32,5.43-139.73,37.36-145.96,72.36,78.58,224.12,84.27,339.71,84.27,102.02,0,291.55-47.19,354.95-79.84,38.28-5.37,75.35,127.88,5.92,156.25Z" fill="#FFD54F"></path>
      <path d="M620.12,633.79c-42.71,0-78.62-8.17-113.94-16.2-29.84-6.78-58.02-13.19-89.68-14.72-62-3-116.52,4.14-164.62,10.44-83.62,10.95-149.67,19.6-207.85-30.18-30.26-25.89-30.31-55.25-25.02-75.32,9.9-37.58,44.24-67.92,62.61-71.5l.27-.05,.19,.21c68.06,73.92,203.32,84.11,339.34,84.11,99.12,0,289.94-46.42,354.72-79.78l.16-.05c15.4-2.17,32.05,18.19,40.5,49.48,5.75,21.32,6.49,44.09,2.01,62.46-5.39,22.1-17.95,37.75-36.33,45.26l-.19-.46,.19,.46c-66.14,27.02-117.94,35.86-162.37,35.86Zm-233.2-32.63c9.69,0,19.56,.22,29.63,.71,31.75,1.54,59.97,7.95,89.85,14.75,71.92,16.35,146.29,33.26,275.71-19.62,18.07-7.38,30.43-22.8,35.74-44.57,4.44-18.21,3.71-40.8-2-61.97-8.29-30.73-24.45-50.76-39.31-48.76-31.01,15.95-93.47,35.94-163.03,52.17-75.42,17.6-145.43,27.69-192.07,27.69-57.81,0-125.14-1.51-186.16-12.67-70.96-12.99-121.25-36.39-153.73-71.55-18.19,3.78-51.81,33.7-61.56,70.72-5.22,19.79-5.16,48.76,24.7,74.31,57.84,49.49,123.69,40.87,207.07,29.95,40.33-5.28,85.17-11.15,135.16-11.15Z" fill="#231f20"></path>
    </g>
    <g>
      <path d="M776.36,435.98c10.98-20.82,9.65-42.42,10.77-50.57,0,0-580.41-3.53-686.54-3.53-23.84,35.68-17.73,76.5-17.73,76.5,0,0,10.51,17.77,38.34,34.77,20.6,12.59,48.42,10.35,84.94,12.73,12.88,2.9,26.03,4.78,38.9,7.57,5.81,1.26,13.58,1.73,18.8,5.09,6.02,3.87,9.26,7.69,16.85,9.22,9.12,1.84,21.08,4.5,30.43,2.69,9.91-1.91,18.22-7.21,26.86,.54,8.5,7.62,14.58,12.89,25.95,14.79,6.16,1.03,14.59,2.72,20.79,1.58,1.89-.34,3.26-1.76,5.05-2.33,5.27-1.7,11.85-1.04,17.24-.89,13.58,.39,27.42,3.09,41.01,4.48,2.13,.22,6.48,1.68,8.57,.78,1.51-.65,1.37-1.62,2.63-2.63,3.54-2.9,6.98-8.35,11.19-10.77,8.16-4.69,23.33-2.22,32.43-2.72,3.51-.19,6.98-1.57,10.28-1.8,3.56-.25,7.21,1.02,10.8,1.23,5.4,.32,10.82,.26,16.22-.18,8.52-.74,17.81-1.02,26.2-2.66,5.32-1.04,7.45-5.33,11.31-9.75,2.72-3.11,6.19-5.35,8.79-8.5,.76-.93,1.11-3.27,2.05-4.02,5.73-4.55,17.55-3.3,24.56-4.19,9.32-1.18,18.28-3.2,27.34-5.84,6.57-1.91,13.91-4.96,20.83-3.83,8.7,1.42,16.43,3.88,25.64,4.19,7.79,.27,16.29-2.25,22.68-7.27,4.95-3.89,11.41-9.86,15.84-15.4,12.79-4.02,22.87-9.36,30.82-15.47,7.83-2.18,14.88-4.37,21.3-10.43,3.51-3.32,4.52-6.51,2.22-10.59-.99-1.75-2.11-2.58-3.32-2.79Z" fill="#00796B"></path>
      <path d="M454.81,550.19c-1.41,0-3.06-.34-4.58-.66-.86-.18-1.67-.35-2.27-.41-4.88-.5-9.87-1.18-14.69-1.84-8.65-1.18-17.59-2.39-26.28-2.64-.89-.02-1.81-.06-2.76-.1-4.68-.2-10-.42-14.31,.97-.73,.24-1.4,.63-2.1,1.04-.92,.54-1.87,1.1-3.01,1.31-5.67,1.05-13.09-.23-19.05-1.25l-1.91-.32c-11.75-1.96-18.12-7.68-26.2-14.91-6.49-5.81-12.7-4.07-19.9-2.05-2.1,.59-4.27,1.2-6.53,1.63-8.88,1.72-20.01-.54-28.95-2.35l-1.67-.34c-5.68-1.14-8.93-3.52-12.7-6.27-1.34-.98-2.73-2-4.32-3.02-3.82-2.46-9.18-3.36-13.92-4.16-1.67-.28-3.24-.55-4.72-.87-6.09-1.32-12.35-2.46-18.41-3.56-6.74-1.22-13.71-2.49-20.5-4.02-7.96-.51-15.5-.81-22.79-1.09-25.77-1.01-46.13-1.81-62.3-11.69-27.61-16.87-38.4-34.76-38.51-34.94l-.06-.18c-.06-.41-5.87-41.42,17.81-76.85l.15-.22h.27c104.92,0,680.74,3.49,686.54,3.53h.57s-.08,.57-.08,.57c-.23,1.66-.36,3.96-.51,6.61-.57,10.17-1.53,27.13-10.02,43.57,1.17,.41,2.17,1.35,3.02,2.87,2.3,4.07,1.58,7.53-2.31,11.2-6.32,5.96-13.15,8.21-21.42,10.52-8.45,6.48-18.8,11.67-30.75,15.44-4.68,5.83-11.23,11.75-15.82,15.36-6.24,4.9-14.85,7.66-23,7.38-6.17-.2-11.79-1.39-17.22-2.54-2.74-.58-5.58-1.18-8.48-1.65-5.54-.91-11.34,.92-16.95,2.69-1.24,.39-2.46,.78-3.66,1.12-9.77,2.84-18.74,4.76-27.42,5.85-1.96,.25-4.29,.33-6.75,.42-6.35,.22-13.55,.48-17.56,3.67-.42,.33-.75,1.22-1.04,2-.28,.75-.55,1.46-.94,1.94-1.38,1.68-3.03,3.12-4.62,4.51-1.43,1.25-2.91,2.54-4.18,4-.84,.97-1.6,1.93-2.34,2.86-2.64,3.34-4.92,6.22-9.25,7.06-6.17,1.2-12.83,1.67-19.27,2.13-2.36,.17-4.7,.33-6.98,.53-5.4,.44-10.88,.51-16.29,.18-1.5-.09-3.03-.36-4.51-.62-2.06-.37-4.19-.75-6.22-.61-1.55,.11-3.12,.47-4.78,.86-1.79,.41-3.64,.84-5.51,.94-2.62,.14-5.73,.04-9.02-.06-8.2-.27-17.48-.56-23.19,2.72-2.42,1.4-4.61,3.86-6.73,6.24-1.5,1.69-2.92,3.29-4.39,4.49-.47,.38-.72,.75-.97,1.13-.38,.56-.76,1.14-1.77,1.57-.56,.24-1.23,.33-1.97,.33Zm-55.87-6.8c1.81,0,3.61,.08,5.33,.15,.94,.04,1.86,.08,2.75,.1,8.74,.25,17.71,1.47,26.38,2.65,4.82,.65,9.8,1.33,14.66,1.83,.65,.07,1.49,.24,2.37,.43,2.05,.43,4.61,.96,5.94,.39,.74-.32,.99-.69,1.33-1.21,.27-.41,.59-.87,1.17-1.35,1.41-1.15,2.8-2.72,4.28-4.38,2.17-2.44,4.41-4.96,6.97-6.44,5.95-3.42,15.39-3.12,23.72-2.85,3.27,.11,6.36,.21,8.94,.06,1.78-.1,3.59-.52,5.33-.92,1.63-.38,3.31-.77,4.93-.88,2.16-.15,4.35,.24,6.47,.62,1.45,.26,2.95,.53,4.39,.61,5.36,.32,10.79,.26,16.15-.18,2.29-.2,4.63-.37,7-.53,6.41-.45,13.04-.92,19.15-2.11,3.96-.77,6.04-3.39,8.66-6.7,.74-.94,1.51-1.91,2.37-2.89,1.32-1.51,2.82-2.82,4.28-4.1,1.56-1.36,3.17-2.78,4.5-4.39,.28-.35,.53-1.01,.77-1.65,.35-.95,.72-1.93,1.36-2.44,4.27-3.39,11.65-3.65,18.15-3.88,2.44-.09,4.74-.17,6.66-.41,8.63-1.09,17.54-2.99,27.26-5.82,1.19-.35,2.4-.73,3.64-1.12,5.72-1.8,11.63-3.67,17.41-2.72,2.92,.48,5.77,1.08,8.52,1.66,5.64,1.19,10.96,2.32,17.05,2.52,7.94,.27,16.29-2.41,22.35-7.17,4.58-3.6,11.12-9.52,15.76-15.32l.09-.12,.15-.05c11.94-3.75,22.26-8.93,30.67-15.39l.17-.08c8.17-2.28,14.92-4.49,21.09-10.31,3.55-3.35,4.18-6.33,2.12-9.98-.86-1.52-1.83-2.35-2.97-2.55l-.68-.12,.32-.61c8.66-16.42,9.63-33.51,10.2-43.71,.13-2.39,.25-4.49,.44-6.12-21.02-.13-581.53-3.52-685.7-3.52-22.72,34.2-17.82,73.58-17.52,75.83,.83,1.34,11.7,18.37,38.12,34.52,15.95,9.75,36.19,10.54,61.82,11.55,7.3,.29,14.84,.58,22.89,1.11,6.85,1.53,13.8,2.8,20.54,4.02,6.06,1.1,12.33,2.24,18.44,3.56,1.45,.32,3.02,.58,4.67,.86,4.83,.81,10.3,1.74,14.29,4.3,1.61,1.04,3.01,2.06,4.37,3.05,3.67,2.68,6.85,5,12.31,6.1l1.68,.34c8.85,1.8,19.87,4.03,28.56,2.35,2.22-.43,4.37-1.03,6.45-1.62,7.17-2.01,13.94-3.91,20.84,2.27,8.27,7.41,14.24,12.76,25.7,14.67l1.91,.33c5.89,1.01,13.21,2.27,18.7,1.25,.97-.18,1.8-.67,2.69-1.19,.72-.42,1.46-.86,2.3-1.13,2.87-.93,6.11-1.17,9.32-1.17Z" fill="#231f20"></path>
    </g>
    <g>
      <path d="M288.5,114.77s-12.15,7.49-13.13,11.79c-.98,4.3,6.73,16.31,6.73,16.31,0,0-14.2,1.45-16.97,4.9-2.77,3.45-1.02,17.62-1.02,17.62,0,0-13.43-4.83-17.4-2.91-3.97,1.92-8.56,15.43-8.56,15.43,0,0-9.99-10.2-14.41-10.2s-14.41,10.2-14.41,10.2c0,0-4.58-13.51-8.56-15.43s-17.41,2.91-17.41,2.91c0,0,1.73-14.17-1.02-17.62-2.75-3.45-16.97-4.9-16.97-4.9,0,0,7.71-12.01,6.73-16.31s-13.13-11.79-13.13-11.79c0,0,12.15-7.49,13.13-11.79s-6.73-16.31-6.73-16.31c0,0,14.2-1.45,16.97-4.9s1.02-17.62,1.02-17.62c0,0,13.43,4.83,17.4,2.91,3.98-1.91,8.56-15.43,8.56-15.43,0,0,9.99,10.2,14.41,10.2s14.41-10.2,14.41-10.2c0,0,4.58,13.51,8.56,15.43,3.99,1.91,17.4-2.91,17.4-2.91,0,0-1.73,14.17,1.02,17.62,2.75,3.45,16.97,4.9,16.97,4.9,0,0-7.7,12.01-6.73,16.31,.97,4.3,13.13,11.79,13.13,11.79Z" fill="#f6991a"></path>
      <path d="M209.13,178.84l-.26-.77c-1.25-3.7-5.19-13.64-8.31-15.14-3.11-1.5-13.34,1.61-17.02,2.93l-.76,.27,.1-.81c.47-3.88,1.24-14.55-.91-17.25-2.15-2.69-12.73-4.32-16.63-4.72l-.81-.08,.44-.68c2.11-3.29,7.43-12.57,6.67-15.93-.76-3.36-9.57-9.42-12.9-11.47l-.69-.43,.69-.43c3.33-2.05,12.14-8.12,12.9-11.48,.76-3.36-4.55-12.64-6.67-15.93l-.44-.68,.81-.08c3.89-.4,14.47-2.02,16.63-4.72,2.16-2.7,1.39-13.36,.92-17.24l-.1-.81,.76,.27c3.68,1.32,13.91,4.43,17.02,2.93,3.1-1.5,7.05-11.44,8.31-15.14l.26-.77,.57,.58c2.74,2.8,10.6,10.05,14.05,10.05s11.31-7.26,14.05-10.05l.57-.58,.26,.77c1.25,3.7,5.19,13.64,8.31,15.14,3.11,1.5,13.34-1.61,17.02-2.93l.76-.28-.1,.81c-.47,3.88-1.23,14.55,.92,17.25,2.15,2.7,12.73,4.32,16.63,4.72l.81,.08-.44,.68c-2.11,3.29-7.43,12.57-6.67,15.93,.76,3.36,9.57,9.42,12.9,11.47l.69,.43-.69,.43c-3.33,2.05-12.14,8.11-12.9,11.47-.77,3.36,4.55,12.64,6.67,15.93l.44,.68-.81,.08c-3.89,.4-14.47,2.02-16.63,4.72-2.16,2.69-1.39,13.36-.91,17.24l.1,.81-.76-.27c-3.68-1.32-13.92-4.43-17.02-2.93-3.1,1.5-7.05,11.44-8.31,15.14l-.26,.77-.57-.58c-2.74-2.8-10.6-10.05-14.05-10.05s-11.31,7.26-14.05,10.05l-.57,.58Zm14.62-11.63c4,0,11.99,7.6,14.2,9.79,1.05-2.92,4.96-13.23,8.55-14.96,3.6-1.74,14.09,1.63,17.03,2.63-.33-3.09-1.29-14.07,1.22-17.2,2.51-3.12,13.42-4.63,16.51-5-1.63-2.64-7.26-12.12-6.37-16.02,.89-3.9,10.06-10,12.68-11.68-2.62-1.67-11.79-7.78-12.68-11.68-.88-3.9,4.74-13.37,6.37-16.01-3.09-.37-14.02-1.87-16.51-5-2.49-3.13-1.54-14.11-1.21-17.2-2.94,1-13.42,4.36-17.03,2.63-3.61-1.74-7.51-12.04-8.56-14.96-2.21,2.18-10.2,9.78-14.2,9.78s-11.99-7.6-14.2-9.79c-1.05,2.92-4.95,13.23-8.56,14.96-3.6,1.73-14.09-1.63-17.03-2.63,.33,3.09,1.29,14.07-1.22,17.2-2.5,3.13-13.42,4.63-16.51,5,1.63,2.64,7.26,12.12,6.37,16.02-.89,3.9-10.06,10.01-12.68,11.68,2.62,1.67,11.79,7.78,12.68,11.68,.88,3.9-4.74,13.37-6.37,16.02,3.09,.37,14.02,1.87,16.51,5,2.49,3.12,1.54,14.11,1.21,17.2,2.94-1,13.42-4.36,17.04-2.63,3.61,1.74,7.51,12.04,8.56,14.96,2.21-2.18,10.2-9.78,14.2-9.78Z" fill="#231f20"></path>
    </g>
    <g opacity=".15">
      <circle cx="223.75" cy="114.77" r="43.87" fill="#fff"></circle>
      <path d="M223.75,159.15c-24.47,0-44.37-19.91-44.37-44.37s19.91-44.37,44.37-44.37,44.37,19.91,44.37,44.37-19.91,44.37-44.37,44.37Zm0-87.75c-23.92,0-43.37,19.46-43.37,43.37s19.46,43.37,43.37,43.37,43.37-19.46,43.37-43.37-19.46-43.37-43.37-43.37Z" fill="#231f20"></path>
    </g>
    <g>
      <path d="M208.7,130.32c-10.52,.27-11.18,4.92-11.18,4.92,0,0-4.02-32.2-28.18-30.86-24.15,1.34-25.05,29.52-25.05,29.52,0,0-4.04-7.32-10.29-6.26-10.39,1.76-10.87,13.3-10.87,13.3,0,0-13.73-6.59-15.97,9.96h119.42s-2.53-20.99-17.89-20.58Z" fill="#fff"></path>
      <path d="M227.16,151.4H106.6l.08-.57c.72-5.31,2.68-8.87,5.84-10.57,3.95-2.13,8.52-.7,10.19-.05,.32-2.59,2.08-11.52,11.22-13.07,4.93-.83,8.47,3.12,9.99,5.25,.62-5.91,4.33-27.34,25.4-28.51,21.21-1.2,27.22,23.24,28.44,29.73,1.12-1.52,3.94-3.61,10.93-3.79h0c15.6-.4,18.38,20.81,18.4,21.02l.07,.56Zm-119.41-1h118.26c-.54-3.29-3.95-19.95-17.3-19.58h0c-9.88,.25-10.69,4.45-10.7,4.5l-.56,3.39-.43-3.4c-.04-.31-4.08-30.46-26.25-30.46-.46,0-.93,.01-1.4,.04-23.41,1.3-24.56,28.76-24.57,29.04l-.06,1.81-.88-1.59c-.04-.07-3.94-7-9.77-6.01-9.86,1.67-10.43,12.37-10.45,12.83l-.03,.76-.68-.33c-.06-.03-5.56-2.61-9.94-.25-2.75,1.48-4.5,4.6-5.23,9.26Z" fill="#231f20"></path>
    </g>
    <g>
      <g>
        <rect x="383.3" y="403.38" width="70.98" height="28.91" fill="#f2b3c1"></rect>
        <path d="M454.78,432.79h-71.98v-29.91h71.98v29.91Zm-70.98-1h69.98v-27.91h-69.98v27.91Z" fill="#231f20"></path>
      </g>
      <g>
        <path d="M340.45,553.93s-4.5-4.17-7.52-10.86c0,0-8.63-14.24-.43-23.95,0,0,6.9-9.92,22.22-3.45,0,0,10.14,2.59,16.4,6.69l-17.26,25.24-12.51,7.55-.89-1.22Z" fill="#f2b3c1"></path>
        <path d="M341.21,555.81l-1.13-1.55c-.47-.44-4.68-4.53-7.6-10.99-.06-.09-8.69-14.61-.36-24.48,.04-.07,7.29-10.14,22.8-3.59,.35,.08,10.22,2.63,16.48,6.73l.43,.28-17.7,25.81-12.91,7.79Zm3.77-41.81c-8.19,0-12.02,5.33-12.07,5.4-7.9,9.35,.37,23.26,.45,23.4,2.97,6.56,7.39,10.71,7.43,10.75l.06,.07,.62,.85,12.03-7.26,16.91-24.73c-6.14-3.85-15.72-6.32-15.82-6.35-3.7-1.56-6.9-2.15-9.62-2.15Z" fill="#231f20"></path>
      </g>
      <g>
        <path d="M467.12,520.85l14.24-7.77s10.36-5.82,18.98,3.67c0,0,9.71,8.85,2.8,21.36l-6.04,12.08-23.3-11.22-13.16-9.06,6.47-9.06Z" fill="#f2b3c1"></path>
        <path d="M497.33,550.85l-23.74-11.43-13.65-9.39,6.94-9.62,14.24-7.77c.1-.06,10.8-5.9,19.59,3.77,.07,.06,9.88,9.22,2.87,21.94l-6.25,12.5Zm-35.98-21.07l12.74,8.77,22.79,10.97,5.82-11.64c6.63-12.03-2.31-20.41-2.69-20.77-8.29-9.11-18-3.83-18.4-3.6l-14.14,7.71-6.11,8.55Z" fill="#231f20"></path>
      </g>
      <g>
        <path d="M357.29,362.99s-6.62,1.1-20.43-4.97c0,0-13.33-6.25-27.69-8.61-3.8-.63-7.48-1.86-10.88-3.67-3.11-1.66-8.07-3.73-15.53-5.38,0,0-31.53-8-42.02-11.84-1.74-.64-3.32-1.65-4.62-2.97-.73-.75-1.5-1.67-2.12-2.72-.23-.38-.39-.8-.5-1.24-.43-1.63-2.2-6.59-8.47-9.86-.89-.47-1.72-1.06-2.42-1.78-2.62-2.69-9.2-8.89-10.52-4.93,0,0-1.64,5.45,7.55,10.4,.05,.03,.04,.1-.01,.11-.48,.07-1.8,.43-3.12,2.19l-17.87,.48c-1.45,.04-2.9-.03-4.34-.2-2.43-.28-6.49-.39-6.49,1.92,0,0-8.28-1.1-6.07,3.86,0,0-1.66,3.31,4.42,4.42l9.92,1.1s0,0,0,0c-.48,.07-13.42,1.88-11.27,5.06,.41,.6,1.12,.91,1.84,.86l22.14-1.51s6.96-.43,12.77,1.01c1.11,.28,2.17,.75,3.11,1.4,.58,.4,1.44,.95,2.67,1.6,.41,.22,.82,.46,1.19,.74,.8,.58,2.82,1.8,6.82,2.75,.74,.17,1.45,.44,2.12,.79l14.93,7.72s23.25,10.57,35.35,13.58c3.38,.84,6.62,2.17,9.6,3.97,11.57,7.02,39.71,23.53,56.09,28.27,0,0,1.59,.5,3.69,1.89,3.63,2.4,6.34,5.96,7.8,10.07,1.19,3.36,3.36,9.7,6.18,18.96,0,0,2.8,1.75,7.02-1.45,2.6-1.97,4.22-4.98,4.53-8.23,.3-3.18,.28-8.27-.86-16.15l-7.37-29.93-17.11-7.73Z" fill="#f2b3c1"></path>
        <path d="M373.2,427.46c-1.44,0-2.3-.52-2.37-.56l-.16-.1-.05-.18c-2.75-9.02-4.87-15.28-6.17-18.94-1.43-4.04-4.13-7.52-7.6-9.82-2.01-1.33-3.55-1.82-3.57-1.83-16.45-4.76-44.78-21.39-56.2-28.32-2.89-1.75-6.07-3.07-9.46-3.91-12-2.99-35.2-13.5-35.43-13.61l-14.96-7.74c-.64-.33-1.31-.58-2-.74-4.02-.95-6.12-2.18-7-2.83-.33-.24-.71-.47-1.13-.7-1.05-.55-1.97-1.1-2.72-1.63-.88-.62-1.87-1.06-2.94-1.33-5.67-1.41-12.55-1-12.62-1l-22.13,1.51c-.91,.06-1.8-.35-2.29-1.08-.46-.67-.35-1.26-.18-1.64,.79-1.76,5.06-2.94,8.31-3.61l-6.43-.71c-2.53-.46-4.12-1.34-4.76-2.63-.48-.96-.28-1.87-.14-2.28-.49-1.2-.44-2.2,.13-2.97,1.27-1.69,4.7-1.57,6.05-1.45,.1-.4,.31-.74,.64-1.03,1.29-1.15,4.16-1.09,6.35-.84,1.46,.17,2.9,.23,4.27,.2l17.63-.48c.81-1.02,1.62-1.57,2.26-1.87-8.45-4.94-6.98-10.25-6.91-10.48,.36-1.1,1.06-1.46,1.58-1.58,2.46-.56,6.67,3.12,9.78,6.31,.65,.66,1.42,1.23,2.29,1.69,6.51,3.39,8.33,8.64,8.73,10.17,.11,.43,.26,.79,.45,1.11,.52,.88,1.21,1.77,2.05,2.62,1.22,1.25,2.76,2.24,4.43,2.85,10.34,3.78,41.65,11.74,41.97,11.82,7.74,1.72,12.78,3.9,15.64,5.43,3.33,1.78,6.94,2.99,10.73,3.62,14.26,2.35,27.69,8.59,27.82,8.65,13.45,5.92,20.07,4.94,20.13,4.93l.15-.02,.14,.06,17.34,7.83,.06,.24,7.37,29.93c.97,6.7,1.26,12.17,.87,16.32-.32,3.42-2.04,6.55-4.72,8.58-2.11,1.6-3.9,2.03-5.21,2.03Zm-1.69-1.33c.6,.28,2.93,1.06,6.3-1.5,2.46-1.87,4.04-4.74,4.33-7.88,.38-4.07,.09-9.46-.86-16.03l-7.31-29.65-16.76-7.57c-1.11,.13-7.76,.6-20.55-5.03-.14-.07-13.45-6.25-27.57-8.58-3.9-.64-7.61-1.89-11.04-3.72-2.81-1.5-7.76-3.64-15.4-5.34-.33-.08-31.69-8.05-42.08-11.85-1.81-.66-3.48-1.73-4.8-3.09-.89-.91-1.63-1.86-2.19-2.81-.24-.4-.42-.84-.55-1.36-.38-1.43-2.07-6.33-8.22-9.54-.97-.5-1.82-1.14-2.55-1.88-4.02-4.12-7.33-6.39-8.84-6.03-.25,.06-.61,.21-.85,.91-.05,.19-1.36,5.13,7.32,9.8l.32,.17-.03,.42c-.04,.24-.23,.42-.47,.45-.34,.05-1.56,.35-2.79,2l-.15,.19-18.11,.49c-1.42,.04-2.9-.03-4.42-.2-2.76-.31-4.79-.1-5.57,.6-.25,.22-.37,.49-.37,.83v.57l-.57-.08c-1.23-.16-4.64-.3-5.61,1-.37,.5-.35,1.23,.06,2.16l.1,.22-.11,.21s-.37,.8,.05,1.63c.49,.97,1.88,1.69,4.01,2.07l10.33,1.15v.89s-.43,.06-.43,.06c-4.03,.56-10.29,1.98-11.02,3.62-.07,.15-.11,.35,.1,.67,.29,.43,.82,.69,1.4,.64l22.14-1.51c.29-.02,7.1-.42,12.92,1.02,1.19,.3,2.29,.79,3.27,1.48,.72,.5,1.6,1.03,2.62,1.57,.47,.25,.88,.5,1.26,.78,.83,.6,2.79,1.75,6.64,2.66,.77,.18,1.52,.46,2.23,.83l14.93,7.72c.21,.09,23.32,10.57,35.24,13.54,3.48,.87,6.75,2.22,9.73,4.03,11.38,6.91,39.62,23.49,55.97,28.22,.08,.02,1.69,.54,3.83,1.95,3.65,2.41,6.49,6.08,8,10.32,1.29,3.64,3.4,9.85,6.12,18.79Z" fill="#231f20"></path>
      </g>
      <path d="M207.6,325.94l-9.24-1.54c-.45-.08-.9-.12-1.36-.16-9.42-.68-9.7-3.95-9.7-4.32h.5l.5-.02s.28,2.72,8.77,3.34c.53,.04,1.01,.09,1.45,.17l9.24,1.54-.16,.99Z" fill="#231f20"></path>
      <rect x="192.55" y="314.47" width="1" height="23.06" transform="translate(-163.89 453.04) rotate(-78.96)" fill="#231f20"></rect>
      <rect x="198.35" y="325.41" width="1" height="8.9" transform="translate(-153.13 486.27) rotate(-82.88)" fill="#231f20"></rect>
      <g>
        <path d="M467.71,430.34l-6.63,39.2c-38.64-2.76-86.12,0-86.12,0l-3.86-43.06c2.21,1.1,3.84,.2,3.84,.2,7.75-2.96,7.72-10.05,7.72-10.05,.52-8.2-1.03-16.57-1.03-16.57l6.59,4.89c-.55,4.42,.55,11.59,.55,11.59,2.21,8.83,16.56,11.59,16.56,11.59,7.73,1.66,23.74,.7,23.74,.7,9.25-.86,14.23-1.92,16.56-4.5,1.15-1.26,1.95-2.8,2.41-4.44,1.71-6.06,2.56-17.15,2.56-17.15l5.52,3.31-1.65,12.15c-1.66,7.18,1.65,9.38,1.65,9.38l4.42,2.21c4.42,2.21,7.18,.55,7.18,.55Z" fill="#fff"></path>
        <path d="M461.5,470.07l-.45-.03c-38.17-2.72-85.58-.03-86.06,0l-.48,.03-3.99-44.44,.8,.4c1.92,.96,3.32,.24,3.38,.2,7.38-2.82,7.46-9.33,7.46-9.61,.51-8.07-1.01-16.39-1.02-16.48l-.23-1.25,7.84,5.82-.04,.29c-.54,4.29,.54,11.38,.55,11.46,2.1,8.38,16.02,11.15,16.16,11.18,7.58,1.63,23.45,.7,23.61,.69,8.5-.79,13.89-1.76,16.22-4.34,1.05-1.15,1.84-2.62,2.3-4.24,1.67-5.94,2.53-16.94,2.54-17.05l.06-.81,6.5,3.9-1.7,12.47c-1.55,6.75,1.41,8.88,1.44,8.9l4.36,2.18c4.09,2.05,6.59,.63,6.7,.57l.92-.54-.18,1.05-6.7,39.65Zm-89.83-42.81l3.75,41.76c5.09-.28,49.17-2.54,85.25,0l6.4-37.87c-1.21,.37-3.59,.68-6.76-.91l-4.42-2.21c-.2-.13-3.63-2.52-1.92-9.94l1.6-11.77-4.55-2.73c-.23,2.67-1.07,11.36-2.51,16.45-.5,1.77-1.37,3.37-2.52,4.64-2.55,2.82-8.12,3.85-16.89,4.66-.67,.04-16.18,.94-23.89-.71-.59-.11-14.68-2.92-16.94-11.96-.05-.33-1.07-7.04-.6-11.49l-5.36-3.98c.4,2.64,1.24,9.13,.84,15.46,0,.04-.06,7.44-8.04,10.49-.01,.01-1.44,.78-3.45,.11Z" fill="#231f20"></path>
      </g>
      <g>
        <path d="M467.71,430.34s1.78-6.36,5.77-15.31c0,0,2.27-5.29,4.21-8.52,0,0,2.05-5.5,8.41-7.55,0,0,18.23-4.99,33.69-15.87,2.15-1.51,4.39-2.89,6.71-4.13,4.29-2.31,10.93-5.99,13.9-8.14,.57-.41,1.17-.76,1.8-1.06l.22-.1c1.08-.51,2.23-.81,3.41-.97,.47-.07,1.12-.28,1.97-.78,0,0,2.8,0,7.98-1.73,0,0,21.57-6.04,41.85-16.18l9.49-3.67s4.96,0,8.2-2.8c0,0,3.45-3.02,7.55-3.24,0,0,6.69-.86,11.43-1.08,0,0,2.16,.65,5.18-1.29,0,0,1.02-.73,3.3-1.11,1.77-.29,3.51-.72,5.24-1.21l15.54-4.46c.78-.22,1.22-1.06,.94-1.82s-.93-1.64-2.37-1.75l2.46-1.16c.73-.35,.97-1.29,.46-1.92-.85-1.06-2.57-2.08-5.73-.37,0,0-1.08-2.16-7.55,1.08l-12.3,2.37s-4.07-.2-6.87,1.17c-.15,.07-.33,.07-.47-.01-.41-.24-1.37-.74-2.63-1.08-.45-.12-.5-.73-.08-.92,2.19-1,5.72-3.21,4.66-6.71,0,0-.86-4.1-8.2,1.08l-2.82,1.66c-.51,.3-1.11,.41-1.7,.31-1.87-.31-6.47-.51-10.15,3.85,0,0-.65,1.08-1.08,2.8,0,0,0,1.73-7.98,4.75l-50.1,12.03c-2.87,.69-5.7,1.55-8.47,2.58-3.48,1.29-8.64,3.07-12.19,3.73,0,0-11,.65-25.24,7.77,0,0-17.69,7.77-30.85,7.12l-22.01,22.44,2.81,15.94-1.66,12.15s-1.79,6.95,1.66,9.39l4.42,2.21s3.67,2.17,7.18,.55Z" fill="#f2b3c1"></path>
        <path d="M464.89,431.44c-2.49,0-4.49-1.16-4.61-1.22l-4.39-2.19c-3.75-2.65-1.99-9.66-1.92-9.96l1.63-12.01-2.84-16.12,22.34-22.78h.22c12.89,.65,30.45-6.99,30.62-7.07,14.14-7.07,25.3-7.8,25.41-7.81,3.41-.64,8.44-2.36,12.05-3.7,2.79-1.03,5.65-1.9,8.52-2.59l50.1-12.03c7.13-2.7,7.6-4.31,7.6-4.32,.46-1.84,1.12-2.95,1.15-3,3.91-4.63,8.76-4.4,10.66-4.09,.47,.08,.96-.01,1.36-.25l2.82-1.66c3.24-2.29,5.74-3.13,7.4-2.47,1.27,.5,1.53,1.67,1.54,1.72,1.16,3.81-2.59,6.19-4.94,7.26,1.29,.33,2.28,.84,2.75,1.12,2.73-1.34,6.5-1.25,7.06-1.23l12.17-2.35c5.15-2.56,7.13-1.82,7.83-1.22,3.38-1.67,5.2-.31,6,.68,.33,.41,.46,.95,.34,1.48-.12,.54-.48,.98-.98,1.21l-1.25,.59c.79,.42,1.2,1.1,1.41,1.7,.18,.5,.14,1.03-.1,1.5-.24,.47-.67,.82-1.18,.97l-15.54,4.46c-1.91,.55-3.64,.95-5.29,1.23-2.11,.35-3.08,1.02-3.09,1.02-2.88,1.85-5.04,1.5-5.52,1.39-4.67,.22-11.25,1.06-11.32,1.07-3.91,.21-7.25,3.09-7.29,3.12-3.13,2.71-7.69,2.91-8.43,2.93l-9.41,3.63c-20.05,10.03-41.68,16.13-41.9,16.2-4.59,1.53-7.33,1.72-7.98,1.74-.75,.43-1.43,.7-2.04,.78-1.21,.17-2.31,.48-3.27,.93l-.21,.1c-.62,.29-1.2,.63-1.72,1.01-2.91,2.11-9.19,5.61-13.96,8.18-2.35,1.27-4.59,2.65-6.66,4.1-15.36,10.81-33.67,15.89-33.85,15.94-6.02,1.94-8.06,7.19-8.08,7.24-1.94,3.25-4.19,8.49-4.22,8.54-3.93,8.82-5.73,15.19-5.75,15.25l-.06,.22-.21,.1c-1.03,.48-2.07,.65-3.03,.65Zm-11.04-41.17l2.78,15.76-1.67,12.22c-.03,.12-1.67,6.7,1.45,8.91l4.35,2.17c.06,.04,3.38,1.94,6.54,.64,.36-1.22,2.19-7.21,5.73-15.15,.02-.05,2.3-5.35,4.24-8.58,.05-.15,2.17-5.67,8.69-7.77,.2-.06,18.35-5.1,33.56-15.8,2.1-1.48,4.37-2.88,6.76-4.16,3.88-2.09,10.83-5.92,13.84-8.11,.57-.42,1.21-.79,1.88-1.11l.21-.1c1.04-.49,2.24-.83,3.55-1.02,.51-.07,1.11-.31,1.78-.72l.12-.07h.14s2.81-.03,7.83-1.7c.24-.07,21.79-6.15,41.79-16.15l9.72-3.72s4.82-.04,7.87-2.68c.14-.13,3.63-3.13,7.85-3.36,.03,0,6.73-.86,11.44-1.08h.08s.08,.02,.08,.02c.08,.02,2,.54,4.76-1.24,.03-.02,1.12-.79,3.48-1.18,1.61-.27,3.3-.66,5.18-1.2l15.54-4.46c.25-.07,.45-.24,.56-.46,.11-.22,.13-.47,.05-.71-.32-.88-.95-1.35-1.93-1.42l-1.89-.15,4.18-1.96c.22-.1,.37-.3,.43-.53,.05-.22,0-.45-.14-.62-1.11-1.37-2.87-1.45-5.11-.24l-.45,.25-.23-.46h0s-1.1-1.59-6.88,1.3l-.13,.04-12.36,2.38h-.06s-3.98-.18-6.63,1.12c-.3,.15-.66,.14-.94-.03-.43-.25-1.32-.71-2.5-1.03-.41-.11-.7-.45-.74-.87-.04-.42,.19-.81,.58-.99,2.05-.94,5.34-2.98,4.39-6.11-.02-.07-.19-.75-.96-1.05-.75-.29-2.59-.35-6.47,2.39l-2.85,1.68c-.61,.36-1.33,.49-2.03,.38-1.74-.28-6.16-.49-9.69,3.68h0s-.57,1.01-.97,2.57c-.07,.59-.98,2.36-8.3,5.13l-50.16,12.05c-2.83,.68-5.66,1.54-8.41,2.56-3.65,1.35-8.74,3.1-12.28,3.75-.17,.01-11.14,.74-25.11,7.72-.2,.09-17.77,7.74-30.87,7.18l-21.67,22.09Z" fill="#231f20"></path>
      </g>
      <path d="M637.25,339.49l-.68-.74c.46-.43,1.05-.88,1.75-1.36,1.8-1.23,3.81-2.24,5.96-3,8.44-2.99,17.55-7.25,17.64-7.29l.43,.91c-.09,.04-9.25,4.33-17.73,7.33-2.07,.73-4,1.7-5.73,2.89-.66,.45-1.21,.88-1.64,1.28Z" fill="#231f20"></path>
      <path d="M638.36,334.92l-.33-.94,19.2-6.69c1.19-.46,1.91-1.04,2.06-1.67,.15-.64-.32-1.18-.33-1.19l.74-.67s.83,.94,.56,2.09c-.23,.97-1.14,1.77-2.69,2.38l-19.22,6.69Z" fill="#231f20"></path>
      <g>
        <path d="M459.35,483.96c-1.94,7.55-1.94,17.04-1.94,17.04-12.51-2.16-36.03,1.29-36.03,1.29-10.14,1.29-15.96-1.08-15.96-1.08-20.68-3.2-26.62,1.19-26.75,1.29h0s-3.7-32.97-3.7-32.97c0,0,47.48-2.76,86.12,0,.44,5.65-1.74,14.42-1.74,14.42Z" fill="#f2b3c1"></path>
        <path d="M378.3,503.76l-.14-1.2-3.76-33.49,.53-.03c.48-.03,47.95-2.73,86.19,0l.43,.03,.03,.43c.45,5.66-1.66,14.21-1.75,14.58h0c-1.9,7.4-1.93,16.83-1.93,16.92v.59l-.58-.1c-12.29-2.12-35.64,1.26-35.87,1.3-9.75,1.25-15.5-.83-16.17-1.09-19.41-2.99-25.7,.79-26.27,1.17l-.71,.89Zm13.58-4.21c3.61,0,8.09,.32,13.61,1.17l.11,.03c.06,.02,5.84,2.31,15.71,1.05,.22-.03,23.02-3.33,35.6-1.39,.04-2.2,.29-10.13,1.95-16.58,.04-.15,2.05-8.34,1.75-13.83-35.92-2.52-79.8-.28-85.1,0l3.56,31.68c1.43-.73,5.19-2.14,12.81-2.14Z" fill="#231f20"></path>
      </g>
      <g>
        <path d="M590.95,577.8c.86,3.24-2.16,2.59-2.16,2.59-5.18,1.08-9.06-.65-9.06-.65-4.1-1.08-7.34,1.29-7.34,1.29-2.8,1.29-4.96,.43-4.96,.43-4.1,.65-7.34,0-7.34,0h-40.77c-11.87,.43-24.38-.22-24.38-.22-1.94,.86-3.88,0-3.88,0-6.69,1.73-21.14,3.02-21.14,3.02-10.57,1.08-17.26,.65-17.26,.65-8.85,1.73-18.77,.22-18.77,.22-9.49-.86-18.12-.65-18.12-.65-13.16,.86-27.83,.43-27.83,.43l-20.06-1.29-18.55-1.08c-3.02,0-2.37-.65-2.37-.65-4.31,.86-15.1,.65-15.1,.65l-15.1-.65c-6.47,.22-8.63-1.29-8.63-1.29-3.45-3.45,.43-7.55,.43-7.55,.65-.97,.92-1.99,1.02-2.77,.21-1.54,1.23-2.86,2.65-3.5,4.11-1.84,11.21-1.71,11.21-1.71-.26-.52-.46-1.01-.61-1.45-.83-2.44,.45-5.09,2.88-5.94,1.69-.59,3.34-.59,3.34-.59,2.8-2.8,6.04-2.16,6.04-2.16,1.15,.18,2.1,.21,2.87,.16,1.53-.11,2.86-1.08,3.48-2.49l4.39-10.04c1.31-2.99,3.27-5.67,5.81-7.74,4.05-3.31,7.84-3.85,7.84-3.85,1.29-3.67,8.63-7.12,8.63-7.12,1.08-2.59,4.75-4.1,4.75-4.1l.43-3.24c-1.08-4.53,2.37-4.53,2.37-4.53l3.02-9.49h0c.13-.1,6.06-4.49,26.75-1.29,0,0,5.82,2.37,15.96,1.08,0,0,23.52-3.45,36.03-1.29,1.73,.43,1.51,3.02,1.51,3.02,.22,1.51,1.08,1.94,1.08,1.94,.86,.43,.86,2.16,.86,2.16,.65,1.29,.43,2.16,.43,2.16,0,1.08,.22,1.51,.22,1.51,1.51-.43,1.51,.22,1.51,.22l.65,1.94c1.08,2.59,.22,2.8,.22,2.8,.86,1.08,.65,1.51,.65,1.51,1.78,.59,3.26,1.7,4,2.33,.49,.42,.82,1,.91,1.64,.23,1.73-.16,4.45-.16,4.45,5.74-.72,12.33,2,16.11,3.9,2,1.01,3.77,2.44,5.15,4.2,3.65,4.65,6.55,9.52,7.73,11.59,.37,.65,.53,1.41,.44,2.15l-.41,3.57c-.07,.57,.08,1.14,.4,1.61,1.29,1.87,3.49,5.5,4.61,7.38,.44,.74,1.24,1.17,2.1,1.14l10.47-.38c1.51,.22,3.24,.22,3.24,.22,2.8-.22,3.88,.86,3.88,.86l4.47,.43s.08,0,.12,0c4.93,.02,8.14,2.59,8.14,2.59l2.69,2.07c.07,.06,.16,.11,.24,.15,2.47,1.27,4.56,1.79,6.03,2,1.2,.17,2.43-.08,3.48-.7,3.76-2.2,5.55-.81,6.22,.05,.25,.32,.57,.58,.93,.77,.42,.21,.74,.48,.99,.73,.45,.46,1.05,.75,1.69,.82,.68,.08,1.18,.21,1.46,.29,.13,.04,.24,.09,.36,.14,.03,.01,.06,.03,.09,.04,.74,.31,1.57,0,1.96-.7,1.92-3.4,6.45-2.86,6.45-2.86,1.23,.18,2.61-.22,3.07-.38,.14-.05,.29-.07,.44-.08,2.31-.04,2.94,3.2,3.11,4.96,.06,.66,.55,1.21,1.2,1.35l.35,.08c.29,.06,.58,.05,.86-.06,3.51-1.31,6.72-.71,6.72-.71,6.9-2.59,7.12,1.08,7.12,1.08l-.22,2.8Z" fill="#00796B"></path>
        <path d="M443.13,586.24c-5.21,0-9.25-.6-9.32-.61-9.32-.85-17.95-.64-18.03-.64-13.01,.85-27.71,.44-27.86,.43l-20.08-1.3-18.55-1.08h0c-1.87,0-2.49-.25-2.74-.56-4.57,.76-14.28,.58-14.71,.57l-15.11-.65c-6.51,.22-8.8-1.32-8.89-1.38-3.07-3.06-1.1-6.76,.36-8.3,.56-.86,.8-1.84,.89-2.5,.23-1.69,1.36-3.18,2.94-3.89,3.39-1.52,8.65-1.73,10.64-1.75-.11-.27-.21-.53-.3-.79-.92-2.69,.51-5.64,3.19-6.57,1.41-.49,2.79-.59,3.3-.61,2.93-2.8,6.21-2.18,6.35-2.15,.99,.16,1.92,.21,2.73,.15,1.33-.09,2.5-.93,3.05-2.19l4.39-10.04c1.37-3.13,3.42-5.87,5.95-7.92,3.51-2.87,6.8-3.7,7.79-3.9,1.47-3.43,7.49-6.5,8.61-7.05,1.05-2.25,3.79-3.67,4.67-4.07l.38-2.87c-.38-1.68-.22-3,.5-3.9,.63-.8,1.51-1.04,2.01-1.12l3.1-9.43c.25-.19,6.35-4.6,27.13-1.39l.11,.03c.06,.02,5.84,2.31,15.71,1.05,.23-.03,23.73-3.44,36.18-1.29,2,.5,1.95,3.05,1.93,3.49,.18,1.16,.78,1.51,.81,1.52,.98,.49,1.11,2.01,1.13,2.48,.57,1.2,.48,2.07,.43,2.33,0,.38,.03,.66,.07,.86,.59-.11,1.02-.05,1.32,.18,.2,.15,.3,.36,.33,.53l.63,1.89c.58,1.38,.72,2.36,.41,2.96,0,.01-.01,.03-.02,.04,.33,.48,.46,.85,.5,1.12,1.71,.64,3.11,1.7,3.82,2.3,.6,.5,.98,1.2,1.08,1.95,.17,1.27,.02,3.02-.08,3.95,5.81-.48,12.32,2.28,15.76,4.01,2.07,1.04,3.91,2.54,5.32,4.34,3.71,4.72,6.67,9.72,7.77,11.65,.43,.75,.6,1.6,.5,2.46l-.41,3.57c-.05,.45,.06,.9,.32,1.26,1.3,1.87,3.46,5.45,4.63,7.41,.34,.58,.97,.91,1.65,.9l10.47-.38c1.55,.21,3.24,.21,3.25,.21,2.41-.18,3.67,.57,4.08,.88l4.32,.41c5.12,.03,8.39,2.59,8.53,2.7l2.68,2.07c.05,.04,.11,.07,.16,.1,2.49,1.28,4.56,1.77,5.87,1.95,1.08,.15,2.2-.08,3.15-.63,4.17-2.44,6.19-.7,6.87,.17,.21,.27,.46,.48,.76,.63,.41,.21,.79,.49,1.12,.83,.36,.37,.85,.61,1.38,.67,.7,.08,1.23,.21,1.55,.31,.14,.04,.28,.1,.42,.16,.56,.24,1.13,.03,1.4-.45,2.06-3.65,6.75-3.13,6.95-3.11,1.15,.17,2.48-.23,2.86-.35,.19-.06,.39-.1,.59-.1,1.98-.02,3.27,1.89,3.62,5.41,.04,.45,.37,.82,.81,.91l.35,.08c.2,.04,.39,.03,.58-.04,3.23-1.2,6.16-.86,6.84-.75,2.96-1.09,5.14-1.2,6.48-.33,1.11,.72,1.19,1.85,1.19,1.9l-.21,2.79c.29,1.14,.16,2-.37,2.56-.72,.76-1.91,.64-2.28,.58-5.23,1.06-9.11-.63-9.27-.7-3.73-.98-6.81,1.22-6.84,1.24-2.67,1.24-4.75,.72-5.3,.54-4.08,.62-7.25,0-7.39-.02h-40.68c-11.13,.41-22.99-.14-24.29-.2-1.76,.73-3.47,.22-4.01,.02-6.72,1.7-20.92,2.98-21.06,2.99-9.93,1.01-16.54,.69-17.27,.65-3.21,.62-6.58,.82-9.56,.82Zm-24.82-2.28c3.28,0,9.29,.1,15.62,.67,.13,.02,9.98,1.48,18.63-.21h.06s.06,0,.06,0c.07,0,6.77,.42,17.18-.65,.15-.01,14.5-1.31,21.07-3.01l.17-.04,.16,.07s1.77,.76,3.48,0l.11-.05h.12c.12,.01,12.63,.65,24.33,.22h40.79c.13,.02,3.3,.63,7.26,0l.14-.02,.13,.05s2.01,.76,4.57-.42c.05-.05,3.39-2.45,7.67-1.32,.11,.04,3.88,1.67,8.83,.64l.1-.02,.1,.02c.28,.06,1.09,.12,1.46-.28,.36-.38,.26-1.13,.11-1.69l-.02-.08,.22-2.89h0s-.09-.64-.76-1.06c-.74-.47-2.33-.77-5.69,.49l-.13,.05-.14-.03s-3.12-.56-6.45,.68c-.36,.13-.75,.16-1.14,.08l-.35-.08c-.87-.19-1.5-.91-1.59-1.8-.13-1.36-.64-4.51-2.57-4.51,0,0-.02,0-.03,0-.1,0-.2,.02-.29,.05-.55,.18-1.98,.58-3.3,.4-.03,0-4.21-.46-5.94,2.61-.52,.92-1.64,1.31-2.59,.91l-.1-.04c-.1-.05-.2-.09-.3-.12-.23-.07-.71-.2-1.37-.27-.76-.09-1.47-.43-1.99-.97-.25-.26-.54-.47-.85-.63-.43-.22-.8-.52-1.1-.91-.64-.82-2.21-1.89-5.57,.08-1.14,.67-2.49,.94-3.8,.76-1.38-.19-3.57-.7-6.19-2.05-.11-.06-.22-.12-.32-.2l-2.69-2.07s-3.15-2.46-7.83-2.48c-.06,0-.12,0-.17,0l-4.65-.44-.13-.13s-.99-.91-3.49-.72c-.11,0-1.82,0-3.34-.22l-10.38,.39c-1.05,.05-2.01-.49-2.55-1.39-.94-1.57-3.26-5.44-4.59-7.36-.39-.57-.57-1.26-.49-1.95l.41-3.57c.08-.65-.05-1.28-.38-1.85-1.09-1.91-4.02-6.86-7.69-11.53-1.32-1.69-3.05-3.09-4.98-4.07-3.46-1.74-10.13-4.56-15.82-3.85l-.65,.08,.09-.65s.38-2.67,.16-4.31c-.07-.51-.33-.98-.73-1.32-.7-.59-2.13-1.67-3.84-2.24l-.55-.18,.25-.51s-.03-.29-.59-.98l-.49-.61,.66-.17c.05-.12,.17-.64-.46-2.15l-.66-1.98c-.09-.02-.34-.05-.9,.11l-.4,.11-.19-.37c-.04-.09-.27-.59-.27-1.73v-.12s.17-.72-.38-1.81l-.05-.1v-.12c0-.46-.15-1.49-.59-1.71-.04-.02-1.1-.57-1.35-2.32v-.06s0-.06,0-.06c0-.02,.16-2.17-1.13-2.49-12.25-2.11-35.6,1.27-35.83,1.3-9.75,1.25-15.51-.83-16.17-1.09-18.76-2.89-25.27,.55-26.2,1.13l-3.08,9.68h-.37s-1.01,.02-1.61,.78c-.52,.67-.62,1.72-.28,3.13l.02,.09-.48,3.61-.27,.11s-3.49,1.47-4.47,3.83l-.07,.18-.17,.08c-.07,.03-7.16,3.41-8.37,6.83l-.1,.28-.3,.04s-3.71,.57-7.59,3.74c-2.4,1.96-4.36,4.57-5.66,7.55l-4.39,10.04c-.7,1.6-2.19,2.67-3.9,2.78-.89,.06-1.89,0-2.98-.16-.14-.03-3.04-.55-5.61,2.02l-.15,.15h-.21s-1.6,0-3.18,.56c-2.16,.75-3.31,3.13-2.57,5.3,.16,.46,.35,.93,.59,1.39l.37,.74h-.83c-.07-.02-7.04-.12-11,1.65-1.27,.57-2.17,1.76-2.36,3.11-.15,1.11-.53,2.12-1.1,2.98-.2,.22-3.56,3.86-.5,6.92h0s2.2,1.34,8.26,1.15l15.14,.65c.1,0,10.77,.2,14.98-.64l1.62-.32-.84,.84c.28,.06,.79,.12,1.69,.12l18.58,1.08,20.07,1.29c.13,0,14.78,.42,27.77-.43,.03,0,.99-.02,2.58-.02Z" fill="#231f20"></path>
      </g>
      <path d="M480.86,553.68c-.79-8.58-3.24-11.82-4.25-12.81-.53-.52-.94-1.15-1.22-1.86-1.52-3.9-5.14-7.64-5.17-7.68-3.11-2.87-1.33-4.97-1.31-4.99l.75,.66-.38-.33,.38,.32c-.05,.06-1.13,1.43,1.25,3.62,.17,.18,3.81,3.94,5.41,8.03,.23,.58,.56,1.09,.99,1.51,1.36,1.33,3.75,4.85,4.55,13.43l-1,.09Z" fill="#231f20"></path>
      <path d="M495.44,581.33l-.99-.16c.05-.32,.03-.74-.06-1.26-.26-1.42-.15-2.92,.33-4.33,.25-.75,.25-1.53,.01-2.25l-4.58-13.92c-4.19-12.35-12-16.39-12.08-16.43l.45-.9c.33,.17,8.25,4.23,12.59,17.01l4.58,13.93c.3,.92,.3,1.93,0,2.84-.44,1.3-.54,2.62-.31,3.88,.11,.63,.14,1.17,.06,1.6Z" fill="#231f20"></path>
      <path d="M420.6,518c-8.65,0-25.98-.64-42.07-5.08l.27-.96c22.31,6.16,47.05,4.96,47.3,4.94,16.16-1.28,35.11-5.55,35.3-5.6l.22,.98c-.19,.04-19.21,4.34-35.45,5.62-.07,0-2.14,.1-5.57,.1Z" fill="#231f20"></path>
      <path d="M410.76,521.5c-7.67,0-10.72-1.39-10.96-1.5l.43-.9c.12,.06,12.03,5.37,49.1-5.44l.28,.96c-18.81,5.48-31.16,6.88-38.86,6.88Z" fill="#231f20"></path>
      <g>
        <path d="M374.78,364.32s-8.87,45.8-2.06,56.12c0,0,1.03-2.89,2.06-3.92l.52,4.02,5.16,1.44s0-6.4,.62-9.28c0,0,.62,6.4,1.65,8.87l2.68,.21v-8.05s.62,5.57,3.71,8.25c0,0,.21-4.33,.62-5.98,0,0,.62,4.13,2.48,6.4l4.95-.21,.21-6.6s.83,3.92,3.51,6.81l20.42,.83-.21-11.76s2.27,2.48,2.68,11.55h9.7s1.24-7.63,1.65-12.38c0,0,1.03,8.46,.83,12.79l7.63-.21s1.03-6.6,.83-13.2c0,0,2.48,7.01,2.27,13.2h6.19s.21-5.57-.21-10.73c0,0,1.44,5.78,1.24,9.9l10.32-1.65,.21-33.83s-1.03-20.01-7.43-35.48l-82.21,12.89Z" fill="#231f20"></path>
        <path d="M435.42,423.94l.03-.54c.1-2.17-.11-5.43-.35-8.1-.51,3.9-1.13,7.74-1.13,7.79l-.07,.42h-10.6l-.02-.48c-.22-4.92-1.01-7.87-1.65-9.5l.18,10.2-21.16-.85-.14-.15c-1.29-1.39-2.16-3-2.73-4.32l-.13,4.26-5.67,.24-.16-.19c-.94-1.14-1.57-2.71-1.97-4.03-.16,1.63-.24,3.3-.24,3.32l-.05,1.03-.78-.67c-1.39-1.2-2.3-2.93-2.89-4.52v4.48l-3.53-.27-.12-.28c-.48-1.16-.87-3.1-1.15-4.88-.15,2.55-.15,5.06-.15,5.1v.66l-6.11-1.71-.4-3.1c-.56,.96-1.06,2.22-1.26,2.77l-.34,.94-.55-.84c-6.84-10.37,1.63-54.61,1.99-56.49l.07-.34,.35-.05,82.6-12.96,.15,.36c6.36,15.37,7.45,35.45,7.46,35.65l-.21,34.29-11.34,1.81c0,.16,0,.25,0,.25l-.02,.48h-7.19l.02-.52c.11-3.41-.61-7.1-1.27-9.69-.13,5.24-.83,9.73-.83,9.78l-.06,.41-8.59,.23Zm-.38-18.12l.58,4.75c.04,.33,.96,7.91,.85,12.34l6.68-.18c.22-1.54,.93-7.15,.76-12.7l-.1-3.22,1.07,3.04c.1,.28,2.37,6.8,2.31,12.87h5.19c.04-1.46,.12-5.99-.22-10.19l.98-.16c.06,.23,1.33,5.36,1.27,9.43l9.3-1.49,.2-33.41c0-.17-1.08-19.76-7.24-34.93l-81.47,12.78c-.77,4.11-7.96,43.53-2.57,54.52,.41-.97,1.09-2.41,1.79-3.12l.72-.72,.6,4.7,4.21,1.18c.02-1.72,.11-6.34,.63-8.73l.68-3.15,.31,3.21c0,.06,.58,5.89,1.5,8.44l1.83,.14v-7.51l1-.06s.52,4.45,2.78,7.15c.09-1.42,.28-3.79,.57-4.95l.61-2.42,.37,2.47s.59,3.79,2.22,5.96l4.23-.18,.32-10.28,.86,4.05s.8,3.69,3.25,6.42l19.69,.8-.22-12.55,.89,.97c.1,.1,2.32,2.62,2.79,11.39h8.79c.26-1.66,1.23-7.88,1.58-11.92l.42-4.77Zm18.37,15.2c0,.71-.02,1.29-.03,1.67l.02-.32c.02-.43,.02-.89,.01-1.35Z" fill="#231f20"></path>
      </g>
      <g>
        <g>
          <ellipse cx="419.11" cy="333.25" rx="70.98" ry="63.85" fill="#00796B"></ellipse>
          <path d="M419.11,397.6c-39.41,0-71.48-28.87-71.48-64.35s32.06-64.35,71.48-64.35,71.48,28.87,71.48,64.35-32.06,64.35-71.48,64.35Zm0-127.69c-38.86,0-70.48,28.42-70.48,63.35s31.62,63.35,70.48,63.35,70.48-28.42,70.48-63.35-31.62-63.35-70.48-63.35Z" fill="#231f20"></path>
        </g>
        <g>
          <path d="M444.44,337.14c0-14.19-11.5-25.69-25.69-25.69s-25.69,11.5-25.69,25.69c0,13.35,10.18,24.32,23.19,25.57h0s-8.4,19.59-4.5,41.39c0,0,3.89-2.34,9.34-.78,0,0-4.67-25.69-2.34-40.49,.22,0,.45,0,.67,0,9.96,35.48,4,63.08,4,63.08,6.23-3.11,10.12,.78,10.12,.78,5.45-30.67-8.18-57.76-11.67-64.04,12.72-1.54,22.57-12.37,22.57-25.5Z" fill="#FFD54F"></path>
          <path d="M433.86,427.71l-.68-.67c-.15-.15-3.73-3.59-9.55-.69l-.93,.47,.22-1.02c.06-.27,5.74-27.53-3.8-62.14-2.03,14.65,2.4,39.32,2.44,39.58l.14,.79-.77-.22c-5.16-1.47-8.91,.7-8.95,.73l-.62,.37-.13-.71c-3.49-19.56,2.93-37.55,4.29-41.05-13.15-1.6-22.98-12.66-22.98-26,0-14.44,11.75-26.19,26.19-26.19s26.19,11.75,26.19,26.19c0,12.99-9.53,23.99-22.28,25.9,4.45,8.21,16.63,34.15,11.37,63.73l-.17,.94Zm-5.75-3.5c2.4,0,4.16,.94,5.07,1.56,4.97-29.72-7.72-55.61-11.76-62.88l-.36-.65,.74-.09c12.62-1.53,22.13-12.28,22.13-25.01,0-13.89-11.3-25.19-25.19-25.19s-25.19,11.3-25.19,25.19c0,13.04,9.78,23.82,22.74,25.08l.66,.06-.25,.62c-.09,.21-8.13,19.32-4.59,40.45,1.27-.57,4.34-1.62,8.34-.71-.75-4.4-4.3-26.61-2.21-39.89l.07-.42h.43c.22,0,.44,0,.66,0h.39s.11,.36,.11,.36c8.85,31.53,5.11,57.16,4.19,62.36,1.49-.61,2.84-.84,4.03-.84Z" fill="#231f20"></path>
        </g>
        <g>
          <circle cx="418.74" cy="333.25" r="25.69" fill="#00796B"></circle>
          <path d="M418.74,359.45c-14.44,0-26.19-11.75-26.19-26.19s11.75-26.19,26.19-26.19,26.19,11.75,26.19,26.19-11.75,26.19-26.19,26.19Zm0-51.39c-13.89,0-25.19,11.3-25.19,25.19s11.3,25.19,25.19,25.19,25.19-11.3,25.19-25.19-11.3-25.19-25.19-25.19Z" fill="#231f20"></path>
        </g>
      </g>
      <path d="M347.43,582.02l-.97-.25c2.7-10.48,5.7-28.67,5.7-29.97,0-14.08,6.66-20.89,6.94-21.17l.71,.71c-.07,.07-6.65,6.83-6.65,20.47,0,1.32-3.02,19.68-5.73,30.22Z" fill="#231f20"></path>
    </g>
  </g>
  <g>
    <g>
      <path d="M672.65,508.46v8.87c0,12.14-9.84,21.98-21.98,21.98h0c-12.14,0-21.98-9.84-21.98-21.98v-8.87h43.96Z" fill="#2bb673"></path>
      <path d="M650.67,539.81c-12.4,0-22.48-10.08-22.48-22.48v-9.37h44.96v9.37c0,12.4-10.08,22.48-22.48,22.48Zm-21.48-30.85v8.37c0,11.84,9.64,21.48,21.48,21.48s21.48-9.64,21.48-21.48v-8.37h-42.96Z" fill="#231f20"></path>
    </g>
    <g>
      <ellipse cx="650.86" cy="508.46" rx="21.8" ry="4.62" fill="#fff"></ellipse>
      <path d="M650.86,513.58c-10.81,0-22.29-1.79-22.29-5.12s11.49-5.12,22.29-5.12,22.29,1.79,22.29,5.12-11.49,5.12-22.29,5.12Zm0-9.24c-13.19,0-21.29,2.4-21.29,4.12s8.1,4.12,21.29,4.12,21.29-2.4,21.29-4.12-8.1-4.12-21.29-4.12Z" fill="#231f20"></path>
    </g>
    <g>
      <ellipse cx="651.23" cy="508.64" rx="18.47" ry="2.59" fill="#fff"></ellipse>
      <path d="M651.23,511.73c-.77,0-18.97-.04-18.97-3.09s18.2-3.09,18.97-3.09,18.97,.04,18.97,3.09-18.2,3.09-18.97,3.09Zm-17.95-3.09c.61,.87,7.21,2.09,17.95,2.09s17.55-1.26,17.98-2.13c-.42-.79-7.07-2.05-17.98-2.05s-17.35,1.22-17.95,2.09Z" fill="#231f20"></path>
    </g>
    <path d="M659.72,511.36s-.06,0-.1,0c-.27-.05-.45-.31-.4-.59l8.5-43.96c.05-.27,.32-.45,.59-.4,.27,.05,.45,.31,.4,.59l-8.5,43.96c-.05,.24-.26,.41-.49,.41Z" fill="#231f20"></path>
    <g>
      <path d="M696.58,179.94s53.93,100.11,50.61,201.7c0,0-3.78,95.73-47.37,175.52,3.38-.25,7.08-.37,11.04-.27,3.05,.07,5.93,.27,8.62,.54,9.7-1.62,13.24-1.36,19.12-1.35,0,0,45.9-69.53,30.75-210.28,0,0-9.97-97.16-69.08-178.43l-3.69,12.56Z" fill="#f6991a"></path>
      <path d="M719.5,557.94h-.07c-2.84-.29-5.72-.47-8.58-.54-3.65-.09-7.35,0-10.99,.27l-.92,.07,.44-.81c43.03-78.77,47.27-174.35,47.31-175.3,3.28-100.29-50.01-200.44-50.55-201.44l-.1-.18,4.04-13.73,.6,.82c58.51,80.45,69.07,177.7,69.17,178.67,7.83,72.78-.96,126.15-9.71,158.1-9.49,34.65-21.01,52.33-21.12,52.5l-.15,.23h-.27c-.69,0-1.35,0-1.99-.01-4.77-.04-8.53-.07-17.04,1.35h-.07Zm-11.38-1.56c.92,0,1.84,.01,2.75,.03,2.86,.07,5.75,.25,8.59,.53,8.55-1.42,12.35-1.39,17.15-1.35,.55,0,1.12,0,1.71,.01,1.36-2.15,11.99-19.63,20.86-52.05,8.72-31.86,17.48-85.08,9.67-157.68-.1-.97-10.57-97.3-68.39-177.36l-3.35,11.39c2.58,4.89,53.8,103.25,50.57,201.77-.04,.96-4.25,96.11-46.99,174.94,2.46-.16,4.95-.24,7.43-.24Z" fill="#231f20"></path>
    </g>
    <path d="M708.55,205.87h-.05v-1c.09,0,7.59,.02,13.32-3.21l.49,.87c-5.78,3.25-13.04,3.33-13.76,3.33Z" fill="#231f20"></path>
    <path d="M724.65,248.41c-.19,0-.38-.11-.46-.3-.11-.25,0-.55,.26-.66,.1-.04,9.66-4.29,13.5-12.77,.11-.25,.41-.36,.66-.25,.25,.11,.36,.41,.25,.66-4,8.84-13.61,13.1-14.02,13.28-.06,.03-.13,.04-.2,.04Z" fill="#231f20"></path>
    <path d="M748.92,267.16c-12.65,0-18.86-2.58-19.13-2.69-.25-.11-.37-.4-.26-.66,.11-.25,.4-.37,.66-.27,.07,.03,6.86,2.84,20.48,2.6,.3-.01,.5,.21,.51,.49,0,.28-.21,.5-.49,.51-.6,.01-1.19,.02-1.76,.02Z" fill="#231f20"></path>
    <path d="M758.84,297.45c-13.35,0-21.96-6.5-22.04-6.57-.22-.17-.26-.48-.09-.7,.17-.22,.48-.26,.7-.09,.09,.07,8.78,6.62,22.22,6.35,.27-.03,.5,.21,.51,.49,0,.28-.21,.5-.49,.51-.27,0-.54,0-.8,0Z" fill="#231f20"></path>
    <path d="M751.7,328.61c-4.6,0-7.54-.6-7.59-.61-.27-.06-.44-.32-.39-.59,.06-.27,.32-.45,.59-.39,.1,.02,9.92,2.01,21.89-1.44,.27-.08,.54,.08,.62,.34,.08,.27-.08,.54-.34,.62-5.64,1.63-10.83,2.07-14.78,2.07Z" fill="#231f20"></path>
    <path d="M755.74,369.15c-3.53,0-6.53-.37-8.33-.66l-.21-.03c-.27-.03-.47-.27-.45-.54,.02-.27,.27-.48,.51-.46,.03,0,.13,.02,.3,.04,4.13,.67,14.65,1.77,23.31-2.37,.25-.12,.55-.01,.67,.24,.12,.25,.01,.55-.24,.67-5.11,2.44-10.82,3.12-15.57,3.12Z" fill="#231f20"></path>
    <path d="M748.15,406.06c-1.71,0-2.74-.05-2.78-.05-.28-.01-.49-.25-.47-.52,.01-.27,.2-.48,.52-.47,.15,0,15.07,.71,26.69-3.4,.26-.09,.54,.04,.64,.31,.09,.26-.04,.55-.3,.64-8.77,3.1-19.36,3.5-24.29,3.5Z" fill="#231f20"></path>
    <path d="M748.22,440.56c-4.84,0-8.04-.42-8.11-.43-.27-.04-.47-.29-.43-.56,.04-.27,.29-.46,.56-.43,.16,.02,16.09,2.08,30.68-3.14,.26-.09,.55,.04,.64,.3,.09,.26-.04,.55-.3,.64-8.27,2.96-16.95,3.62-23.04,3.62Z" fill="#231f20"></path>
    <path d="M749.11,469.39c-11.73,0-14.8-2.53-14.97-2.68-.21-.18-.23-.5-.05-.71,.18-.21,.49-.23,.7-.05,.07,.06,5.96,4.69,32.22,.99,.26-.04,.53,.15,.56,.43,.04,.27-.15,.53-.43,.56-7.56,1.06-13.47,1.45-18.05,1.45Z" fill="#231f20"></path>
    <path d="M760.12,500.72s-.03,0-.04,0c-19.52-1.47-31.67-11.73-31.79-11.83-.21-.18-.23-.5-.05-.71,.18-.21,.5-.23,.71-.05,.12,.1,12.04,10.15,31.22,11.6,.27,.02,.48,.26,.46,.54-.02,.26-.24,.46-.5,.46Z" fill="#231f20"></path>
    <path d="M746.82,539.03h-.01c-22.71-.47-35.47-4.26-35.6-4.3-.26-.08-.41-.36-.33-.62,.08-.26,.36-.41,.62-.33,.12,.04,12.77,3.79,35.33,4.25,.28,0,.5,.23,.49,.51,0,.27-.23,.49-.5,.49Z" fill="#231f20"></path>
    <path d="M640.13,511.31c-.2,0-.4-.13-.47-.33l-7.99-21.79h-14.43c-.28,0-.5-.22-.5-.5s.22-.5,.5-.5h14.78c.21,0,.4,.13,.47,.33l8.11,22.11c.09,.26-.04,.55-.3,.64-.06,.02-.11,.03-.17,.03Z" fill="#231f20"></path>
    <g>
      <path d="M647.53,483.15l5.16,.94,6.42,1.17,10.85,1.98,6.46,1.18,5.47,1c0-9.38-4.47-14.41-8.37-17.01-.63-.42-1.29-.8-1.96-1.13-.96-.47-1.95-.85-2.98-1.12-.68-.18-1.37-.33-2.06-.42-1.3-.18-2.62-.21-3.94-.08-.45,.04-.91,.11-1.36,.2-10.53,1.98-13.68,13.29-13.68,13.29Z" fill="#FFD54F"></path>
      <path d="M682.39,490.03l-35.48-6.49,.15-.53c.03-.12,3.36-11.63,14.07-13.65,.46-.09,.93-.16,1.4-.2,1.34-.14,2.71-.11,4.06,.08,.7,.1,1.41,.24,2.13,.44,1.05,.28,2.08,.67,3.07,1.16,.69,.34,1.37,.73,2.02,1.16,3.92,2.61,8.59,7.76,8.59,17.43v.6Zm-34.2-7.27l33.2,6.07c-.19-8.84-4.5-13.57-8.14-15.99-.61-.41-1.25-.78-1.9-1.09-.93-.46-1.9-.82-2.89-1.09-.67-.18-1.35-.32-2-.41-1.27-.18-2.56-.21-3.82-.07-.44,.04-.88,.11-1.32,.19-8.81,1.66-12.35,10.19-13.12,12.41Z" fill="#231f20"></path>
    </g>
    <g>
      <path d="M669.96,487.25l6.46,1.18c.08-3.39-.18-12.23-4.85-17.14-.96-.47-1.95-.85-2.98-1.12,1.08,2.48,2.82,8.17,1.37,17.08Z" fill="#fff"></path>
      <path d="M676.9,489.03l-7.51-1.38,.08-.48c1.41-8.7-.23-14.26-1.34-16.8l-.42-.95,1,.27c1.05,.28,2.08,.67,3.07,1.16l.14,.1c4.77,5.02,5.08,13.91,4.99,17.49v.58Zm-6.39-2.18l5.4,.99c.04-3.75-.44-11.62-4.66-16.13-.59-.29-1.2-.54-1.82-.75,1.07,2.9,2.26,8.19,1.09,15.89Z" fill="#231f20"></path>
    </g>
    <g>
      <path d="M652.69,484.1l6.42,1.17c.92-8.88,5.2-13.62,7.41-15.52-1.3-.18-2.62-.21-3.94-.08-6.46,3.59-9.03,11.1-9.88,14.43Z" fill="#fff"></path>
      <path d="M659.55,485.86l-7.48-1.37,.13-.52c.82-3.19,3.44-11.02,10.12-14.74l.19-.06c1.34-.14,2.71-.11,4.06,.08l1.09,.16-.84,.72c-2.32,1.99-6.34,6.62-7.24,15.2l-.06,.54Zm-6.24-2.16l5.36,.98c.92-7.65,4.29-12.21,6.69-14.56-.88-.06-1.76-.05-2.64,.03-5.95,3.36-8.5,10.23-9.41,13.54Z" fill="#231f20"></path>
    </g>
    <g>
      <path d="M784.19,49.66c-21.21,1.25-39.11,30.7-39.11,30.7,1.58-4.61,1.63-7.52,1.17-9.34-.52-2.07-2.83-3.17-4.75-2.25-10.57,5.07-24.4,37.59-24.4,37.59-.29-1.62-.7-2.85-1.19-3.77-1.37-2.6-4.97-2.88-6.77-.56-10.24,13.17-11.86,40.66-11.86,56.64l-.1-.17-11.54-21.46c-1.4-2.6-2.95-5.1-4.66-7.51-17.56-24.74-22.44-22.83-22.44-22.83-5.41,1.58-3.4,10.37-3.4,10.37,0,0-25.63-29.66-38.67-26.15-2.13,.57-3.39,2.79-2.73,4.9,.44,1.39,1.43,3.19,3.46,5.39,0,0-34.26-19.72-49.13-7.61-2.72,2.22-3.53,6.01-2.01,9.18,3.6,7.52,15.12,21.07,51.53,21.68,0,0-12.69,2.47-13,6.67,0,0-1.05,5.02,42.96,6.46,0,0-9.32,7.01,4.48,11.02,0,0,29.12,6.9,42.87,20.33,0,0-61.58-17.81-70.48-2.46,0,0-1.41,3.21,5.04,6.55,0,0-35.92,2.24-42.75,13.16-1.55,2.48-.26,5.78,2.56,6.52,1.25,.32,2.91,.51,5.11,.4,0,0-40.95,18.03-36.58,35.58,.61,2.45,2.42,4.46,4.81,5.29,6.15,2.12,21.23,2.06,50.04-25.84,0,0-6.25,12.73-2.31,14.08,.5,.17,1.06,.07,1.51-.21,2.06-1.25,10.04-6.94,31.36-30.06,0,0-2.51,7.19,5.04,6.55,0,0,3.16,.36,13.14-9.03,0,0,15.9-11.53,29.13-13.5,0,0-63.53,62.58-29.19,53.78,0,0-23.77,36.77-11.57,45.31,0,0,4.72,.28,8.31-6.44,0,0-7.96,40.95,6.47,49.87,2.73,1.69,6.23,1.42,8.77-.55,5.81-4.5,15.07-17.84,6.94-55.67,0,0,6.7,13.52,10.22,10.73,0,0,2.79-6.94-5.87-43.64,0,0,3.17,5.86,7.36,.67,0,0,2.15-4.03,.96-12.08,0,0-2-29.19,7.06-41.42,0,0,19.47,64.4,32.73,62.95,0,0,3.35-.95,2.98-8.26,0,0,17.89,27.07,30.73,30.67,3.75,1.05,7.22-2.47,6.08-6.2-.35-1.15-.99-2.48-2.03-4,0,0,24.1,20.38,41.73,17.56,7.53-1.2,11.23-9.82,6.89-16.08-2.54-3.66-7.02-8.09-14.77-13.18-4.88-3.2-10.16-5.77-15.7-7.58-4.03-1.32-9.11-2.67-14.58-3.39,0,0,8.45,0,12.86-2.99,.96-.65,1.04-2.05,.17-2.82-2.7-2.37-11.7-6.96-41.65-12.1,0,0,5.93-1.61,4.6-7.29,0,0-2.85-4.56-10.56-7.05,0,0-23.34-9.36-33.64-23.8,.39-.15,.8-.32,1.24-.52,2.23-1.03,4.54-1.86,6.93-2.4,5.4-1.22,14.84-2.71,25.86-1.63,2.21,.22,4.4,.61,6.56,1.1,2.9,.65,8.62,1.47,12.11-1.14,1.33-1,1.8-3.02,1.01-4.48-.44-.8-1.2-1.69-2.5-2.54,0,0,34.19,11.94,43.26,9.6,1.27-.33,1.78-1.86,.99-2.91-.7-.92-2.06-2.15-4.61-3.73l-6.22-4.13s38.42,12.9,55.67-2.07c2.97-2.58,3.67-6.86,1.61-10.21-3.87-6.32-15.1-14.63-47.68-9.91,0,0,2.73-1.9,4.44-5.23,.82-1.6,.07-3.6-1.6-4.27-1.92-.76-5.25-1.35-10.94-.82,0,0-17.99,1.17-31.87,11.03,0,0,4.64-11.56-4.69-9.89-1.63,.29-3.19,.92-4.6,1.79-5.62,3.45-25.69,15.95-39.12,26.55,6.87-10.17,17.82-18.21,17.82-18.21,15.97-9.96,4.45-15.39,4.45-15.39l18.58-10.09c11-5.63,15.25-9.25,16.84-11.39,1.08-1.46,.24-3.56-1.54-3.88-.76-.13-1.47-.06-1.98,.05-.81,.16-1.62,.31-2.44,.4-5.83,.62-7.17,.25-7.17,.25,30.58-16.51,36.83-31.38,37.26-40.14,.25-5.19-4.11-9.4-9.29-9.09Z" fill="#2bb673"></path>
      <path d="M668.48,320.1c-1.46,0-2.92-.39-4.2-1.18-12.61-7.8-8.64-38.66-7.14-47.85-3.42,4.67-7.22,4.51-7.4,4.49h-.14s-.12-.09-.12-.09c-11.42-7.99,6.91-38.74,10.78-44.95-4.95,1.1-7.94,.63-9.1-1.43-4.98-8.81,30.84-45.31,37.89-52.36-12.64,2.55-27.21,13.03-27.36,13.14-9.82,9.25-13.15,9.17-13.5,9.12-2.3,.21-4.01-.33-4.99-1.59-.88-1.14-.97-2.63-.85-3.78-20.54,22.17-28.32,27.66-30.24,28.82-.62,.37-1.32,.47-1.93,.25-.62-.21-1.08-.66-1.35-1.31-1.03-2.49,.96-7.94,2.3-11.09-27.54,26.06-42.29,26.37-48.69,24.16-2.56-.88-4.48-2.99-5.14-5.64-3.89-15.64,26.33-31.19,34.77-35.2-1.09-.05-2.07-.2-2.94-.42-1.49-.39-2.67-1.44-3.25-2.88-.58-1.46-.44-3.06,.39-4.39,6.12-9.79,34.28-12.69,41.5-13.27-5.12-3.22-3.88-6.23-3.82-6.37,8.21-14.16,58.2-1.36,69.07,1.61-14.02-12.27-40.84-18.73-41.12-18.8-4.79-1.39-7.44-3.32-7.88-5.74-.41-2.22,1.16-4.22,2.25-5.31-33.12-1.15-40.47-4.33-41.89-6.13-.34-.44-.32-.77-.29-.89,.22-3.01,5.8-5.09,9.73-6.18-33.44-1.44-44.55-14.19-48.22-21.86-1.63-3.41-.75-7.43,2.15-9.79,12.89-10.5,39.4,2.1,47.41,6.31-.9-1.24-1.54-2.43-1.89-3.55-.36-1.13-.24-2.33,.34-3.38,.58-1.05,1.58-1.84,2.74-2.15,11.76-3.16,32.84,19.24,38.03,25.02-.31-2.77-.27-7.98,4.02-9.23,.5-.19,5.71-1.34,22.99,23.03,1.71,2.41,3.29,4.95,4.69,7.56l10.71,19.91c.14-15.83,1.98-42.16,11.96-54.99,.96-1.24,2.46-1.9,4.02-1.76,1.53,.14,2.87,1.03,3.59,2.39,.36,.68,.66,1.48,.9,2.39,2.83-6.41,14.55-31.88,24.02-36.42,1.05-.5,2.26-.51,3.33,0,1.07,.5,1.84,1.44,2.13,2.58,.42,1.71,.34,3.87-.26,6.44,5.12-7.4,20.35-27.16,37.68-28.19h0c2.64-.15,5.24,.82,7.12,2.68,1.84,1.83,2.83,4.35,2.7,6.93-.46,9.35-7.12,23.77-36.01,39.73,1.06,0,2.75-.08,5.36-.36,.86-.09,1.69-.25,2.39-.39,.52-.1,1.31-.2,2.17-.05,1.01,.18,1.84,.86,2.23,1.82,.38,.96,.25,2.03-.37,2.85-2.21,2.98-8.09,6.97-17.01,11.54l-17.78,9.66c1.2,.77,3.33,2.5,3.48,5.18,.2,3.33-2.73,6.91-8.7,10.63-.07,.05-8.95,6.62-15.63,15.26,13.24-10.06,30.99-21.12,36.4-24.44,1.53-.94,3.13-1.56,4.77-1.86,2.52-.45,4.33-.02,5.4,1.29,1.69,2.07,.94,5.78,.33,7.83,13.66-9.05,30.71-10.25,30.89-10.26,4.83-.46,8.59-.17,11.16,.85,.93,.37,1.67,1.13,2.02,2.07,.35,.95,.3,2-.16,2.89-.98,1.91-2.27,3.35-3.24,4.27,30.58-4.1,42.15,3.34,46.46,10.38,2.17,3.55,1.45,8.11-1.71,10.85-14.5,12.58-43.13,5.93-52.87,3.16l3.38,2.24c2.27,1.41,3.87,2.71,4.73,3.85,.48,.63,.61,1.46,.35,2.21-.26,.73-.86,1.29-1.61,1.48-7.79,2.01-33.12-6.1-41.13-8.79,.27,.33,.5,.66,.69,1.01,.91,1.67,.4,3.97-1.15,5.12-3.62,2.71-9.4,1.93-12.52,1.23-2.38-.54-4.51-.89-6.5-1.09-10.69-1.05-19.87,.3-25.7,1.62-2.22,.5-4.52,1.3-6.83,2.37-.23,.1-.45,.2-.67,.29,10.28,13.86,32.81,23.01,33.04,23.1,7.76,2.5,10.67,7.06,10.79,7.25l.06,.15c.96,4.08-1.56,6.22-3.35,7.2,28.92,5.08,37.63,9.64,40.24,11.93,.54,.47,.82,1.15,.77,1.86-.04,.71-.41,1.35-.99,1.74-2.44,1.65-6.02,2.42-8.82,2.77,3.39,.65,6.88,1.56,10.42,2.72,5.53,1.81,10.86,4.38,15.82,7.64,6.91,4.54,11.93,9.02,14.91,13.31,2.13,3.08,2.53,6.96,1.06,10.4-1.47,3.45-4.57,5.87-8.28,6.46-14.79,2.37-33.68-11.05-40-15.96,.29,.6,.53,1.19,.7,1.76,.59,1.92,.09,3.94-1.32,5.38-1.42,1.45-3.43,1.99-5.37,1.44-11.33-3.18-26.19-23.85-30.07-29.49-.18,6.1-3.23,7.04-3.37,7.08-.16,.02-.33,.03-.49,.03-12.8,0-29.99-54.02-32.56-62.33-8.18,12.39-6.41,39.98-6.39,40.26,1.2,8.08-.93,12.18-1.02,12.35-1.4,1.75-2.81,2.53-4.25,2.39-1.03-.09-1.9-.64-2.55-1.25,7.98,34.56,5.45,41.5,5.34,41.78l-.05,.12-.1,.08c-.56,.44-1.21,.58-1.93,.43-2.54-.57-5.6-5.18-7.43-8.34,6.9,35.28-1.84,48.24-7.8,52.86-1.51,1.17-3.33,1.76-5.14,1.76Zm-9.28-54.65l-.63,3.27c-.08,.41-7.73,40.71,6.24,49.35,2.5,1.55,5.8,1.34,8.2-.52,5.96-4.62,14.76-17.92,6.76-55.16l-.84-3.92,1.78,3.59c1.38,2.79,5.58,10.17,8.37,10.79,.37,.08,.68,.04,.97-.15,.28-1.08,1.96-9.79-5.92-43.22l-.85-3.61,1.78,3.26s1.32,2.37,3.2,2.54c1.09,.1,2.21-.56,3.33-1.94h0s2-3.97,.85-11.69c-.09-1.24-1.91-29.56,7.16-41.79l.59-.8,.29,.95c.19,.63,19.08,62.62,31.78,62.62,.14,0,.28,0,.42-.02h0s2.88-1.02,2.54-7.74l-.09-1.83,1.01,1.53c.18,.27,17.94,26.95,30.44,30.47,1.59,.45,3.23,0,4.39-1.18,1.15-1.18,1.56-2.82,1.08-4.39-.36-1.19-1.02-2.49-1.96-3.86l-2.09-3.05,2.83,2.39c.24,.2,24.13,20.2,41.33,17.45,3.37-.54,6.19-2.73,7.52-5.87,1.33-3.12,.97-6.64-.97-9.44-2.9-4.19-7.83-8.58-14.63-13.05-4.89-3.21-10.14-5.74-15.58-7.52-4.97-1.62-9.85-2.76-14.49-3.37l.07-1c.08,0,8.35-.04,12.58-2.9,.33-.22,.53-.58,.55-.98,.03-.4-.13-.79-.43-1.05-2.59-2.26-11.4-6.83-41.41-11.99l-2.21-.38,2.17-.59c.22-.06,5.39-1.54,4.27-6.61-.38-.56-3.32-4.54-10.24-6.78-.27-.11-23.63-9.59-33.9-23.98l-.38-.53,.61-.23c.38-.14,.78-.31,1.21-.5,2.37-1.1,4.74-1.92,7.03-2.44,5.9-1.34,15.2-2.7,26.02-1.64,2.04,.2,4.2,.56,6.62,1.11,2.95,.67,8.4,1.41,11.7-1.05,1.14-.85,1.54-2.61,.87-3.84-.47-.85-1.25-1.65-2.34-2.36l-3.38-2.22,3.82,1.33c.34,.12,34.16,11.87,42.97,9.59,.43-.11,.77-.42,.92-.84,.15-.43,.08-.91-.2-1.28-.79-1.04-2.29-2.26-4.47-3.61l-9.4-6.24,3.59,1.21c.38,.13,38.35,12.63,55.19-1.97,2.79-2.42,3.43-6.45,1.51-9.58-3.47-5.67-14.21-14.46-47.19-9.68l-2.08,.3,1.72-1.21s2.65-1.88,4.28-5.05c.33-.64,.37-1.4,.11-2.08-.26-.68-.79-1.23-1.46-1.5-1.66-.66-4.87-1.33-10.71-.78-.19,.01-18.03,1.28-31.63,10.94l-1.39,.98,.63-1.58c.02-.06,2.3-5.82,.31-8.27-.82-1-2.31-1.32-4.45-.94-1.52,.27-3,.85-4.43,1.72-5.79,3.56-25.71,15.97-39.07,26.51l-2.52,1.99,1.8-2.66c6.84-10.12,17.83-18.25,17.94-18.33,5.58-3.48,8.43-6.84,8.26-9.74-.18-3.08-3.69-4.78-3.72-4.8l-.89-.42,19.45-10.56c11.11-5.69,15.2-9.26,16.68-11.25,.4-.54,.49-1.25,.24-1.89-.25-.64-.8-1.09-1.47-1.2-.7-.12-1.36-.04-1.79,.04-.72,.15-1.58,.31-2.48,.4-5.76,.62-7.21,.28-7.36,.24l-1.2-.33,1.09-.59c29.76-16.07,36.55-30.47,37-39.73,.11-2.33-.74-4.53-2.41-6.18-1.68-1.66-3.98-2.53-6.36-2.39h0c-20.71,1.22-38.53,30.17-38.71,30.46l-2.4,3.94,1.5-4.36c1.31-3.83,1.7-6.88,1.16-9.06-.21-.85-.79-1.54-1.58-1.92-.79-.37-1.69-.37-2.47,0-10.28,4.93-24.02,37.01-24.15,37.33l-.66,1.55-.29-1.66c-.26-1.46-.64-2.68-1.14-3.62-.56-1.07-1.58-1.75-2.79-1.86-1.21-.11-2.39,.41-3.15,1.38-10.22,13.15-11.75,40.93-11.76,56.33v1.81s-1.03-1.72-1.03-1.72l-11.55-21.48c-1.38-2.57-2.94-5.08-4.62-7.46-16.74-23.6-21.84-22.66-21.89-22.65-4.91,1.44-3.08,9.7-3.06,9.78l.45,1.96-1.31-1.52c-.25-.29-25.56-29.38-38.16-25.99-.9,.24-1.68,.85-2.12,1.67-.44,.81-.53,1.73-.26,2.6,.5,1.58,1.62,3.33,3.35,5.2l2.22,2.4-2.83-1.63c-.34-.2-34.13-19.41-48.57-7.65-2.53,2.06-3.3,5.59-1.87,8.58,3.7,7.73,15.26,20.8,51.09,21.4l4.76,.08-4.67,.91c-3.43,.67-12.37,3.09-12.6,6.22,.04,.16,1.41,4.58,42.48,5.92l1.41,.05-1.13,.85s-3.32,2.54-2.83,5.19c.37,1.98,2.84,3.69,7.15,4.95,.27,.06,29.39,7.08,43.08,20.45l1.42,1.39-1.91-.55c-.61-.18-61.3-17.53-69.91-2.69h0s-1.02,2.82,4.83,5.85l1.6,.83-1.8,.11c-.36,.02-35.74,2.35-42.36,12.93-.66,1.05-.77,2.32-.31,3.49,.46,1.14,1.39,1.98,2.57,2.28,1.35,.35,3.02,.48,4.96,.38l2.71-.14-2.49,1.09c-.41,.18-40.51,18.05-36.29,35.01,.58,2.32,2.26,4.16,4.49,4.93,6.33,2.18,21.17,1.74,49.53-25.73l2.06-2-1.26,2.58c-1.29,2.63-4.42,10.04-3.34,12.64,.16,.39,.4,.63,.75,.75,.33,.11,.73,.05,1.09-.16,1.93-1.17,9.88-6.79,31.25-29.97l1.63-1.77-.79,2.27s-1.01,2.98,.31,4.68c.76,.98,2.17,1.38,4.22,1.21,.08,.02,3.31,.07,12.84-8.9,.21-.16,16.2-11.66,29.4-13.63l1.52-.23-1.09,1.08c-12.22,12.04-43.02,44.9-38.85,52.28,.99,1.75,4.08,1.97,9.19,.66l1.24-.32-.69,1.07c-.23,.36-23.21,36.21-11.83,44.54,.77-.02,4.62-.39,7.7-6.17l1.57-2.94Z" fill="#231f20"></path>
    </g>
    <path d="M818.72,263.72c-.05,0-.11,0-.17-.03-.24-.08-24.22-8.55-50.7-24.55-24.47-14.78-56.13-39.2-68.05-71.58-.1-.26,.04-.55,.3-.64,.26-.09,.55,.04,.64,.3,22.64,61.49,117.2,95.2,118.15,95.54,.26,.09,.4,.38,.31,.64-.07,.21-.26,.33-.47,.33Z" fill="#231f20"></path>
    <path d="M701.3,167.88c-.19,0-.37-.11-.45-.29-.12-.25-.01-.55,.24-.67,64.05-30.38,145.41-14.98,146.23-14.82,.27,.05,.45,.32,.39,.59-.05,.27-.32,.45-.59,.4-.81-.16-81.85-15.5-145.61,14.74-.07,.03-.14,.05-.21,.05Z" fill="#231f20"></path>
    <path d="M700.57,166.03c-.05,0-.11,0-.16-.03-.26-.09-.4-.37-.31-.63,21.96-65.53,88.92-111,89.59-111.45,.23-.15,.54-.09,.69,.14,.15,.23,.09,.54-.14,.69-.67,.45-67.35,45.74-89.2,110.94-.07,.21-.26,.34-.47,.34Z" fill="#231f20"></path>
    <path d="M698.72,167.14c-.15,0-.3-.07-.4-.2-39.69-52.8-128.46-68.73-129.35-68.89-.27-.05-.45-.31-.41-.58,.05-.27,.3-.45,.58-.41,.9,.16,90.05,16.16,129.98,69.27,.17,.22,.12,.53-.1,.7-.09,.07-.2,.1-.3,.1Z" fill="#231f20"></path>
    <path d="M668.79,316.75c-.26,0-.48-.2-.5-.46-4.21-51.8,3.97-88.59,11.57-110.34,8.25-23.59,17.63-35.09,17.73-35.2,.18-.21,.49-.24,.7-.07,.21,.18,.24,.49,.07,.7-.37,.45-37.08,46.1-29.07,144.82,.02,.28-.18,.52-.46,.54-.01,0-.03,0-.04,0Z" fill="#231f20"></path>
    <path d="M561.67,229.94c-.14,0-.29-.06-.38-.18-.18-.21-.15-.53,.07-.7,40.71-33.83,74.68-47.93,96-53.8,23.15-6.37,36.86-4.7,37-4.68,.27,.04,.47,.29,.43,.56-.04,.27-.29,.46-.56,.43-.13-.02-13.7-1.67-36.68,4.67-21.21,5.85-55.01,19.89-95.56,53.59-.09,.08-.21,.12-.32,.12Z" fill="#231f20"></path>
  </g>
  <path d="M671.43,562.48l-.32-.95c.22-.07,21.79-7.15,48.28-4.55,1.43-.29,21.64-4.25,36.1,1.87l-.39,.92c-14.63-6.2-35.37-1.84-35.58-1.8l-.08,.02h-.08c-26.3-2.6-47.73,4.42-47.94,4.49Z" fill="#231f20"></path>
</svg>
